{"glyphs":{"0":{"ha":886,"x_min":0,"x_max":0,"o":"m 454 -14 b 54 501 213 -14 54 222 b 440 986 54 775 210 986 b 832 476 682 986 832 756 b 454 -14 832 203 686 -14 m 490 89 b 601 344 574 89 601 196 b 392 883 601 564 524 883 b 282 628 307 883 282 779 b 490 89 282 410 361 89 "},"1":{"ha":525,"x_min":0,"x_max":0,"o":"m 403 167 b 472 35 403 86 472 83 b 407 1 472 8 449 1 l 146 1 b 78 36 101 1 78 11 b 172 167 78 94 172 86 l 172 697 b 101 807 172 764 165 783 b 61 850 71 818 61 831 b 111 894 61 871 74 878 b 368 986 201 936 344 986 b 403 939 393 986 403 969 "},"2":{"ha":844,"x_min":0,"x_max":0,"o":"m 119 0 b 75 88 44 0 24 36 b 490 697 379 396 490 551 b 354 826 490 775 436 826 b 151 726 278 826 213 793 b 104 767 122 694 90 722 b 438 986 133 851 251 986 b 731 738 596 986 732 893 b 294 182 731 592 581 400 b 511 181 360 175 426 175 b 765 278 665 192 719 278 b 794 225 788 278 796 254 b 764 76 793 174 779 119 b 644 0 743 24 729 0 "},"3":{"ha":813,"x_min":0,"x_max":0,"o":"m 388 -14 b 51 194 196 -14 79 108 b 106 236 38 238 75 263 b 340 142 168 181 246 142 b 517 300 436 142 517 196 b 285 485 517 397 453 460 b 269 561 242 492 247 543 b 506 797 365 644 442 711 b 279 797 433 803 351 803 b 176 754 226 794 204 785 b 117 706 149 726 138 706 b 88 758 93 706 86 731 b 113 899 89 800 100 854 b 238 972 128 951 146 972 l 690 972 b 722 907 735 972 747 940 b 449 593 640 794 539 683 b 765 306 608 572 765 489 b 388 -14 765 132 629 -14 "},"4":{"ha":844,"x_min":0,"x_max":0,"o":"m 528 -46 b 474 0 490 -46 474 -32 l 474 153 l 101 153 b 35 231 53 153 35 168 b 251 606 35 328 143 465 b 458 861 331 710 408 806 b 646 986 538 949 565 986 b 704 935 683 986 704 975 l 704 324 b 786 339 749 324 765 339 b 806 229 811 339 815 304 b 731 138 797 150 763 138 l 704 138 l 704 53 b 667 -11 704 26 693 4 b 528 -46 622 -36 554 -46 m 474 329 l 474 725 b 214 388 347 574 276 478 b 225 324 185 347 189 322 "},"5":{"ha":819,"x_min":0,"x_max":0,"o":"m 410 -14 b 35 194 179 -14 64 108 b 90 236 21 238 58 264 b 347 139 153 181 232 139 b 519 296 444 139 519 193 b 176 518 519 435 376 489 b 135 581 131 524 121 539 l 236 929 b 294 972 246 963 258 975 b 510 972 358 968 421 968 b 697 1011 646 979 653 1011 b 724 960 719 1011 725 988 b 704 868 722 935 717 910 b 583 793 688 817 671 797 b 301 796 492 789 396 789 l 264 678 b 767 314 614 633 768 515 b 410 -14 767 139 619 -14 "},"6":{"ha":821,"x_min":0,"x_max":0,"o":"m 418 -15 b 56 440 204 -15 60 147 b 476 986 50 721 225 986 b 692 894 583 988 665 938 b 656 835 715 853 685 821 b 504 869 596 861 563 869 b 301 606 421 869 306 810 b 499 683 339 647 411 683 b 778 357 663 683 778 538 b 418 -15 778 144 613 -15 m 463 90 b 571 251 551 90 571 178 b 400 553 571 392 507 553 b 289 381 308 553 289 460 b 463 90 289 242 356 90 "},"7":{"ha":744,"x_min":0,"x_max":0,"o":"m 357 -17 b 199 22 322 -15 244 -4 b 160 86 171 38 160 60 b 560 790 160 321 424 592 b 253 790 457 800 356 800 b 74 682 139 781 135 682 b 44 735 50 682 43 707 b 75 900 46 774 63 856 b 192 972 90 951 108 972 l 665 972 b 718 906 722 972 743 956 b 390 31 581 626 390 319 b 357 -17 390 0 385 -17 "},"8":{"ha":836,"x_min":0,"x_max":0,"o":"m 596 539 b 783 271 699 474 783 396 b 411 -17 783 61 596 -17 b 51 261 257 -17 51 53 b 217 506 51 390 144 465 b 83 724 142 563 83 629 b 438 982 83 906 267 982 b 747 761 564 982 747 928 b 596 539 747 651 668 579 m 422 882 b 311 779 361 882 311 843 b 500 596 311 706 400 654 b 508 590 503 594 506 593 b 554 738 538 631 554 682 b 422 882 554 825 504 882 m 432 85 b 563 215 531 85 563 161 b 357 417 563 294 472 351 b 299 451 338 428 318 439 b 250 290 275 417 250 365 b 432 85 250 168 326 85 "},"9":{"ha":828,"x_min":0,"x_max":0,"o":"m 408 986 b 771 531 622 986 767 825 b 350 -15 776 250 601 -15 b 135 78 243 -17 161 33 b 171 136 111 118 142 150 b 322 101 231 110 264 101 b 525 365 406 101 521 163 b 328 289 488 324 415 289 b 49 614 164 289 49 433 b 408 986 49 826 214 986 m 364 881 b 256 721 275 881 256 793 b 426 418 256 579 319 418 b 538 590 518 418 538 511 b 364 881 538 729 471 881 "},"A":{"ha":1015,"x_min":0,"x_max":0,"o":"m 247 183 b 283 42 204 79 283 96 b 214 1 283 8 253 1 l 83 1 b 4 42 35 1 4 10 b 122 183 4 96 83 86 l 365 783 b 319 931 403 878 319 874 b 367 972 319 960 339 972 l 539 972 b 599 932 568 972 586 960 l 892 192 b 994 44 939 78 994 101 b 918 0 994 11 975 0 l 664 0 b 592 44 614 0 592 11 b 644 192 592 103 688 82 l 632 224 b 447 268 614 268 614 268 b 267 231 282 268 282 268 m 449 369 b 560 407 574 369 574 369 l 450 690 l 340 415 b 449 369 322 369 322 369 "},"Á":{"ha":1015,"x_min":0,"x_max":0,"o":"m 468 1047 b 400 1076 438 1047 400 1054 b 497 1197 401 1104 465 1168 b 617 1265 543 1236 582 1267 b 688 1185 653 1264 689 1228 b 468 1047 686 1097 551 1044 m 247 183 b 283 42 204 79 283 96 b 214 1 283 8 253 1 l 83 1 b 4 42 35 1 4 10 b 122 183 4 96 83 86 l 365 783 b 319 931 403 878 319 874 b 367 972 319 960 339 972 l 539 972 b 599 932 568 972 586 960 l 892 192 b 994 44 939 78 994 101 b 918 0 994 11 975 0 l 664 0 b 592 44 614 0 592 11 b 644 192 592 103 688 82 l 632 224 b 447 268 614 268 614 268 b 267 231 282 268 282 268 m 449 369 b 560 407 574 369 574 369 l 450 690 l 340 415 b 449 369 322 369 322 369 "},"Ă":{"ha":1015,"x_min":0,"x_max":0,"o":"m 474 1047 b 265 1238 349 1047 265 1131 b 290 1283 265 1265 275 1283 b 322 1263 301 1283 310 1278 b 475 1188 365 1208 406 1188 b 625 1263 542 1188 582 1208 b 657 1283 639 1278 646 1283 b 682 1238 674 1283 682 1265 b 474 1047 682 1126 594 1047 m 247 183 b 283 42 204 79 283 96 b 214 1 283 8 253 1 l 83 1 b 4 42 35 1 4 10 b 122 183 4 96 83 86 l 365 783 b 319 931 403 878 319 874 b 367 972 319 960 339 972 l 539 972 b 599 932 568 972 586 960 l 892 192 b 994 44 939 78 994 101 b 918 0 994 11 975 0 l 664 0 b 592 44 614 0 592 11 b 644 192 592 103 688 82 l 632 224 b 447 268 614 268 614 268 b 267 231 282 268 282 268 m 449 369 b 560 407 574 369 574 369 l 450 690 l 340 415 b 449 369 322 369 322 369 "},"Â":{"ha":1015,"x_min":0,"x_max":0,"o":"m 292 1040 b 265 1064 274 1042 267 1050 b 342 1154 265 1079 290 1103 b 475 1242 403 1214 414 1242 b 603 1158 536 1242 540 1218 b 683 1064 653 1108 685 1081 b 657 1040 683 1050 675 1042 b 475 1110 613 1040 528 1075 b 292 1040 424 1075 336 1040 m 247 183 b 283 42 204 79 283 96 b 214 1 283 8 253 1 l 83 1 b 4 42 35 1 4 10 b 122 183 4 96 83 86 l 365 783 b 319 931 403 878 319 874 b 367 972 319 960 339 972 l 539 972 b 599 932 568 972 586 960 l 892 192 b 994 44 939 78 994 101 b 918 0 994 11 975 0 l 664 0 b 592 44 614 0 592 11 b 644 192 592 103 688 82 l 632 224 b 447 268 614 268 614 268 b 267 231 282 268 282 268 m 449 369 b 560 407 574 369 574 369 l 450 690 l 340 415 b 449 369 322 369 322 369 "},"Ä":{"ha":1015,"x_min":0,"x_max":0,"o":"m 379 1057 b 303 1131 338 1057 303 1086 b 410 1242 303 1188 347 1242 b 493 1160 460 1242 493 1210 b 379 1057 493 1099 440 1057 m 622 1057 b 543 1131 578 1057 543 1086 b 650 1242 543 1188 590 1242 b 735 1160 700 1242 735 1210 b 622 1057 735 1099 682 1057 m 247 183 b 283 42 204 79 283 96 b 214 1 283 8 253 1 l 83 1 b 4 42 35 1 4 10 b 122 183 4 96 83 86 l 365 783 b 319 931 403 878 319 874 b 367 972 319 960 339 972 l 539 972 b 599 932 568 972 586 960 l 892 192 b 994 44 939 78 994 101 b 918 0 994 11 975 0 l 664 0 b 592 44 614 0 592 11 b 644 192 592 103 688 82 l 632 224 b 447 268 614 268 614 268 b 267 231 282 268 282 268 m 449 369 b 560 407 574 369 574 369 l 450 690 l 340 415 b 449 369 322 369 322 369 "},"À":{"ha":1015,"x_min":0,"x_max":0,"o":"m 511 1047 b 292 1185 428 1044 294 1097 b 363 1265 290 1228 326 1264 b 482 1197 399 1267 438 1236 b 579 1076 515 1168 579 1104 b 511 1047 579 1054 542 1047 m 247 183 b 283 42 204 79 283 96 b 214 1 283 8 253 1 l 83 1 b 4 42 35 1 4 10 b 122 183 4 96 83 86 l 365 783 b 319 931 403 878 319 874 b 367 972 319 960 339 972 l 539 972 b 599 932 568 972 586 960 l 892 192 b 994 44 939 78 994 101 b 918 0 994 11 975 0 l 664 0 b 592 44 614 0 592 11 b 644 192 592 103 688 82 l 632 224 b 447 268 614 268 614 268 b 267 231 282 268 282 268 m 449 369 b 560 407 574 369 574 369 l 450 690 l 340 415 b 449 369 322 369 322 369 "},"Ā":{"ha":1015,"x_min":0,"x_max":0,"o":"m 306 1069 b 246 1115 249 1069 240 1076 b 321 1171 254 1164 260 1171 l 633 1171 b 700 1125 697 1171 707 1163 b 618 1069 694 1075 688 1069 m 247 183 b 283 42 204 79 283 96 b 214 1 283 8 253 1 l 83 1 b 4 42 35 1 4 10 b 122 183 4 96 83 86 l 365 783 b 319 931 403 878 319 874 b 367 972 319 960 339 972 l 539 972 b 599 932 568 972 586 960 l 892 192 b 994 44 939 78 994 101 b 918 0 994 11 975 0 l 664 0 b 592 44 614 0 592 11 b 644 192 592 103 688 82 l 632 224 b 447 268 614 268 614 268 b 267 231 282 268 282 268 m 449 369 b 560 407 574 369 574 369 l 450 690 l 340 415 b 449 369 322 369 322 369 "},"Ą":{"ha":1015,"x_min":0,"x_max":0,"o":"m 965 -169 b 992 -211 1003 -151 1014 -186 b 864 -264 964 -242 917 -264 b 724 -143 779 -264 724 -214 b 819 0 724 -92 754 -40 l 664 0 b 592 44 614 0 592 11 b 644 192 592 103 688 82 l 632 224 b 447 268 614 268 614 268 b 267 231 282 268 282 268 l 247 183 b 283 42 204 79 283 96 b 214 1 283 8 253 1 l 83 1 b 4 42 35 1 4 10 b 122 183 4 96 83 86 l 365 783 b 319 931 403 878 319 874 b 367 972 319 960 339 972 l 539 972 b 599 932 568 972 586 960 l 892 192 b 994 44 939 78 994 101 b 918 0 994 11 975 0 l 903 0 b 851 -115 864 -47 851 -85 b 917 -182 851 -151 872 -182 b 965 -169 931 -182 947 -178 m 449 369 b 560 407 574 369 574 369 l 450 690 l 340 415 b 449 369 322 369 322 369 "},"Å":{"ha":1015,"x_min":0,"x_max":0,"o":"m 474 1024 b 321 1169 386 1024 321 1082 b 479 1319 321 1260 390 1319 b 632 1174 565 1319 632 1263 b 474 1024 632 1082 561 1024 m 479 1110 b 536 1176 518 1110 539 1139 b 474 1238 532 1213 508 1238 b 415 1172 435 1238 413 1211 b 479 1110 419 1135 444 1110 m 247 183 b 283 42 204 79 283 96 b 214 1 283 8 253 1 l 83 1 b 4 42 35 1 4 10 b 122 183 4 96 83 86 l 365 783 b 319 931 403 878 319 874 b 367 972 319 960 339 972 l 539 972 b 599 932 568 972 586 960 l 892 192 b 994 44 939 78 994 101 b 918 0 994 11 975 0 l 664 0 b 592 44 614 0 592 11 b 644 192 592 103 688 82 l 632 224 b 447 268 614 268 614 268 b 267 231 282 268 282 268 m 449 369 b 560 407 574 369 574 369 l 450 690 l 340 415 b 449 369 322 369 322 369 "},"Ã":{"ha":1015,"x_min":0,"x_max":0,"o":"m 589 1043 b 350 1101 515 1043 433 1101 b 300 1060 324 1101 300 1093 b 244 1111 300 1024 244 1044 b 358 1215 244 1158 276 1215 b 597 1157 435 1215 553 1157 b 646 1199 624 1157 646 1164 b 703 1146 646 1233 703 1214 b 589 1043 703 1099 671 1043 m 247 183 b 283 42 204 79 283 96 b 214 1 283 8 253 1 l 83 1 b 4 42 35 1 4 10 b 122 183 4 96 83 86 l 365 783 b 319 931 403 878 319 874 b 367 972 319 960 339 972 l 539 972 b 599 932 568 972 586 960 l 892 192 b 994 44 939 78 994 101 b 918 0 994 11 975 0 l 664 0 b 592 44 614 0 592 11 b 644 192 592 103 688 82 l 632 224 b 447 268 614 268 614 268 b 267 231 282 268 282 268 m 449 369 b 560 407 574 369 574 369 l 450 690 l 340 415 b 449 369 322 369 322 369 "},"Æ":{"ha":1364,"x_min":0,"x_max":0,"o":"m 1283 314 b 1317 242 1315 306 1318 285 b 1294 63 1314 160 1306 103 b 1176 0 1283 18 1260 0 l 603 0 b 521 44 543 0 521 11 b 617 244 521 126 613 69 l 314 244 l 258 151 b 290 40 215 81 290 94 b 221 0 290 7 260 0 l 92 0 b 11 40 42 0 11 8 b 117 151 11 94 79 93 l 533 821 b 526 894 554 853 550 876 b 490 939 515 904 490 918 b 536 972 490 963 506 972 l 1150 972 b 1274 921 1232 972 1257 964 b 1310 779 1286 883 1300 836 b 1288 703 1318 738 1314 711 b 1217 740 1260 693 1240 704 b 1013 872 1158 828 1100 872 l 953 872 b 847 808 867 872 847 853 l 847 678 b 935 610 847 622 876 610 l 936 610 b 1088 658 1039 610 1036 658 b 1132 618 1118 658 1128 640 l 1169 440 b 1142 372 1179 392 1171 379 b 936 511 1067 357 1058 511 l 935 511 b 847 443 876 511 847 500 l 847 164 b 965 100 847 119 867 100 l 1050 101 b 1215 261 1135 101 1167 160 b 1283 314 1239 308 1258 319 m 376 349 l 617 349 l 617 714 b 615 750 617 726 617 739 "},"B":{"ha":929,"x_min":0,"x_max":0,"o":"m 674 585 b 899 322 824 549 899 449 b 476 0 899 142 750 0 l 115 0 b 33 44 56 0 33 11 b 129 258 33 128 129 67 l 129 714 b 33 928 129 906 33 844 b 115 972 33 961 56 972 l 428 972 b 794 763 632 972 792 924 b 674 585 796 681 753 618 m 358 653 b 426 621 358 618 401 621 b 571 731 519 621 571 657 b 406 872 571 806 508 872 b 358 833 381 872 358 863 m 474 100 b 650 278 593 100 650 157 b 407 515 650 404 564 515 b 358 475 369 515 358 506 l 358 197 b 474 100 358 129 375 100 "},"":{"ha":929,"x_min":0,"x_max":0,"o":"m 674 585 b 794 763 753 618 796 681 b 428 972 792 924 632 972 l 115 972 b 33 928 56 972 33 961 b 129 714 33 844 129 906 l 129 258 b 33 44 129 67 33 128 b 115 0 33 11 56 0 l 476 0 b 899 322 750 0 899 142 b 674 585 899 449 824 549 m 358 833 b 406 872 358 863 381 872 b 571 731 508 872 571 806 b 426 621 571 657 519 621 b 358 653 401 621 358 618 m 474 100 b 358 197 375 100 358 129 l 358 475 b 407 515 358 506 369 515 b 650 278 564 515 650 404 b 474 100 650 157 593 100 "},"C":{"ha":982,"x_min":0,"x_max":0,"o":"m 543 -14 b 56 468 263 -14 56 168 b 569 986 56 753 279 986 b 739 961 658 986 708 961 b 819 985 775 961 783 985 b 879 913 844 985 861 972 b 924 714 896 858 911 797 b 886 643 929 671 922 646 b 810 710 854 640 842 664 b 553 885 744 804 663 885 b 290 569 389 885 290 753 b 621 129 290 338 407 129 b 883 256 724 129 806 174 b 939 207 919 294 961 253 b 543 -14 882 79 725 -14 "},"Ć":{"ha":982,"x_min":0,"x_max":0,"o":"m 503 1047 b 435 1076 472 1047 435 1054 b 532 1197 436 1104 500 1168 b 651 1265 578 1236 617 1267 b 722 1185 688 1264 724 1228 b 503 1047 721 1097 586 1044 m 543 -14 b 56 468 263 -14 56 168 b 569 986 56 753 279 986 b 739 961 658 986 708 961 b 819 985 775 961 783 985 b 879 913 844 985 861 972 b 924 714 896 858 911 797 b 886 643 929 671 922 646 b 810 710 854 640 842 664 b 553 885 744 804 663 885 b 290 569 389 885 290 753 b 621 129 290 338 407 129 b 883 256 724 129 806 174 b 939 207 919 294 961 253 b 543 -14 882 79 725 -14 "},"Č":{"ha":982,"x_min":0,"x_max":0,"o":"m 350 1250 b 533 1182 394 1250 482 1217 b 715 1250 586 1217 671 1250 b 742 1228 733 1250 742 1242 b 661 1133 743 1211 711 1183 b 533 1050 599 1072 594 1050 b 400 1138 472 1050 461 1076 b 324 1228 349 1188 324 1213 b 350 1250 325 1242 332 1250 m 543 -14 b 56 468 263 -14 56 168 b 569 986 56 753 279 986 b 739 961 658 986 708 961 b 819 985 775 961 783 985 b 879 913 844 985 861 972 b 924 714 896 858 911 797 b 886 643 929 671 922 646 b 810 710 854 640 842 664 b 553 885 744 804 663 885 b 290 569 389 885 290 753 b 621 129 290 338 407 129 b 883 256 724 129 806 174 b 939 207 919 294 961 253 b 543 -14 882 79 725 -14 "},"Ç":{"ha":982,"x_min":0,"x_max":0,"o":"m 883 256 b 939 207 919 294 961 253 b 553 -14 883 82 731 -11 l 522 -69 b 653 -181 593 -81 653 -111 b 513 -300 653 -251 592 -300 b 392 -251 453 -300 411 -276 b 426 -221 374 -229 394 -201 b 481 -237 442 -231 460 -237 b 538 -187 518 -237 538 -214 b 449 -121 538 -142 486 -129 b 432 -93 435 -118 424 -108 l 476 -10 b 56 468 231 17 56 192 b 569 986 56 753 279 986 b 739 961 658 986 708 961 b 819 985 775 961 783 985 b 879 913 844 985 861 972 b 924 714 896 858 911 797 b 886 643 929 671 922 646 b 810 710 854 640 842 664 b 553 885 744 804 663 885 b 290 569 389 885 290 753 b 621 129 290 338 407 129 b 883 256 724 129 806 174 "},"Ċ":{"ha":982,"x_min":0,"x_max":0,"o":"m 489 1049 b 394 1140 428 1049 393 1092 b 553 1288 394 1213 474 1289 b 653 1193 608 1288 653 1247 b 489 1049 651 1115 569 1049 m 543 -14 b 56 468 263 -14 56 168 b 569 986 56 753 279 986 b 739 961 658 986 708 961 b 819 985 775 961 783 985 b 879 913 844 985 861 972 b 924 714 896 858 911 797 b 886 643 929 671 922 646 b 810 710 854 640 842 664 b 553 885 744 804 663 885 b 290 569 389 885 290 753 b 621 129 290 338 407 129 b 883 256 724 129 806 174 b 939 207 919 294 961 253 b 543 -14 882 79 725 -14 "},"D":{"ha":1071,"x_min":0,"x_max":0,"o":"m 469 972 b 1011 504 849 972 1011 740 b 501 0 1011 222 818 0 l 115 0 b 33 44 56 0 33 11 b 129 258 33 128 129 67 l 129 714 b 33 928 129 906 33 844 b 115 972 33 961 56 972 m 485 93 b 772 418 678 93 772 218 b 433 882 772 681 628 882 b 358 821 379 882 358 872 l 358 179 b 485 93 358 128 374 93 "},"Ď":{"ha":1071,"x_min":0,"x_max":0,"o":"m 340 1138 b 264 1228 289 1188 264 1213 b 290 1250 265 1242 272 1250 b 474 1182 335 1250 422 1217 b 656 1250 526 1217 611 1250 b 682 1228 674 1250 682 1242 b 601 1133 683 1211 651 1183 b 474 1050 539 1072 535 1050 b 340 1138 413 1050 401 1076 m 469 972 b 1011 504 849 972 1011 740 b 501 0 1011 222 818 0 l 115 0 b 33 44 56 0 33 11 b 129 258 33 128 129 67 l 129 714 b 33 928 129 906 33 844 b 115 972 33 961 56 972 m 485 93 b 772 418 678 93 772 218 b 433 882 772 681 628 882 b 358 821 379 882 358 872 l 358 179 b 485 93 358 128 374 93 "},"Đ":{"ha":1071,"x_min":0,"x_max":0,"o":"m 469 972 b 1011 504 849 972 1011 740 b 501 0 1011 222 818 0 l 115 0 b 33 44 56 0 33 11 b 129 258 33 128 129 67 l 129 435 l 78 435 b 38 496 40 435 38 456 b 78 536 38 521 51 536 l 129 536 l 129 714 b 33 928 129 906 33 844 b 115 972 33 961 56 972 m 485 93 b 772 418 678 93 772 218 b 433 882 772 681 628 882 b 358 821 379 882 358 872 l 358 536 l 431 536 b 471 496 457 536 471 521 b 431 435 471 451 465 435 l 358 435 l 358 179 b 485 93 358 128 374 93 "},"Ð":{"ha":1071,"x_min":0,"x_max":0,"o":"m 469 972 b 1011 504 849 972 1011 740 b 501 0 1011 222 818 0 l 115 0 b 33 44 56 0 33 11 b 129 258 33 128 129 67 l 129 435 l 78 435 b 38 496 40 435 38 456 b 78 536 38 521 51 536 l 129 536 l 129 714 b 33 928 129 906 33 844 b 115 972 33 961 56 972 m 485 93 b 772 418 678 93 772 218 b 433 882 772 681 628 882 b 358 821 379 882 358 872 l 358 536 l 431 536 b 471 496 457 536 471 521 b 431 435 471 451 465 435 l 358 435 l 358 179 b 485 93 358 128 374 93 "},"E":{"ha":876,"x_min":0,"x_max":0,"o":"m 794 314 b 829 242 828 306 831 285 b 807 63 826 160 818 103 b 689 0 794 18 771 0 l 115 0 b 33 44 56 0 33 11 b 129 258 33 128 129 67 l 129 714 b 33 928 129 906 33 844 b 115 972 33 961 56 972 l 663 972 b 785 921 744 972 769 964 b 822 779 799 883 811 836 b 800 703 831 738 826 711 b 729 740 772 693 753 704 b 525 872 671 828 613 872 l 465 872 b 358 808 378 872 358 853 l 358 678 b 446 610 358 622 389 610 l 449 610 b 600 658 550 610 549 658 b 644 618 631 658 639 640 l 681 440 b 653 372 692 392 682 379 b 449 511 579 357 569 511 l 446 511 b 358 443 389 511 358 500 l 358 164 b 476 100 358 119 378 100 l 563 101 b 728 261 647 101 678 160 b 794 314 751 308 771 319 "},"":{"ha":876,"x_min":0,"x_max":0,"o":"m 794 314 b 728 261 771 319 751 308 b 563 101 678 160 647 101 l 476 100 b 358 164 378 100 358 119 l 358 443 b 446 511 358 500 389 511 l 449 511 b 653 372 569 511 579 357 b 681 440 682 379 692 392 l 644 618 b 600 658 639 640 631 658 b 449 610 549 658 550 610 l 446 610 b 358 678 389 610 358 622 l 358 808 b 465 872 358 853 378 872 l 525 872 b 729 740 613 872 671 828 b 800 703 753 704 772 693 b 822 779 826 711 831 738 b 785 921 811 836 799 883 b 663 972 769 964 744 972 l 115 972 b 33 928 56 972 33 961 b 129 714 33 844 129 906 l 129 258 b 33 44 129 67 33 128 b 115 0 33 11 56 0 l 689 0 b 807 63 771 0 794 18 b 829 242 818 103 826 160 b 794 314 831 285 828 306 "},"É":{"ha":876,"x_min":0,"x_max":0,"o":"m 394 1047 b 326 1076 364 1047 326 1054 b 424 1197 328 1104 392 1168 b 543 1265 469 1236 508 1267 b 614 1185 579 1264 615 1228 b 394 1047 613 1097 478 1044 m 794 314 b 829 242 828 306 831 285 b 807 63 826 160 818 103 b 689 0 794 18 771 0 l 115 0 b 33 44 56 0 33 11 b 129 258 33 128 129 67 l 129 714 b 33 928 129 906 33 844 b 115 972 33 961 56 972 l 663 972 b 785 921 744 972 769 964 b 822 779 799 883 811 836 b 800 703 831 738 826 711 b 729 740 772 693 753 704 b 525 872 671 828 613 872 l 465 872 b 358 808 378 872 358 853 l 358 678 b 446 610 358 622 389 610 l 449 610 b 600 658 550 610 549 658 b 644 618 631 658 639 640 l 681 440 b 653 372 692 392 682 379 b 449 511 579 357 569 511 l 446 511 b 358 443 389 511 358 500 l 358 164 b 476 100 358 119 378 100 l 563 101 b 728 261 647 101 678 160 b 794 314 751 308 771 319 "},"Ě":{"ha":876,"x_min":0,"x_max":0,"o":"m 301 1138 b 225 1228 250 1188 225 1213 b 251 1250 226 1242 233 1250 b 435 1182 296 1250 383 1217 b 617 1250 488 1217 572 1250 b 643 1228 635 1250 643 1242 b 563 1133 644 1211 613 1183 b 435 1050 500 1072 496 1050 b 301 1138 374 1050 363 1076 m 794 314 b 829 242 828 306 831 285 b 807 63 826 160 818 103 b 689 0 794 18 771 0 l 115 0 b 33 44 56 0 33 11 b 129 258 33 128 129 67 l 129 714 b 33 928 129 906 33 844 b 115 972 33 961 56 972 l 663 972 b 785 921 744 972 769 964 b 822 779 799 883 811 836 b 800 703 831 738 826 711 b 729 740 772 693 753 704 b 525 872 671 828 613 872 l 465 872 b 358 808 378 872 358 853 l 358 678 b 446 610 358 622 389 610 l 449 610 b 600 658 550 610 549 658 b 644 618 631 658 639 640 l 681 440 b 653 372 692 392 682 379 b 449 511 579 357 569 511 l 446 511 b 358 443 389 511 358 500 l 358 164 b 476 100 358 119 378 100 l 563 101 b 728 261 647 101 678 160 b 794 314 751 308 771 319 "},"Ê":{"ha":876,"x_min":0,"x_max":0,"o":"m 261 1040 b 235 1064 243 1042 236 1050 b 311 1154 235 1079 260 1103 b 444 1242 372 1214 383 1242 b 572 1158 506 1242 510 1218 b 653 1064 622 1108 654 1081 b 626 1040 653 1050 644 1042 b 444 1110 582 1040 497 1075 b 261 1040 393 1075 306 1040 m 794 314 b 829 242 828 306 831 285 b 807 63 826 160 818 103 b 689 0 794 18 771 0 l 115 0 b 33 44 56 0 33 11 b 129 258 33 128 129 67 l 129 714 b 33 928 129 906 33 844 b 115 972 33 961 56 972 l 663 972 b 785 921 744 972 769 964 b 822 779 799 883 811 836 b 800 703 831 738 826 711 b 729 740 772 693 753 704 b 525 872 671 828 613 872 l 465 872 b 358 808 378 872 358 853 l 358 678 b 446 610 358 622 389 610 l 449 610 b 600 658 550 610 549 658 b 644 618 631 658 639 640 l 681 440 b 653 372 692 392 682 379 b 449 511 579 357 569 511 l 446 511 b 358 443 389 511 358 500 l 358 164 b 476 100 358 119 378 100 l 563 101 b 728 261 647 101 678 160 b 794 314 751 308 771 319 "},"Ë":{"ha":876,"x_min":0,"x_max":0,"o":"m 306 1057 b 229 1131 264 1057 229 1086 b 336 1242 229 1188 274 1242 b 419 1160 386 1242 419 1210 b 306 1057 419 1099 367 1057 m 549 1057 b 469 1131 504 1057 469 1086 b 576 1242 469 1188 517 1242 b 661 1160 626 1242 661 1210 b 549 1057 661 1099 608 1057 m 794 314 b 829 242 828 306 831 285 b 807 63 826 160 818 103 b 689 0 794 18 771 0 l 115 0 b 33 44 56 0 33 11 b 129 258 33 128 129 67 l 129 714 b 33 928 129 906 33 844 b 115 972 33 961 56 972 l 663 972 b 785 921 744 972 769 964 b 822 779 799 883 811 836 b 800 703 831 738 826 711 b 729 740 772 693 753 704 b 525 872 671 828 613 872 l 465 872 b 358 808 378 872 358 853 l 358 678 b 446 610 358 622 389 610 l 449 610 b 600 658 550 610 549 658 b 644 618 631 658 639 640 l 681 440 b 653 372 692 392 682 379 b 449 511 579 357 569 511 l 446 511 b 358 443 389 511 358 500 l 358 164 b 476 100 358 119 378 100 l 563 101 b 728 261 647 101 678 160 b 794 314 751 308 771 319 "},"Ė":{"ha":876,"x_min":0,"x_max":0,"o":"m 422 1049 b 328 1140 361 1049 326 1092 b 486 1288 328 1213 407 1289 b 586 1193 542 1288 586 1247 b 422 1049 585 1115 503 1049 m 794 314 b 829 242 828 306 831 285 b 807 63 826 160 818 103 b 689 0 794 18 771 0 l 115 0 b 33 44 56 0 33 11 b 129 258 33 128 129 67 l 129 714 b 33 928 129 906 33 844 b 115 972 33 961 56 972 l 663 972 b 785 921 744 972 769 964 b 822 779 799 883 811 836 b 800 703 831 738 826 711 b 729 740 772 693 753 704 b 525 872 671 828 613 872 l 465 872 b 358 808 378 872 358 853 l 358 678 b 446 610 358 622 389 610 l 449 610 b 600 658 550 610 549 658 b 644 618 631 658 639 640 l 681 440 b 653 372 692 392 682 379 b 449 511 579 357 569 511 l 446 511 b 358 443 389 511 358 500 l 358 164 b 476 100 358 119 378 100 l 563 101 b 728 261 647 101 678 160 b 794 314 751 308 771 319 "},"È":{"ha":876,"x_min":0,"x_max":0,"o":"m 438 1047 b 218 1185 354 1044 221 1097 b 289 1265 217 1228 253 1264 b 408 1197 325 1267 364 1236 b 506 1076 442 1168 506 1104 b 438 1047 506 1054 468 1047 m 794 314 b 829 242 828 306 831 285 b 807 63 826 160 818 103 b 689 0 794 18 771 0 l 115 0 b 33 44 56 0 33 11 b 129 258 33 128 129 67 l 129 714 b 33 928 129 906 33 844 b 115 972 33 961 56 972 l 663 972 b 785 921 744 972 769 964 b 822 779 799 883 811 836 b 800 703 831 738 826 711 b 729 740 772 693 753 704 b 525 872 671 828 613 872 l 465 872 b 358 808 378 872 358 853 l 358 678 b 446 610 358 622 389 610 l 449 610 b 600 658 550 610 549 658 b 644 618 631 658 639 640 l 681 440 b 653 372 692 392 682 379 b 449 511 579 357 569 511 l 446 511 b 358 443 389 511 358 500 l 358 164 b 476 100 358 119 378 100 l 563 101 b 728 261 647 101 678 160 b 794 314 751 308 771 319 "},"Ē":{"ha":876,"x_min":0,"x_max":0,"o":"m 232 1069 b 172 1115 175 1069 167 1076 b 247 1171 181 1164 186 1171 l 560 1171 b 626 1125 624 1171 633 1163 b 544 1069 621 1075 614 1069 m 794 314 b 829 242 828 306 831 285 b 807 63 826 160 818 103 b 689 0 794 18 771 0 l 115 0 b 33 44 56 0 33 11 b 129 258 33 128 129 67 l 129 714 b 33 928 129 906 33 844 b 115 972 33 961 56 972 l 663 972 b 785 921 744 972 769 964 b 822 779 799 883 811 836 b 800 703 831 738 826 711 b 729 740 772 693 753 704 b 525 872 671 828 613 872 l 465 872 b 358 808 378 872 358 853 l 358 678 b 446 610 358 622 389 610 l 449 610 b 600 658 550 610 549 658 b 644 618 631 658 639 640 l 681 440 b 653 372 692 392 682 379 b 449 511 579 357 569 511 l 446 511 b 358 443 389 511 358 500 l 358 164 b 476 100 358 119 378 100 l 563 101 b 728 261 647 101 678 160 b 794 314 751 308 771 319 "},"Ę":{"ha":876,"x_min":0,"x_max":0,"o":"m 807 63 b 718 1 796 24 776 6 b 667 -115 679 -47 667 -85 b 732 -182 667 -151 688 -182 b 781 -169 746 -182 763 -178 b 807 -211 818 -151 829 -186 b 679 -264 779 -242 732 -264 b 539 -143 594 -264 539 -214 b 635 0 539 -92 569 -40 l 115 0 b 33 44 56 0 33 11 b 129 258 33 128 129 67 l 129 714 b 33 928 129 906 33 844 b 115 972 33 961 56 972 l 663 972 b 785 921 744 972 769 964 b 822 779 799 883 811 836 b 800 703 831 738 826 711 b 729 740 772 693 753 704 b 525 872 671 828 613 872 l 465 872 b 358 808 378 872 358 853 l 358 678 b 446 610 358 622 389 610 l 449 610 b 600 658 550 610 549 658 b 644 618 631 658 639 640 l 681 440 b 653 372 692 392 682 379 b 449 511 579 357 569 511 l 446 511 b 358 443 389 511 358 500 l 358 164 b 476 100 358 119 378 100 l 563 101 b 728 261 647 101 678 160 b 794 314 751 308 771 319 b 829 242 828 306 831 285 b 807 63 826 160 818 103 "},"F":{"ha":840,"x_min":0,"x_max":0,"o":"m 825 779 b 803 703 833 738 829 711 b 732 740 775 693 756 704 b 528 872 674 828 615 872 l 465 872 b 358 814 378 872 358 853 l 358 665 b 446 597 358 610 389 597 l 467 597 b 618 646 569 597 567 646 b 663 606 649 646 657 626 l 700 428 b 671 360 710 379 700 367 b 467 499 597 343 589 499 l 446 499 b 358 431 389 499 358 488 l 358 247 b 451 44 358 78 451 119 b 369 0 451 11 432 0 l 115 0 b 33 44 56 0 33 11 b 129 247 33 119 129 78 l 129 714 b 33 928 129 906 33 844 b 115 972 33 961 56 972 l 665 972 b 789 921 747 972 772 964 b 825 779 801 883 815 836 "},"G":{"ha":1090,"x_min":0,"x_max":0,"o":"m 547 -14 b 56 468 258 -14 56 178 b 550 986 56 753 268 986 b 751 961 663 986 721 961 b 832 985 788 961 794 985 b 892 913 857 985 879 972 b 925 713 903 858 914 797 b 883 643 931 669 921 646 b 804 710 851 640 836 663 b 540 886 739 801 676 885 b 290 568 376 886 290 747 b 600 100 290 297 403 100 b 739 190 656 100 739 126 l 739 279 b 600 443 739 417 601 374 b 681 489 600 476 619 488 l 953 492 b 1024 447 1001 492 1024 481 b 969 282 1025 390 969 410 l 969 201 b 547 -14 969 99 794 -14 "},"Ğ":{"ha":1090,"x_min":0,"x_max":0,"o":"m 547 1047 b 339 1238 422 1047 339 1131 b 364 1283 339 1265 349 1283 b 396 1263 375 1283 383 1278 b 549 1188 439 1208 479 1188 b 699 1263 615 1188 656 1208 b 731 1283 713 1278 719 1283 b 756 1238 747 1283 756 1265 b 547 1047 756 1126 668 1047 m 547 -14 b 56 468 258 -14 56 178 b 550 986 56 753 268 986 b 751 961 663 986 721 961 b 832 985 788 961 794 985 b 892 913 857 985 879 972 b 925 713 903 858 914 797 b 883 643 931 669 921 646 b 804 710 851 640 836 663 b 540 886 739 801 676 885 b 290 568 376 886 290 747 b 600 100 290 297 403 100 b 739 190 656 100 739 126 l 739 279 b 600 443 739 417 601 374 b 681 489 600 476 619 488 l 953 492 b 1024 447 1001 492 1024 481 b 969 282 1025 390 969 410 l 969 201 b 547 -14 969 99 794 -14 "},"Ġ":{"ha":1090,"x_min":0,"x_max":0,"o":"m 528 1049 b 433 1140 467 1049 432 1092 b 592 1288 433 1213 513 1289 b 692 1193 647 1288 692 1247 b 528 1049 690 1115 608 1049 m 547 -14 b 56 468 258 -14 56 178 b 550 986 56 753 268 986 b 751 961 663 986 721 961 b 832 985 788 961 794 985 b 892 913 857 985 879 972 b 925 713 903 858 914 797 b 883 643 931 669 921 646 b 804 710 851 640 836 663 b 540 886 739 801 676 885 b 290 568 376 886 290 747 b 600 100 290 297 403 100 b 739 190 656 100 739 126 l 739 279 b 600 443 739 417 601 374 b 681 489 600 476 619 488 l 953 492 b 1024 447 1001 492 1024 481 b 969 282 1025 390 969 410 l 969 201 b 547 -14 969 99 794 -14 "},"H":{"ha":1129,"x_min":0,"x_max":0,"o":"m 1001 247 b 1093 44 1001 78 1093 119 b 1013 0 1093 11 1074 0 l 757 0 b 676 44 699 0 676 11 b 771 247 676 119 771 78 l 771 408 b 565 464 771 464 771 464 b 358 408 358 464 358 464 l 358 247 b 451 44 358 78 451 119 b 369 0 451 11 432 0 l 115 0 b 33 44 56 0 33 11 b 129 247 33 119 129 78 l 129 725 b 36 928 129 894 36 853 b 118 972 36 961 56 972 l 372 972 b 454 928 432 972 454 961 b 358 725 454 853 358 894 l 358 622 b 567 567 358 567 358 567 b 771 622 771 567 771 567 l 771 725 b 679 928 771 894 679 853 b 760 972 679 961 699 972 l 1015 972 b 1096 928 1074 972 1096 961 b 1001 725 1096 853 1001 894 "},"Ħ":{"ha":1129,"x_min":0,"x_max":0,"o":"m 1057 772 b 1096 732 1082 772 1096 757 l 1096 711 b 1057 671 1096 686 1082 671 l 1001 671 l 1001 247 b 1093 44 1001 78 1093 119 b 1013 0 1093 11 1074 0 l 757 0 b 676 44 699 0 676 11 b 771 247 676 119 771 78 l 771 408 b 565 464 771 464 771 464 b 358 408 358 464 358 464 l 358 247 b 451 44 358 78 451 119 b 369 0 451 11 432 0 l 115 0 b 33 44 56 0 33 11 b 129 247 33 119 129 78 l 129 671 l 96 671 b 57 711 71 671 57 686 l 57 732 b 96 772 57 757 71 772 l 126 772 b 36 928 111 888 36 861 b 118 972 36 961 56 972 l 372 972 b 454 928 432 972 454 961 b 361 772 454 861 378 888 l 768 772 b 679 928 753 888 679 861 b 760 972 679 961 699 972 l 1015 972 b 1096 928 1074 972 1096 961 b 1004 772 1096 861 1021 888 m 771 671 l 358 671 l 358 622 b 567 567 358 567 358 567 b 771 622 771 567 771 567 "},"I":{"ha":488,"x_min":0,"x_max":0,"o":"m 129 725 b 36 928 129 894 36 853 b 118 972 36 961 56 972 l 372 972 b 454 928 432 972 454 961 b 358 725 454 853 358 894 l 358 247 b 451 44 358 78 451 119 b 369 0 451 11 432 0 l 115 0 b 33 44 56 0 33 11 b 129 247 33 119 129 78 "},"Í":{"ha":488,"x_min":0,"x_max":0,"o":"m 243 1047 b 175 1076 213 1047 175 1054 b 272 1197 176 1104 240 1168 b 392 1265 318 1236 357 1267 b 463 1185 428 1264 464 1228 b 243 1047 461 1097 326 1044 m 129 725 b 36 928 129 894 36 853 b 118 972 36 961 56 972 l 372 972 b 454 928 432 972 454 961 b 358 725 454 853 358 894 l 358 247 b 451 44 358 78 451 119 b 369 0 451 11 432 0 l 115 0 b 33 44 56 0 33 11 b 129 247 33 119 129 78 "},"Î":{"ha":488,"x_min":0,"x_max":0,"o":"m 67 1040 b 40 1064 49 1042 42 1050 b 117 1154 40 1079 65 1103 b 250 1242 178 1214 189 1242 b 378 1158 311 1242 315 1218 b 458 1064 428 1108 460 1081 b 432 1040 458 1050 450 1042 b 250 1110 388 1040 303 1075 b 67 1040 199 1075 111 1040 m 129 725 b 36 928 129 894 36 853 b 118 972 36 961 56 972 l 372 972 b 454 928 432 972 454 961 b 358 725 454 853 358 894 l 358 247 b 451 44 358 78 451 119 b 369 0 451 11 432 0 l 115 0 b 33 44 56 0 33 11 b 129 247 33 119 129 78 "},"Ï":{"ha":488,"x_min":0,"x_max":0,"o":"m 154 1057 b 78 1131 113 1057 78 1086 b 185 1242 78 1188 122 1242 b 268 1160 235 1242 268 1210 b 154 1057 268 1099 215 1057 m 397 1057 b 318 1131 353 1057 318 1086 b 425 1242 318 1188 365 1242 b 510 1160 475 1242 510 1210 b 397 1057 510 1099 457 1057 m 129 725 b 36 928 129 894 36 853 b 118 972 36 961 56 972 l 372 972 b 454 928 432 972 454 961 b 358 725 454 853 358 894 l 358 247 b 451 44 358 78 451 119 b 369 0 451 11 432 0 l 115 0 b 33 44 56 0 33 11 b 129 247 33 119 129 78 "},"İ":{"ha":488,"x_min":0,"x_max":0,"o":"m 229 1049 b 135 1140 168 1049 133 1092 b 293 1288 135 1213 214 1289 b 393 1193 349 1288 393 1247 b 229 1049 392 1115 310 1049 m 129 725 b 36 928 129 894 36 853 b 118 972 36 961 56 972 l 372 972 b 454 928 432 972 454 961 b 358 725 454 853 358 894 l 358 247 b 451 44 358 78 451 119 b 369 0 451 11 432 0 l 115 0 b 33 44 56 0 33 11 b 129 247 33 119 129 78 "},"Ì":{"ha":488,"x_min":0,"x_max":0,"o":"m 286 1047 b 67 1185 203 1044 69 1097 b 138 1265 65 1228 101 1264 b 257 1197 174 1267 213 1236 b 354 1076 290 1168 354 1104 b 286 1047 354 1054 317 1047 m 129 725 b 36 928 129 894 36 853 b 118 972 36 961 56 972 l 372 972 b 454 928 432 972 454 961 b 358 725 454 853 358 894 l 358 247 b 451 44 358 78 451 119 b 369 0 451 11 432 0 l 115 0 b 33 44 56 0 33 11 b 129 247 33 119 129 78 "},"Ī":{"ha":488,"x_min":0,"x_max":0,"o":"m 81 1069 b 21 1115 24 1069 15 1076 b 96 1171 29 1164 35 1171 l 408 1171 b 475 1125 472 1171 482 1163 b 393 1069 469 1075 463 1069 m 129 725 b 36 928 129 894 36 853 b 118 972 36 961 56 972 l 372 972 b 454 928 432 972 454 961 b 358 725 454 853 358 894 l 358 247 b 451 44 358 78 451 119 b 369 0 451 11 432 0 l 115 0 b 33 44 56 0 33 11 b 129 247 33 119 129 78 "},"Į":{"ha":488,"x_min":0,"x_max":0,"o":"m 457 -169 b 483 -211 494 -151 506 -186 b 356 -264 456 -242 408 -264 b 215 -143 271 -264 215 -214 b 311 0 215 -92 246 -40 l 115 0 b 33 44 56 0 33 11 b 129 247 33 119 129 78 l 129 725 b 36 928 129 894 36 853 b 118 972 36 961 56 972 l 372 972 b 454 928 432 972 454 961 b 358 725 454 853 358 894 l 358 247 b 451 44 358 78 451 119 b 394 1 451 17 438 4 b 343 -115 356 -47 343 -85 b 408 -182 343 -151 364 -182 b 457 -169 422 -182 439 -178 "},"J":{"ha":743,"x_min":0,"x_max":0,"o":"m 397 725 b 304 928 397 894 304 853 b 386 972 304 961 324 972 l 642 972 b 722 928 700 972 722 961 b 628 725 722 853 628 894 l 629 418 b 290 -14 629 176 589 -14 b 10 225 104 -14 10 101 b 110 332 10 299 58 332 b 214 235 175 332 207 289 b 304 99 228 150 249 99 b 397 311 367 99 397 172 "},"K":{"ha":1061,"x_min":0,"x_max":0,"o":"m 711 713 l 942 213 b 1067 44 1000 88 1067 114 b 988 0 1067 11 1047 0 l 744 0 b 663 44 685 0 663 11 b 704 197 663 99 743 108 l 542 556 l 358 385 l 358 247 b 451 44 358 78 451 119 b 369 0 451 11 432 0 l 115 0 b 33 44 56 0 33 11 b 129 247 33 119 129 78 l 129 725 b 36 928 129 894 36 853 b 118 972 36 961 56 972 l 372 972 b 454 928 432 972 454 961 b 358 725 454 853 358 894 l 358 526 l 649 794 b 624 928 731 871 624 875 b 686 972 624 961 643 972 l 881 972 b 964 928 936 972 964 961 b 800 794 964 863 906 893 "},"L":{"ha":813,"x_min":0,"x_max":0,"o":"m 743 314 b 776 242 775 306 778 285 b 754 63 774 160 765 103 b 636 0 743 18 719 0 l 115 0 b 33 44 56 0 33 11 b 129 258 33 128 129 67 l 129 725 b 36 928 129 894 36 853 b 118 972 36 961 56 972 l 372 972 b 454 928 432 972 454 961 b 358 725 454 853 358 894 l 358 163 b 460 100 358 119 378 100 l 510 101 b 675 261 594 101 626 160 b 743 314 699 308 718 319 "},"Ĺ":{"ha":813,"x_min":0,"x_max":0,"o":"m 238 1047 b 169 1076 207 1047 169 1054 b 267 1197 171 1104 235 1168 b 386 1265 313 1236 351 1267 b 457 1185 422 1264 458 1228 b 238 1047 456 1097 321 1044 m 743 314 b 776 242 775 306 778 285 b 754 63 774 160 765 103 b 636 0 743 18 719 0 l 115 0 b 33 44 56 0 33 11 b 129 258 33 128 129 67 l 129 725 b 36 928 129 894 36 853 b 118 972 36 961 56 972 l 372 972 b 454 928 432 972 454 961 b 358 725 454 853 358 894 l 358 163 b 460 100 358 119 378 100 l 510 101 b 675 261 594 101 626 160 b 743 314 699 308 718 319 "},"Ľ":{"ha":813,"x_min":0,"x_max":0,"o":"m 558 644 b 532 678 540 644 529 656 b 553 903 538 743 549 882 b 628 985 561 960 589 985 b 703 903 675 985 703 950 b 558 644 703 824 610 644 m 743 314 b 776 242 775 306 778 285 b 754 63 774 160 765 103 b 636 0 743 18 719 0 l 115 0 b 33 44 56 0 33 11 b 129 258 33 128 129 67 l 129 725 b 36 928 129 894 36 853 b 118 972 36 961 56 972 l 372 972 b 454 928 432 972 454 961 b 358 725 454 853 358 894 l 358 163 b 460 100 358 119 378 100 l 510 101 b 675 261 594 101 626 160 b 743 314 699 308 718 319 "},"Ł":{"ha":813,"x_min":0,"x_max":0,"o":"m 743 314 b 776 242 775 306 778 285 b 754 63 774 160 765 103 b 636 0 743 18 719 0 l 115 0 b 33 44 56 0 33 11 b 129 258 33 128 129 67 l 129 367 l 89 343 b 32 365 68 331 49 335 b 40 428 13 397 17 415 l 129 479 l 129 725 b 36 928 129 894 36 853 b 118 972 36 961 56 972 l 372 972 b 454 928 432 972 454 961 b 358 725 454 853 358 894 l 358 613 l 403 639 b 463 614 425 650 444 646 b 453 553 479 588 481 569 l 358 499 l 358 163 b 460 100 358 119 378 100 l 510 101 b 675 261 594 101 626 160 b 743 314 699 308 718 319 "},"M":{"ha":1267,"x_min":0,"x_max":0,"o":"m 1135 219 b 1235 44 1140 88 1235 129 b 1154 0 1235 11 1215 0 l 910 0 b 829 44 851 0 829 11 b 910 219 829 122 911 94 l 901 694 l 625 100 b 568 56 613 74 600 63 b 510 82 536 49 518 61 l 254 686 l 239 178 b 308 40 236 90 308 90 b 244 1 308 8 288 1 l 107 1 b 39 42 56 1 39 11 b 122 178 39 88 118 90 l 151 779 b 68 928 156 879 68 863 b 140 972 68 961 89 972 l 326 972 b 388 933 356 972 375 960 l 628 378 l 888 932 b 949 972 901 960 919 972 l 1125 972 b 1199 928 1176 972 1199 961 b 1115 779 1199 863 1111 881 "},"N":{"ha":1068,"x_min":0,"x_max":0,"o":"m 971 971 b 1039 931 1021 971 1039 963 b 963 794 1039 885 963 882 l 963 65 b 904 0 963 17 946 0 b 844 47 863 0 844 22 b 799 140 844 83 831 107 l 242 693 l 243 178 b 319 40 243 90 319 90 b 254 1 319 8 299 1 l 118 1 b 50 42 67 1 50 11 b 125 178 50 88 125 90 l 125 714 b 31 928 125 906 31 844 b 111 972 31 961 53 972 l 247 972 b 326 933 282 972 301 957 l 844 415 l 844 794 b 768 932 844 882 768 882 b 833 971 768 964 789 971 "},"Ń":{"ha":1068,"x_min":0,"x_max":0,"o":"m 528 1047 b 460 1076 497 1047 460 1054 b 557 1197 461 1104 525 1168 b 676 1265 603 1236 642 1267 b 747 1185 713 1264 749 1228 b 528 1047 746 1097 611 1044 m 971 971 b 1039 931 1021 971 1039 963 b 963 794 1039 885 963 882 l 963 65 b 904 0 963 17 946 0 b 844 47 863 0 844 22 b 799 140 844 83 831 107 l 242 693 l 243 178 b 319 40 243 90 319 90 b 254 1 319 8 299 1 l 118 1 b 50 42 67 1 50 11 b 125 178 50 88 125 90 l 125 714 b 31 928 125 906 31 844 b 111 972 31 961 53 972 l 247 972 b 326 933 282 972 301 957 l 844 415 l 844 794 b 768 932 844 882 768 882 b 833 971 768 964 789 971 "},"Ň":{"ha":1068,"x_min":0,"x_max":0,"o":"m 403 1138 b 326 1228 351 1188 326 1213 b 353 1250 328 1242 335 1250 b 536 1182 397 1250 485 1217 b 718 1250 589 1217 674 1250 b 744 1228 736 1250 744 1242 b 664 1133 746 1211 714 1183 b 536 1050 601 1072 597 1050 b 403 1138 475 1050 464 1076 m 971 971 b 1039 931 1021 971 1039 963 b 963 794 1039 885 963 882 l 963 65 b 904 0 963 17 946 0 b 844 47 863 0 844 22 b 799 140 844 83 831 107 l 242 693 l 243 178 b 319 40 243 90 319 90 b 254 1 319 8 299 1 l 118 1 b 50 42 67 1 50 11 b 125 178 50 88 125 90 l 125 714 b 31 928 125 906 31 844 b 111 972 31 961 53 972 l 247 972 b 326 933 282 972 301 957 l 844 415 l 844 794 b 768 932 844 882 768 882 b 833 971 768 964 789 971 "},"Ñ":{"ha":1068,"x_min":0,"x_max":0,"o":"m 360 1060 b 304 1111 360 1024 304 1044 b 418 1215 304 1158 336 1215 b 657 1157 494 1215 613 1157 b 706 1199 683 1157 706 1164 b 763 1146 706 1233 763 1214 b 649 1043 763 1099 731 1043 b 410 1101 575 1043 493 1101 b 360 1060 383 1101 360 1093 m 971 971 b 1039 931 1021 971 1039 963 b 963 794 1039 885 963 882 l 963 65 b 904 0 963 17 946 0 b 844 47 863 0 844 22 b 799 140 844 83 831 107 l 242 693 l 243 178 b 319 40 243 90 319 90 b 254 1 319 8 299 1 l 118 1 b 50 42 67 1 50 11 b 125 178 50 88 125 90 l 125 714 b 31 928 125 906 31 844 b 111 972 31 961 53 972 l 247 972 b 326 933 282 972 301 957 l 844 415 l 844 794 b 768 932 844 882 768 882 b 833 971 768 964 789 971 "},"O":{"ha":1097,"x_min":0,"x_max":0,"o":"m 518 -14 b 56 450 258 -14 56 176 b 576 986 56 746 279 986 b 1038 510 856 986 1038 779 b 518 -14 1038 213 818 -14 m 596 110 b 815 392 754 110 815 233 b 504 875 815 618 696 875 b 281 588 351 875 281 744 b 596 110 281 364 399 110 "},"Ó":{"ha":1097,"x_min":0,"x_max":0,"o":"m 543 1047 b 475 1076 513 1047 475 1054 b 572 1197 476 1104 540 1168 b 692 1265 618 1236 657 1267 b 763 1185 728 1264 764 1228 b 543 1047 761 1097 626 1044 m 518 -14 b 56 450 258 -14 56 176 b 576 986 56 746 279 986 b 1038 510 856 986 1038 779 b 518 -14 1038 213 818 -14 m 596 110 b 815 392 754 110 815 233 b 504 875 815 618 696 875 b 281 588 351 875 281 744 b 596 110 281 364 399 110 "},"Ô":{"ha":1097,"x_min":0,"x_max":0,"o":"m 367 1040 b 340 1064 349 1042 342 1050 b 417 1154 340 1079 365 1103 b 550 1242 478 1214 489 1242 b 678 1158 611 1242 615 1218 b 758 1064 728 1108 760 1081 b 732 1040 758 1050 750 1042 b 550 1110 688 1040 603 1075 b 367 1040 499 1075 411 1040 m 518 -14 b 56 450 258 -14 56 176 b 576 986 56 746 279 986 b 1038 510 856 986 1038 779 b 518 -14 1038 213 818 -14 m 596 110 b 815 392 754 110 815 233 b 504 875 815 618 696 875 b 281 588 351 875 281 744 b 596 110 281 364 399 110 "},"Ö":{"ha":1097,"x_min":0,"x_max":0,"o":"m 454 1057 b 378 1131 413 1057 378 1086 b 485 1242 378 1188 422 1242 b 568 1160 535 1242 568 1210 b 454 1057 568 1099 515 1057 m 697 1057 b 618 1131 653 1057 618 1086 b 725 1242 618 1188 665 1242 b 810 1160 775 1242 810 1210 b 697 1057 810 1099 757 1057 m 518 -14 b 56 450 258 -14 56 176 b 576 986 56 746 279 986 b 1038 510 856 986 1038 779 b 518 -14 1038 213 818 -14 m 596 110 b 815 392 754 110 815 233 b 504 875 815 618 696 875 b 281 588 351 875 281 744 b 596 110 281 364 399 110 "},"Ò":{"ha":1097,"x_min":0,"x_max":0,"o":"m 586 1047 b 367 1185 503 1044 369 1097 b 438 1265 365 1228 401 1264 b 557 1197 474 1267 513 1236 b 654 1076 590 1168 654 1104 b 586 1047 654 1054 617 1047 m 518 -14 b 56 450 258 -14 56 176 b 576 986 56 746 279 986 b 1038 510 856 986 1038 779 b 518 -14 1038 213 818 -14 m 596 110 b 815 392 754 110 815 233 b 504 875 815 618 696 875 b 281 588 351 875 281 744 b 596 110 281 364 399 110 "},"Ő":{"ha":1097,"x_min":0,"x_max":0,"o":"m 367 1051 b 311 1076 335 1051 311 1060 b 410 1193 311 1103 378 1165 b 526 1263 454 1232 493 1263 b 601 1197 571 1263 601 1226 b 367 1051 601 1122 451 1051 m 643 1049 b 589 1076 611 1050 588 1060 b 692 1188 590 1103 658 1163 b 814 1251 739 1224 779 1253 b 883 1182 857 1249 885 1211 b 643 1049 879 1107 728 1044 m 518 -14 b 56 450 258 -14 56 176 b 576 986 56 746 279 986 b 1038 510 856 986 1038 779 b 518 -14 1038 213 818 -14 m 596 110 b 815 392 754 110 815 233 b 504 875 815 618 696 875 b 281 588 351 875 281 744 b 596 110 281 364 399 110 "},"Ō":{"ha":1097,"x_min":0,"x_max":0,"o":"m 381 1069 b 321 1115 324 1069 315 1076 b 396 1171 329 1164 335 1171 l 708 1171 b 775 1125 772 1171 782 1163 b 693 1069 769 1075 763 1069 m 518 -14 b 56 450 258 -14 56 176 b 576 986 56 746 279 986 b 1038 510 856 986 1038 779 b 518 -14 1038 213 818 -14 m 596 110 b 815 392 754 110 815 233 b 504 875 815 618 696 875 b 281 588 351 875 281 744 b 596 110 281 364 399 110 "},"Ø":{"ha":1097,"x_min":0,"x_max":0,"o":"m 850 903 b 1038 510 968 818 1038 676 b 518 -14 1038 213 818 -14 b 339 19 454 -14 394 -3 l 264 -111 b 200 -119 246 -143 228 -136 b 178 -61 169 -103 167 -82 l 251 65 b 56 450 132 146 56 282 b 576 986 56 746 279 986 b 763 951 644 986 707 974 l 844 1093 b 906 1104 858 1117 876 1122 b 931 1043 936 1086 949 1074 m 281 588 b 365 264 281 475 310 356 l 674 797 b 504 875 626 844 569 875 b 281 588 351 875 281 744 m 596 110 b 815 392 754 110 815 233 b 738 708 815 501 788 617 l 432 179 b 596 110 478 136 532 110 "},"Õ":{"ha":1097,"x_min":0,"x_max":0,"o":"m 664 1043 b 425 1101 590 1043 508 1101 b 375 1060 399 1101 375 1093 b 319 1111 375 1024 319 1044 b 433 1215 319 1158 351 1215 b 672 1157 510 1215 628 1157 b 721 1199 699 1157 721 1164 b 778 1146 721 1233 778 1214 b 664 1043 778 1099 746 1043 m 518 -14 b 56 450 258 -14 56 176 b 576 986 56 746 279 986 b 1038 510 856 986 1038 779 b 518 -14 1038 213 818 -14 m 596 110 b 815 392 754 110 815 233 b 504 875 815 618 696 875 b 281 588 351 875 281 744 b 596 110 281 364 399 110 "},"Œ":{"ha":1593,"x_min":0,"x_max":0,"o":"m 1518 271 b 1542 193 1546 261 1549 235 b 1504 51 1531 136 1518 89 b 1382 0 1488 8 1463 0 l 865 0 b 824 42 839 0 824 15 l 824 81 b 518 -14 739 21 635 -14 b 56 450 258 -14 56 176 b 576 986 56 746 279 986 b 824 921 671 986 754 963 l 824 931 b 865 972 824 957 839 972 l 1358 972 b 1481 921 1439 972 1464 964 b 1518 779 1494 883 1507 836 b 1494 703 1525 738 1522 711 b 1424 740 1468 693 1449 704 b 1219 872 1367 828 1308 872 l 1160 872 b 1043 828 1060 872 1043 856 l 1043 571 l 1200 569 b 1351 618 1303 569 1301 618 b 1396 578 1383 618 1392 599 l 1433 399 b 1406 332 1443 351 1435 339 b 1200 471 1332 315 1322 469 l 1043 471 l 1043 144 b 1160 100 1043 117 1060 100 l 1243 101 b 1447 232 1332 101 1390 146 b 1518 271 1472 268 1492 279 m 596 110 b 815 392 754 110 815 233 b 504 875 815 618 696 875 b 281 588 351 875 281 744 b 596 110 281 364 399 110 "},"P":{"ha":926,"x_min":0,"x_max":0,"o":"m 438 972 b 906 600 731 972 906 826 b 478 289 906 389 756 289 l 386 289 b 358 261 367 289 358 286 l 358 247 b 451 44 358 78 451 119 b 369 0 451 11 432 0 l 115 0 b 33 44 56 0 33 11 b 129 247 33 119 129 78 l 129 714 b 33 928 129 906 33 844 b 115 972 33 961 56 972 m 465 385 b 675 581 599 385 675 460 b 435 879 675 776 554 879 b 358 842 364 879 358 871 l 358 432 b 465 385 358 397 386 385 "},"Þ":{"ha":878,"x_min":0,"x_max":0,"o":"m 438 817 b 858 510 726 817 858 689 b 454 233 858 308 710 233 l 386 233 b 360 218 371 233 363 232 b 451 46 369 85 451 117 b 369 1 451 13 432 1 l 115 1 b 33 46 56 1 33 13 b 129 249 33 121 129 79 l 129 804 b 60 938 129 888 60 892 b 128 972 60 963 83 972 l 363 972 b 428 939 404 972 428 965 b 358 817 428 889 358 889 m 440 329 b 617 503 546 329 617 390 b 390 724 617 626 535 724 b 358 686 368 724 358 715 l 358 368 b 440 329 358 332 378 329 "},"Q":{"ha":1097,"x_min":0,"x_max":0,"o":"m 1007 -31 b 1040 -93 1024 -31 1040 -49 b 818 -253 1040 -171 978 -253 b 415 -132 700 -253 549 -187 b 168 -49 294 -83 211 -49 b 108 -68 129 -49 124 -68 b 78 -22 89 -68 78 -44 b 183 61 78 10 100 61 b 271 51 208 61 239 58 b 56 450 140 131 56 272 b 576 986 56 746 279 986 b 1038 510 856 986 1038 779 b 546 -14 1038 222 832 0 b 896 -71 664 -42 789 -71 b 1007 -31 974 -71 976 -31 m 504 875 b 281 588 351 875 281 744 b 596 110 281 364 399 110 b 815 392 754 110 815 233 b 504 875 815 618 696 875 "},"R":{"ha":983,"x_min":0,"x_max":0,"o":"m 839 190 b 957 44 896 92 957 113 b 878 0 957 11 938 0 l 646 0 b 579 44 601 0 579 11 b 606 197 579 99 651 113 l 536 321 b 443 375 517 357 494 367 b 358 343 397 381 358 383 l 358 247 b 451 44 358 78 451 119 b 369 0 451 11 432 0 l 115 0 b 33 44 56 0 33 11 b 129 247 33 119 129 78 l 129 714 b 33 928 129 906 33 844 b 115 972 33 961 56 972 l 442 972 b 885 657 736 972 885 824 b 721 392 885 535 831 439 m 463 464 b 653 638 601 444 653 543 b 433 879 653 774 560 879 b 358 842 368 879 358 871 l 358 525 b 463 464 358 485 406 471 "},"Ŕ":{"ha":983,"x_min":0,"x_max":0,"o":"m 324 1047 b 256 1076 293 1047 256 1054 b 353 1197 257 1104 321 1168 b 472 1265 399 1236 438 1267 b 543 1185 508 1264 544 1228 b 324 1047 542 1097 407 1044 m 839 190 b 957 44 896 92 957 113 b 878 0 957 11 938 0 l 646 0 b 579 44 601 0 579 11 b 606 197 579 99 651 113 l 536 321 b 443 375 517 357 494 367 b 358 343 397 381 358 383 l 358 247 b 451 44 358 78 451 119 b 369 0 451 11 432 0 l 115 0 b 33 44 56 0 33 11 b 129 247 33 119 129 78 l 129 714 b 33 928 129 906 33 844 b 115 972 33 961 56 972 l 442 972 b 885 657 736 972 885 824 b 721 392 885 535 831 439 m 463 464 b 653 638 601 444 653 543 b 433 879 653 774 560 879 b 358 842 368 879 358 871 l 358 525 b 463 464 358 485 406 471 "},"Ř":{"ha":983,"x_min":0,"x_max":0,"o":"m 315 1138 b 239 1228 264 1188 239 1213 b 265 1250 240 1242 247 1250 b 449 1182 310 1250 397 1217 b 631 1250 501 1217 586 1250 b 657 1228 649 1250 657 1242 b 576 1133 658 1211 626 1183 b 449 1050 514 1072 510 1050 b 315 1138 388 1050 376 1076 m 839 190 b 957 44 896 92 957 113 b 878 0 957 11 938 0 l 646 0 b 579 44 601 0 579 11 b 606 197 579 99 651 113 l 536 321 b 443 375 517 357 494 367 b 358 343 397 381 358 383 l 358 247 b 451 44 358 78 451 119 b 369 0 451 11 432 0 l 115 0 b 33 44 56 0 33 11 b 129 247 33 119 129 78 l 129 714 b 33 928 129 906 33 844 b 115 972 33 961 56 972 l 442 972 b 885 657 736 972 885 824 b 721 392 885 535 831 439 m 463 464 b 653 638 601 444 653 543 b 433 879 653 774 560 879 b 358 842 368 879 358 871 l 358 525 b 463 464 358 485 406 471 "},"S":{"ha":879,"x_min":0,"x_max":0,"o":"m 439 -12 b 233 17 336 -12 268 17 b 153 -14 188 17 183 -14 b 99 61 128 -14 108 1 b 74 268 86 139 76 206 b 108 336 72 311 81 336 b 175 272 136 336 146 318 b 456 90 215 201 300 90 b 578 199 542 90 576 144 b 353 399 578 285 467 339 b 86 696 194 481 86 535 b 443 985 86 858 242 985 b 604 964 514 985 575 964 b 678 985 640 964 647 985 b 735 913 703 985 722 972 b 758 740 746 858 756 799 b 718 671 761 697 750 671 b 647 736 694 671 678 692 b 428 888 600 803 528 888 b 307 781 350 888 307 843 b 526 578 307 701 376 656 b 813 286 692 493 813 438 b 439 -12 814 96 629 -12 "},"":{"ha":879,"x_min":0,"x_max":0,"o":"m 439 -12 b 813 286 629 -12 814 96 b 526 578 813 438 692 493 b 307 781 376 656 307 701 b 428 888 307 843 350 888 b 647 736 528 888 600 803 b 718 671 678 692 694 671 b 758 740 750 671 761 697 b 735 913 756 799 746 858 b 678 985 722 972 703 985 b 604 964 647 985 640 964 b 443 985 575 964 514 985 b 86 696 242 985 86 858 b 353 399 86 535 194 481 b 578 199 467 339 578 285 b 456 90 576 144 542 90 b 175 272 300 90 215 201 b 108 336 146 318 136 336 b 74 268 81 336 72 311 b 99 61 76 206 86 139 b 153 -14 108 1 128 -14 b 233 17 183 -14 188 17 b 439 -12 268 17 336 -12 "},"Ś":{"ha":879,"x_min":0,"x_max":0,"o":"m 396 1049 b 328 1078 365 1049 328 1056 b 425 1199 329 1106 393 1169 b 544 1267 471 1238 510 1268 b 615 1186 581 1265 617 1229 b 396 1049 614 1099 479 1046 m 439 -12 b 233 17 336 -12 268 17 b 153 -14 188 17 183 -14 b 99 61 128 -14 108 1 b 74 268 86 139 76 206 b 108 336 72 311 81 336 b 175 272 136 336 146 318 b 456 90 215 201 300 90 b 578 199 542 90 576 144 b 353 399 578 285 467 339 b 86 696 194 481 86 535 b 443 985 86 858 242 985 b 604 964 514 985 575 964 b 678 985 640 964 647 985 b 735 913 703 985 722 972 b 758 740 746 858 756 799 b 718 671 761 697 750 671 b 647 736 694 671 678 692 b 428 888 600 803 528 888 b 307 781 350 888 307 843 b 526 578 307 701 376 656 b 813 286 692 493 813 438 b 439 -12 814 96 629 -12 "},"Š":{"ha":879,"x_min":0,"x_max":0,"o":"m 222 1251 b 406 1183 267 1251 354 1218 b 588 1251 458 1218 543 1251 b 614 1229 606 1251 614 1243 b 533 1135 615 1213 583 1185 b 406 1051 471 1074 467 1051 b 272 1139 344 1051 333 1078 b 196 1229 221 1189 196 1214 b 222 1251 197 1243 204 1251 m 439 -12 b 233 17 336 -12 268 17 b 153 -14 188 17 183 -14 b 99 61 128 -14 108 1 b 74 268 86 139 76 206 b 108 336 72 311 81 336 b 175 272 136 336 146 318 b 456 90 215 201 300 90 b 578 199 542 90 576 144 b 353 399 578 285 467 339 b 86 696 194 481 86 535 b 443 985 86 858 242 985 b 604 964 514 985 575 964 b 678 985 640 964 647 985 b 735 913 703 985 722 972 b 758 740 746 858 756 799 b 718 671 761 697 750 671 b 647 736 694 671 678 692 b 428 888 600 803 528 888 b 307 781 350 888 307 843 b 526 578 307 701 376 656 b 813 286 692 493 813 438 b 439 -12 814 96 629 -12 "},"Ş":{"ha":879,"x_min":0,"x_max":0,"o":"m 813 286 b 447 -12 814 99 635 -10 l 417 -69 b 547 -181 488 -81 547 -111 b 407 -300 547 -251 486 -300 b 286 -251 347 -300 306 -276 b 321 -221 268 -229 289 -201 b 375 -237 336 -231 354 -237 b 432 -187 413 -237 432 -214 b 343 -121 432 -142 381 -129 b 326 -93 329 -118 318 -108 l 372 -8 b 233 17 306 0 260 17 b 153 -14 188 17 183 -14 b 99 61 128 -14 108 1 b 74 268 86 139 76 206 b 108 336 72 311 81 336 b 175 272 136 336 146 318 b 456 90 215 201 300 90 b 578 199 542 90 576 144 b 353 399 578 285 467 339 b 86 696 194 481 86 535 b 443 985 86 858 242 985 b 604 964 514 985 575 964 b 678 985 640 964 647 985 b 735 913 703 985 722 972 b 758 740 746 858 756 799 b 718 671 761 697 750 671 b 647 736 694 671 678 692 b 428 888 600 803 528 888 b 307 781 350 888 307 843 b 526 578 307 701 376 656 b 813 286 692 493 813 438 "},"ẞ":{"ha":1760,"x_min":0,"x_max":0,"o":"m 439 -12 b 233 17 336 -12 268 17 b 153 -14 188 17 183 -14 b 99 61 128 -14 108 1 b 74 268 86 139 76 206 b 108 336 72 311 81 336 b 175 272 136 336 146 318 b 456 90 215 201 300 90 b 578 199 542 90 576 144 b 353 399 578 285 467 339 b 86 696 194 481 86 535 b 443 985 86 858 242 985 b 604 964 514 985 575 964 b 678 985 640 964 647 985 b 735 913 703 985 722 972 b 758 740 746 858 756 799 b 718 671 761 697 750 671 b 647 736 694 671 678 692 b 428 888 600 803 528 888 b 307 781 350 888 307 843 b 526 578 307 701 376 656 b 813 286 692 493 813 438 b 439 -12 814 96 629 -12 m 1318 -12 b 1113 17 1215 -12 1147 17 b 1032 -14 1067 17 1063 -14 b 978 61 1007 -14 988 1 b 953 268 965 139 956 206 b 988 336 951 311 960 336 b 1054 272 1015 336 1025 318 b 1335 90 1094 201 1179 90 b 1457 199 1421 90 1456 144 b 1232 399 1457 285 1346 339 b 965 696 1074 481 965 535 b 1322 985 965 858 1121 985 b 1483 964 1393 985 1454 964 b 1557 985 1519 964 1526 985 b 1614 913 1582 985 1601 972 b 1638 740 1625 858 1635 799 b 1597 671 1640 697 1629 671 b 1526 736 1574 671 1557 692 b 1307 888 1479 803 1407 888 b 1186 781 1229 888 1186 843 b 1406 578 1186 701 1256 656 b 1692 286 1571 493 1692 438 b 1318 -12 1693 96 1508 -12 "},"T":{"ha":908,"x_min":0,"x_max":0,"o":"m 569 247 b 663 44 569 78 663 119 b 581 0 663 11 643 0 l 326 0 b 244 44 267 0 244 11 b 340 247 244 119 340 78 l 340 807 b 283 864 340 844 322 864 b 119 713 200 864 171 813 b 67 663 104 681 89 663 b 29 731 36 663 28 688 b 51 910 32 813 40 869 b 169 972 64 954 88 972 l 739 972 b 857 910 822 972 846 954 b 879 731 868 869 876 813 b 842 663 881 689 872 663 b 789 713 819 663 806 681 b 625 865 739 813 708 865 b 569 807 589 865 569 844 "},"Ŧ":{"ha":908,"x_min":0,"x_max":0,"o":"m 879 731 b 842 663 881 689 872 663 b 789 713 819 663 806 681 b 625 865 739 813 708 865 b 569 807 589 865 569 844 l 569 536 l 644 536 b 685 496 671 536 685 521 b 644 435 685 451 679 435 l 569 435 l 569 247 b 663 44 569 78 663 119 b 581 0 663 11 643 0 l 326 0 b 244 44 267 0 244 11 b 340 247 244 119 340 78 l 340 435 l 292 435 b 251 496 254 435 251 456 b 292 536 251 521 265 536 l 340 536 l 340 807 b 283 864 340 844 322 864 b 119 713 200 864 171 813 b 67 663 104 681 89 663 b 29 731 36 663 28 688 b 51 910 32 813 40 869 b 169 972 64 954 88 972 l 739 972 b 857 910 822 972 846 954 b 879 731 868 869 876 813 "},"Ť":{"ha":908,"x_min":0,"x_max":0,"o":"m 289 1250 b 472 1182 333 1250 421 1217 b 654 1250 525 1217 610 1250 b 681 1228 672 1250 681 1242 b 600 1133 682 1211 650 1183 b 472 1050 538 1072 533 1050 b 339 1138 411 1050 400 1076 b 263 1228 288 1188 263 1213 b 289 1250 264 1242 271 1250 m 569 247 b 663 44 569 78 663 119 b 581 0 663 11 643 0 l 326 0 b 244 44 267 0 244 11 b 340 247 244 119 340 78 l 340 807 b 283 864 340 844 322 864 b 119 713 200 864 171 813 b 67 663 104 681 89 663 b 29 731 36 663 28 688 b 51 910 32 813 40 869 b 169 972 64 954 88 972 l 739 972 b 857 910 822 972 846 954 b 879 731 868 869 876 813 b 842 663 881 689 872 663 b 789 713 819 663 806 681 b 625 865 739 813 708 865 b 569 807 589 865 569 844 "},"U":{"ha":1029,"x_min":0,"x_max":0,"o":"m 519 -14 b 119 444 250 -14 119 129 l 119 724 b 28 928 119 894 28 853 b 108 972 28 960 47 972 l 364 972 b 444 928 422 972 444 960 b 350 724 444 853 350 894 l 350 400 b 575 114 350 214 431 114 b 801 417 718 114 801 224 l 801 794 b 725 932 801 882 725 882 b 790 971 725 964 746 971 l 928 971 b 996 931 979 971 996 963 b 919 794 996 885 919 882 l 918 456 b 519 -14 917 115 786 -14 "},"Ú":{"ha":1029,"x_min":0,"x_max":0,"o":"m 557 1047 b 489 1076 526 1047 489 1054 b 586 1197 490 1104 554 1168 b 706 1265 632 1236 671 1267 b 776 1185 742 1264 778 1228 b 557 1047 775 1097 640 1044 m 519 -14 b 119 444 250 -14 119 129 l 119 724 b 28 928 119 894 28 853 b 108 972 28 960 47 972 l 364 972 b 444 928 422 972 444 960 b 350 724 444 853 350 894 l 350 400 b 575 114 350 214 431 114 b 801 417 718 114 801 224 l 801 794 b 725 932 801 882 725 882 b 790 971 725 964 746 971 l 928 971 b 996 931 979 971 996 963 b 919 794 996 885 919 882 l 918 456 b 519 -14 917 115 786 -14 "},"Û":{"ha":1029,"x_min":0,"x_max":0,"o":"m 382 1040 b 356 1064 364 1042 357 1050 b 432 1154 356 1079 381 1103 b 565 1242 493 1214 504 1242 b 693 1158 626 1242 631 1218 b 774 1064 743 1108 775 1081 b 747 1040 774 1050 765 1042 b 565 1110 703 1040 618 1075 b 382 1040 514 1075 426 1040 m 519 -14 b 119 444 250 -14 119 129 l 119 724 b 28 928 119 894 28 853 b 108 972 28 960 47 972 l 364 972 b 444 928 422 972 444 960 b 350 724 444 853 350 894 l 350 400 b 575 114 350 214 431 114 b 801 417 718 114 801 224 l 801 794 b 725 932 801 882 725 882 b 790 971 725 964 746 971 l 928 971 b 996 931 979 971 996 963 b 919 794 996 885 919 882 l 918 456 b 519 -14 917 115 786 -14 "},"Ü":{"ha":1029,"x_min":0,"x_max":0,"o":"m 468 1057 b 392 1131 426 1057 392 1086 b 499 1242 392 1188 436 1242 b 582 1160 549 1242 582 1210 b 468 1057 582 1099 529 1057 m 711 1057 b 632 1131 667 1057 632 1086 b 739 1242 632 1188 679 1242 b 824 1160 789 1242 824 1210 b 711 1057 824 1099 771 1057 m 519 -14 b 119 444 250 -14 119 129 l 119 724 b 28 928 119 894 28 853 b 108 972 28 960 47 972 l 364 972 b 444 928 422 972 444 960 b 350 724 444 853 350 894 l 350 400 b 575 114 350 214 431 114 b 801 417 718 114 801 224 l 801 794 b 725 932 801 882 725 882 b 790 971 725 964 746 971 l 928 971 b 996 931 979 971 996 963 b 919 794 996 885 919 882 l 918 456 b 519 -14 917 115 786 -14 "},"Ù":{"ha":1029,"x_min":0,"x_max":0,"o":"m 600 1047 b 381 1185 517 1044 383 1097 b 451 1265 379 1228 415 1264 b 571 1197 488 1267 526 1236 b 668 1076 604 1168 668 1104 b 600 1047 668 1054 631 1047 m 519 -14 b 119 444 250 -14 119 129 l 119 724 b 28 928 119 894 28 853 b 108 972 28 960 47 972 l 364 972 b 444 928 422 972 444 960 b 350 724 444 853 350 894 l 350 400 b 575 114 350 214 431 114 b 801 417 718 114 801 224 l 801 794 b 725 932 801 882 725 882 b 790 971 725 964 746 971 l 928 971 b 996 931 979 971 996 963 b 919 794 996 885 919 882 l 918 456 b 519 -14 917 115 786 -14 "},"Ű":{"ha":1029,"x_min":0,"x_max":0,"o":"m 381 1051 b 325 1076 349 1051 325 1060 b 424 1193 325 1103 392 1165 b 540 1263 468 1232 507 1263 b 615 1197 585 1263 615 1226 b 381 1051 615 1122 465 1051 m 657 1049 b 603 1076 625 1050 601 1060 b 706 1188 604 1103 672 1163 b 828 1251 753 1224 793 1253 b 897 1182 871 1249 899 1211 b 657 1049 893 1107 742 1044 m 519 -14 b 119 444 250 -14 119 129 l 119 724 b 28 928 119 894 28 853 b 108 972 28 960 47 972 l 364 972 b 444 928 422 972 444 960 b 350 724 444 853 350 894 l 350 400 b 575 114 350 214 431 114 b 801 417 718 114 801 224 l 801 794 b 725 932 801 882 725 882 b 790 971 725 964 746 971 l 928 971 b 996 931 979 971 996 963 b 919 794 996 885 919 882 l 918 456 b 519 -14 917 115 786 -14 "},"Ū":{"ha":1029,"x_min":0,"x_max":0,"o":"m 394 1069 b 335 1115 338 1069 329 1076 b 410 1171 343 1164 349 1171 l 722 1171 b 789 1125 786 1171 796 1163 b 707 1069 783 1075 776 1069 m 519 -14 b 119 444 250 -14 119 129 l 119 724 b 28 928 119 894 28 853 b 108 972 28 960 47 972 l 364 972 b 444 928 422 972 444 960 b 350 724 444 853 350 894 l 350 400 b 575 114 350 214 431 114 b 801 417 718 114 801 224 l 801 794 b 725 932 801 882 725 882 b 790 971 725 964 746 971 l 928 971 b 996 931 979 971 996 963 b 919 794 996 885 919 882 l 918 456 b 519 -14 917 115 786 -14 "},"Ų":{"ha":1029,"x_min":0,"x_max":0,"o":"m 928 971 b 996 931 979 971 996 963 b 919 794 996 885 919 882 l 918 456 b 674 6 917 189 836 51 b 618 -115 632 -44 618 -83 b 683 -182 618 -151 639 -182 b 732 -169 697 -182 714 -178 b 758 -211 769 -151 781 -186 b 631 -264 731 -242 683 -264 b 490 -143 546 -264 490 -214 b 568 -12 490 -97 515 -50 b 519 -14 553 -14 536 -14 b 119 444 250 -14 119 129 l 119 724 b 28 928 119 894 28 853 b 108 972 28 960 47 972 l 364 972 b 444 928 422 972 444 960 b 350 724 444 853 350 894 l 350 400 b 575 114 350 214 431 114 b 801 417 718 114 801 224 l 801 794 b 725 932 801 882 725 882 b 790 971 725 964 746 971 "},"Ů":{"ha":1029,"x_min":0,"x_max":0,"o":"m 563 1024 b 410 1169 475 1024 410 1082 b 568 1319 410 1260 479 1319 b 721 1174 654 1319 721 1263 b 563 1024 721 1082 650 1024 m 568 1110 b 625 1176 607 1110 628 1139 b 563 1238 621 1213 597 1238 b 504 1172 524 1238 501 1211 b 568 1110 508 1135 533 1110 m 519 -14 b 119 444 250 -14 119 129 l 119 724 b 28 928 119 894 28 853 b 108 972 28 960 47 972 l 364 972 b 444 928 422 972 444 960 b 350 724 444 853 350 894 l 350 400 b 575 114 350 214 431 114 b 801 417 718 114 801 224 l 801 794 b 725 932 801 882 725 882 b 790 971 725 964 746 971 l 928 971 b 996 931 979 971 996 963 b 919 794 996 885 919 882 l 918 456 b 519 -14 917 115 786 -14 "},"V":{"ha":1013,"x_min":0,"x_max":0,"o":"m 933 971 b 1013 931 982 971 1013 963 b 894 788 1013 876 932 886 l 607 51 b 524 -1 596 21 586 6 b 421 28 450 -11 435 -7 l 121 781 b 18 928 75 896 18 871 b 96 972 18 961 38 972 l 350 972 b 421 928 399 972 421 961 b 369 781 421 869 326 890 l 574 261 l 771 788 b 733 931 811 894 733 876 b 803 971 733 964 764 971 "},"W":{"ha":1496,"x_min":0,"x_max":0,"o":"m 1417 972 b 1496 932 1465 972 1496 964 b 1381 788 1496 878 1415 888 l 1128 49 b 1040 -3 1121 28 1106 7 b 935 24 967 -15 944 -7 l 751 568 l 576 47 b 489 -3 569 26 554 7 b 388 24 421 -12 399 -7 l 121 785 b 18 931 85 889 18 876 b 83 972 18 965 43 972 l 336 972 b 404 931 379 972 404 963 b 365 783 404 876 332 885 l 536 261 l 700 722 l 682 783 b 582 931 649 889 582 876 b 647 972 582 965 606 972 l 900 972 b 968 931 943 972 968 963 b 926 783 968 876 896 885 l 1085 269 l 1257 788 b 1217 932 1293 896 1217 878 b 1286 972 1217 965 1247 972 "},"Ẃ":{"ha":1496,"x_min":0,"x_max":0,"o":"m 758 1047 b 690 1076 728 1047 690 1054 b 788 1197 692 1104 756 1168 b 907 1265 833 1236 872 1267 b 978 1185 943 1264 979 1228 b 758 1047 976 1097 842 1044 m 1417 972 b 1496 932 1465 972 1496 964 b 1381 788 1496 878 1415 888 l 1128 49 b 1040 -3 1121 28 1106 7 b 935 24 967 -15 944 -7 l 751 568 l 576 47 b 489 -3 569 26 554 7 b 388 24 421 -12 399 -7 l 121 785 b 18 931 85 889 18 876 b 83 972 18 965 43 972 l 336 972 b 404 931 379 972 404 963 b 365 783 404 876 332 885 l 536 261 l 700 722 l 682 783 b 582 931 649 889 582 876 b 647 972 582 965 606 972 l 900 972 b 968 931 943 972 968 963 b 926 783 968 876 896 885 l 1085 269 l 1257 788 b 1217 932 1293 896 1217 878 b 1286 972 1217 965 1247 972 "},"Ŵ":{"ha":1496,"x_min":0,"x_max":0,"o":"m 582 1040 b 556 1064 564 1042 557 1050 b 632 1154 556 1079 581 1103 b 765 1242 693 1214 704 1242 b 893 1158 826 1242 831 1218 b 974 1064 943 1108 975 1081 b 947 1040 974 1050 965 1042 b 765 1110 903 1040 818 1075 b 582 1040 714 1075 626 1040 m 1417 972 b 1496 932 1465 972 1496 964 b 1381 788 1496 878 1415 888 l 1128 49 b 1040 -3 1121 28 1106 7 b 935 24 967 -15 944 -7 l 751 568 l 576 47 b 489 -3 569 26 554 7 b 388 24 421 -12 399 -7 l 121 785 b 18 931 85 889 18 876 b 83 972 18 965 43 972 l 336 972 b 404 931 379 972 404 963 b 365 783 404 876 332 885 l 536 261 l 700 722 l 682 783 b 582 931 649 889 582 876 b 647 972 582 965 606 972 l 900 972 b 968 931 943 972 968 963 b 926 783 968 876 896 885 l 1085 269 l 1257 788 b 1217 932 1293 896 1217 878 b 1286 972 1217 965 1247 972 "},"Ẅ":{"ha":1496,"x_min":0,"x_max":0,"o":"m 669 1057 b 593 1131 628 1057 593 1086 b 700 1242 593 1188 638 1242 b 783 1160 750 1242 783 1210 b 669 1057 783 1099 731 1057 m 913 1057 b 833 1131 868 1057 833 1086 b 940 1242 833 1188 881 1242 b 1025 1160 990 1242 1025 1210 b 913 1057 1025 1099 972 1057 m 1417 972 b 1496 932 1465 972 1496 964 b 1381 788 1496 878 1415 888 l 1128 49 b 1040 -3 1121 28 1106 7 b 935 24 967 -15 944 -7 l 751 568 l 576 47 b 489 -3 569 26 554 7 b 388 24 421 -12 399 -7 l 121 785 b 18 931 85 889 18 876 b 83 972 18 965 43 972 l 336 972 b 404 931 379 972 404 963 b 365 783 404 876 332 885 l 536 261 l 700 722 l 682 783 b 582 931 649 889 582 876 b 647 972 582 965 606 972 l 900 972 b 968 931 943 972 968 963 b 926 783 968 876 896 885 l 1085 269 l 1257 788 b 1217 932 1293 896 1217 878 b 1286 972 1217 965 1247 972 "},"Ẁ":{"ha":1496,"x_min":0,"x_max":0,"o":"m 801 1047 b 582 1185 718 1044 585 1097 b 653 1265 581 1228 617 1264 b 772 1197 689 1267 728 1236 b 869 1076 806 1168 869 1104 b 801 1047 869 1054 832 1047 m 1417 972 b 1496 932 1465 972 1496 964 b 1381 788 1496 878 1415 888 l 1128 49 b 1040 -3 1121 28 1106 7 b 935 24 967 -15 944 -7 l 751 568 l 576 47 b 489 -3 569 26 554 7 b 388 24 421 -12 399 -7 l 121 785 b 18 931 85 889 18 876 b 83 972 18 965 43 972 l 336 972 b 404 931 379 972 404 963 b 365 783 404 876 332 885 l 536 261 l 700 722 l 682 783 b 582 931 649 889 582 876 b 647 972 582 965 606 972 l 900 972 b 968 931 943 972 968 963 b 926 783 968 876 896 885 l 1085 269 l 1257 788 b 1217 932 1293 896 1217 878 b 1286 972 1217 965 1247 972 "},"X":{"ha":1064,"x_min":0,"x_max":0,"o":"m 644 525 l 904 174 b 1038 40 976 76 1038 96 b 968 0 1038 7 1010 0 l 678 0 b 610 42 635 0 610 10 b 621 174 610 96 692 79 l 464 386 l 314 175 b 322 40 242 75 322 94 b 253 0 322 7 292 0 l 106 0 b 25 40 57 0 25 8 b 179 175 25 94 113 82 l 397 478 l 161 799 b 28 932 89 896 28 876 b 96 972 28 965 56 972 l 388 972 b 454 931 431 972 454 963 b 443 799 454 876 374 893 l 578 617 l 707 797 b 699 932 779 897 699 878 b 768 972 699 965 729 972 l 917 972 b 996 932 965 972 996 964 b 840 797 996 878 908 890 "},"Y":{"ha":999,"x_min":0,"x_max":0,"o":"m 908 971 b 988 931 957 971 988 963 b 840 792 988 876 901 889 l 617 432 l 617 247 b 708 44 617 78 708 119 b 628 0 708 11 689 0 l 372 0 b 290 44 313 0 290 11 b 386 247 290 119 386 78 l 386 431 l 140 796 b 11 932 72 897 11 876 b 79 972 11 965 39 972 l 369 972 b 438 931 413 972 438 963 b 421 794 438 876 357 893 l 574 556 l 710 789 b 692 931 772 896 692 876 b 760 971 692 964 722 971 "},"Ý":{"ha":999,"x_min":0,"x_max":0,"o":"m 565 1047 b 497 1076 535 1047 497 1054 b 594 1197 499 1104 563 1168 b 714 1265 640 1236 679 1267 b 785 1185 750 1264 786 1228 b 565 1047 783 1097 649 1044 m 908 971 b 988 931 957 971 988 963 b 840 792 988 876 901 889 l 617 432 l 617 247 b 708 44 617 78 708 119 b 628 0 708 11 689 0 l 372 0 b 290 44 313 0 290 11 b 386 247 290 119 386 78 l 386 431 l 140 796 b 11 932 72 897 11 876 b 79 972 11 965 39 972 l 369 972 b 438 931 413 972 438 963 b 421 794 438 876 357 893 l 574 556 l 710 789 b 692 931 772 896 692 876 b 760 971 692 964 722 971 "},"Ŷ":{"ha":999,"x_min":0,"x_max":0,"o":"m 389 1040 b 363 1064 371 1042 364 1050 b 439 1154 363 1079 388 1103 b 572 1242 500 1214 511 1242 b 700 1158 633 1242 638 1218 b 781 1064 750 1108 782 1081 b 754 1040 781 1050 772 1042 b 572 1110 710 1040 625 1075 b 389 1040 521 1075 433 1040 m 908 971 b 988 931 957 971 988 963 b 840 792 988 876 901 889 l 617 432 l 617 247 b 708 44 617 78 708 119 b 628 0 708 11 689 0 l 372 0 b 290 44 313 0 290 11 b 386 247 290 119 386 78 l 386 431 l 140 796 b 11 932 72 897 11 876 b 79 972 11 965 39 972 l 369 972 b 438 931 413 972 438 963 b 421 794 438 876 357 893 l 574 556 l 710 789 b 692 931 772 896 692 876 b 760 971 692 964 722 971 "},"Ÿ":{"ha":999,"x_min":0,"x_max":0,"o":"m 476 1057 b 400 1131 435 1057 400 1086 b 507 1242 400 1188 444 1242 b 590 1160 557 1242 590 1210 b 476 1057 590 1099 538 1057 m 719 1057 b 640 1131 675 1057 640 1086 b 747 1242 640 1188 688 1242 b 832 1160 797 1242 832 1210 b 719 1057 832 1099 779 1057 m 908 971 b 988 931 957 971 988 963 b 840 792 988 876 901 889 l 617 432 l 617 247 b 708 44 617 78 708 119 b 628 0 708 11 689 0 l 372 0 b 290 44 313 0 290 11 b 386 247 290 119 386 78 l 386 431 l 140 796 b 11 932 72 897 11 876 b 79 972 11 965 39 972 l 369 972 b 438 931 413 972 438 963 b 421 794 438 876 357 893 l 574 556 l 710 789 b 692 931 772 896 692 876 b 760 971 692 964 722 971 "},"Ỳ":{"ha":999,"x_min":0,"x_max":0,"o":"m 608 1047 b 389 1185 525 1044 392 1097 b 460 1265 388 1228 424 1264 b 579 1197 496 1267 535 1236 b 676 1076 613 1168 676 1104 b 608 1047 676 1054 639 1047 m 908 971 b 988 931 957 971 988 963 b 840 792 988 876 901 889 l 617 432 l 617 247 b 708 44 617 78 708 119 b 628 0 708 11 689 0 l 372 0 b 290 44 313 0 290 11 b 386 247 290 119 386 78 l 386 431 l 140 796 b 11 932 72 897 11 876 b 79 972 11 965 39 972 l 369 972 b 438 931 413 972 438 963 b 421 794 438 876 357 893 l 574 556 l 710 789 b 692 931 772 896 692 876 b 760 971 692 964 722 971 "},"Z":{"ha":892,"x_min":0,"x_max":0,"o":"m 843 271 b 865 193 869 261 872 235 b 828 51 854 136 842 89 b 706 0 813 8 786 0 l 97 0 b 64 65 54 0 42 28 l 551 872 l 361 872 b 157 740 272 872 214 826 b 85 703 132 704 113 693 b 63 779 58 711 56 738 b 100 921 74 836 86 883 b 222 972 117 964 142 972 l 803 972 b 836 908 846 972 858 946 l 353 100 l 567 101 b 771 232 656 101 714 146 b 843 271 796 268 815 279 "},"Ź":{"ha":892,"x_min":0,"x_max":0,"o":"m 431 1047 b 363 1076 400 1047 363 1054 b 460 1197 364 1104 428 1168 b 579 1265 506 1236 544 1267 b 650 1185 615 1264 651 1228 b 431 1047 649 1097 514 1044 m 843 271 b 865 193 869 261 872 235 b 828 51 854 136 842 89 b 706 0 813 8 786 0 l 97 0 b 64 65 54 0 42 28 l 551 872 l 361 872 b 157 740 272 872 214 826 b 85 703 132 704 113 693 b 63 779 58 711 56 738 b 100 921 74 836 86 883 b 222 972 117 964 142 972 l 803 972 b 836 908 846 972 858 946 l 353 100 l 567 101 b 771 232 656 101 714 146 b 843 271 796 268 815 279 "},"Ž":{"ha":892,"x_min":0,"x_max":0,"o":"m 306 1138 b 229 1228 254 1188 229 1213 b 256 1250 231 1242 238 1250 b 439 1182 300 1250 388 1217 b 621 1250 492 1217 576 1250 b 647 1228 639 1250 647 1242 b 567 1133 649 1211 617 1183 b 439 1050 504 1072 500 1050 b 306 1138 378 1050 367 1076 m 843 271 b 865 193 869 261 872 235 b 828 51 854 136 842 89 b 706 0 813 8 786 0 l 97 0 b 64 65 54 0 42 28 l 551 872 l 361 872 b 157 740 272 872 214 826 b 85 703 132 704 113 693 b 63 779 58 711 56 738 b 100 921 74 836 86 883 b 222 972 117 964 142 972 l 803 972 b 836 908 846 972 858 946 l 353 100 l 567 101 b 771 232 656 101 714 146 b 843 271 796 268 815 279 "},"Ż":{"ha":892,"x_min":0,"x_max":0,"o":"m 417 1049 b 322 1140 356 1049 321 1092 b 481 1288 322 1213 401 1289 b 581 1193 536 1288 581 1247 b 417 1049 579 1115 497 1049 m 843 271 b 865 193 869 261 872 235 b 828 51 854 136 842 89 b 706 0 813 8 786 0 l 97 0 b 64 65 54 0 42 28 l 551 872 l 361 872 b 157 740 272 872 214 826 b 85 703 132 704 113 693 b 63 779 58 711 56 738 b 100 921 74 836 86 883 b 222 972 117 964 142 972 l 803 972 b 836 908 846 972 858 946 l 353 100 l 567 101 b 771 232 656 101 714 146 b 843 271 796 268 815 279 "},"Ģ":{"ha":1090,"x_min":0,"x_max":0,"o":"m 547 -14 b 56 468 258 -14 56 178 b 550 986 56 753 268 986 b 751 961 663 986 721 961 b 832 985 788 961 794 985 b 892 913 857 985 879 972 b 925 713 903 858 914 797 b 883 643 931 669 921 646 b 804 710 851 640 836 663 b 540 886 739 801 676 885 b 290 568 376 886 290 747 b 600 100 290 297 403 100 b 739 190 656 100 739 126 l 739 279 b 600 443 739 417 601 374 b 681 489 600 476 619 488 l 953 492 b 1024 447 1001 492 1024 481 b 969 282 1025 390 969 410 l 969 201 b 547 -14 969 99 794 -14 m 496 -387 b 472 -368 482 -387 472 -379 b 521 -283 472 -349 521 -326 b 454 -153 521 -239 454 -231 b 542 -65 454 -103 494 -65 b 639 -179 596 -65 639 -97 b 496 -387 639 -299 551 -387 "},"Ķ":{"ha":1061,"x_min":0,"x_max":0,"o":"m 711 713 l 942 213 b 1067 44 1000 88 1067 114 b 988 0 1067 11 1047 0 l 744 0 b 663 44 685 0 663 11 b 704 197 663 99 743 108 l 542 556 l 358 385 l 358 247 b 451 44 358 78 451 119 b 369 0 451 11 432 0 l 115 0 b 33 44 56 0 33 11 b 129 247 33 119 129 78 l 129 725 b 36 928 129 894 36 853 b 118 972 36 961 56 972 l 372 972 b 454 928 432 972 454 961 b 358 725 454 853 358 894 l 358 526 l 649 794 b 624 928 731 871 624 875 b 686 972 624 961 643 972 l 881 972 b 964 928 936 972 964 961 b 800 794 964 863 906 893 m 513 -65 b 610 -179 567 -65 610 -97 b 467 -387 610 -299 522 -387 b 443 -368 453 -387 443 -379 b 492 -283 443 -349 492 -326 b 425 -153 492 -239 425 -231 b 513 -65 425 -103 465 -65 "},"Ļ":{"ha":813,"x_min":0,"x_max":0,"o":"m 743 314 b 776 242 775 306 778 285 b 754 63 774 160 765 103 b 636 0 743 18 719 0 l 115 0 b 33 44 56 0 33 11 b 129 258 33 128 129 67 l 129 725 b 36 928 129 894 36 853 b 118 972 36 961 56 972 l 372 972 b 454 928 432 972 454 961 b 358 725 454 853 358 894 l 358 163 b 460 100 358 119 378 100 l 510 101 b 675 261 594 101 626 160 b 743 314 699 308 718 319 m 403 -65 b 500 -179 457 -65 500 -97 b 357 -387 500 -299 413 -387 b 333 -368 343 -387 333 -379 b 382 -283 333 -349 382 -326 b 315 -153 382 -239 315 -231 b 403 -65 315 -103 356 -65 "},"Ņ":{"ha":1068,"x_min":0,"x_max":0,"o":"m 971 971 b 1039 931 1021 971 1039 963 b 963 794 1039 885 963 882 l 963 65 b 904 0 963 17 946 0 b 844 47 863 0 844 22 b 799 140 844 83 831 107 l 242 693 l 243 178 b 319 40 243 90 319 90 b 254 1 319 8 299 1 l 118 1 b 50 42 67 1 50 11 b 125 178 50 88 125 90 l 125 714 b 31 928 125 906 31 844 b 111 972 31 961 53 972 l 247 972 b 326 933 282 972 301 957 l 844 415 l 844 794 b 768 932 844 882 768 882 b 833 971 768 964 789 971 m 528 -65 b 625 -179 582 -65 625 -97 b 482 -387 625 -299 538 -387 b 458 -368 468 -387 458 -379 b 507 -283 458 -349 507 -326 b 440 -153 507 -239 440 -231 b 528 -65 440 -103 481 -65 "},"Ŗ":{"ha":983,"x_min":0,"x_max":0,"o":"m 839 190 b 957 44 896 92 957 113 b 878 0 957 11 938 0 l 646 0 b 579 44 601 0 579 11 b 606 197 579 99 651 113 l 536 321 b 443 375 517 357 494 367 b 358 343 397 381 358 383 l 358 247 b 451 44 358 78 451 119 b 369 0 451 11 432 0 l 115 0 b 33 44 56 0 33 11 b 129 247 33 119 129 78 l 129 714 b 33 928 129 906 33 844 b 115 972 33 961 56 972 l 442 972 b 885 657 736 972 885 824 b 721 392 885 535 831 439 m 463 464 b 653 638 601 444 653 543 b 433 879 653 774 560 879 b 358 842 368 879 358 871 l 358 525 b 463 464 358 485 406 471 m 438 -65 b 535 -179 492 -65 535 -97 b 392 -387 535 -299 447 -387 b 368 -368 378 -387 368 -379 b 417 -283 368 -349 417 -326 b 350 -153 417 -239 350 -231 b 438 -65 350 -103 390 -65 "},"Ţ":{"ha":908,"x_min":0,"x_max":0,"o":"m 879 731 b 842 663 881 689 872 663 b 789 713 819 663 806 681 b 625 865 739 813 708 865 b 569 807 589 865 569 844 l 569 247 b 663 44 569 78 663 119 b 581 0 663 11 643 0 l 517 0 l 479 -69 b 610 -181 550 -81 610 -111 b 469 -300 610 -251 549 -300 b 349 -251 410 -300 368 -276 b 383 -221 331 -229 351 -201 b 438 -237 399 -231 417 -237 b 494 -187 475 -237 494 -214 b 406 -121 494 -142 443 -129 b 389 -93 392 -118 381 -108 l 439 0 l 326 0 b 244 44 267 0 244 11 b 340 247 244 119 340 78 l 340 807 b 283 864 340 844 322 864 b 119 713 200 864 171 813 b 67 663 104 681 89 663 b 29 731 36 663 28 688 b 51 910 32 813 40 869 b 169 972 64 954 88 972 l 739 972 b 857 910 822 972 846 954 b 879 731 868 869 876 813 "},"Ș":{"ha":879,"x_min":0,"x_max":0,"o":"m 439 -12 b 233 17 336 -12 268 17 b 153 -14 188 17 183 -14 b 99 61 128 -14 108 1 b 74 268 86 139 76 206 b 108 336 72 311 81 336 b 175 272 136 336 146 318 b 456 90 215 201 300 90 b 578 199 542 90 576 144 b 353 399 578 285 467 339 b 86 696 194 481 86 535 b 443 985 86 858 242 985 b 604 964 514 985 575 964 b 678 985 640 964 647 985 b 735 913 703 985 722 972 b 758 740 746 858 756 799 b 718 671 761 697 750 671 b 647 736 694 671 678 692 b 428 888 600 803 528 888 b 307 781 350 888 307 843 b 526 578 307 701 376 656 b 813 286 692 493 813 438 b 439 -12 814 96 629 -12 m 353 -387 b 329 -368 339 -387 329 -379 b 378 -283 329 -349 378 -326 b 311 -153 378 -239 311 -231 b 399 -65 311 -103 351 -65 b 496 -179 453 -65 496 -97 b 353 -387 496 -299 408 -387 "},"Ț":{"ha":908,"x_min":0,"x_max":0,"o":"m 569 247 b 663 44 569 78 663 119 b 581 0 663 11 643 0 l 326 0 b 244 44 267 0 244 11 b 340 247 244 119 340 78 l 340 807 b 283 864 340 844 322 864 b 119 713 200 864 171 813 b 67 663 104 681 89 663 b 29 731 36 663 28 688 b 51 910 32 813 40 869 b 169 972 64 954 88 972 l 739 972 b 857 910 822 972 846 954 b 879 731 868 869 876 813 b 842 663 881 689 872 663 b 789 713 819 663 806 681 b 625 865 739 813 708 865 b 569 807 589 865 569 844 m 415 -387 b 392 -368 401 -387 392 -379 b 440 -283 392 -349 440 -326 b 374 -153 440 -239 374 -231 b 461 -65 374 -103 414 -65 b 558 -179 515 -65 558 -97 b 415 -387 558 -299 471 -387 "},"a":{"ha":817,"x_min":0,"x_max":0,"o":"m 790 117 b 815 90 806 118 815 107 b 660 -11 815 38 728 -11 b 531 89 600 -11 556 18 b 283 -11 460 17 367 -11 b 35 189 136 -11 35 74 b 361 419 35 321 150 419 b 453 413 386 419 408 417 b 301 551 429 488 396 551 b 142 500 247 551 188 525 b 104 543 115 483 82 504 b 385 681 140 606 249 681 b 657 433 575 681 624 546 l 728 192 b 790 117 742 143 757 115 m 379 99 b 503 199 449 99 514 144 b 474 294 500 218 488 253 b 382 340 463 326 428 340 b 240 226 294 340 240 294 b 379 99 240 153 296 99 "},"á":{"ha":817,"x_min":0,"x_max":0,"o":"m 313 775 b 293 808 293 782 288 793 b 397 926 301 833 349 885 b 526 981 442 964 488 994 b 574 874 568 965 592 925 b 313 775 546 794 385 749 m 790 117 b 815 90 806 118 815 107 b 660 -11 815 38 728 -11 b 531 89 600 -11 556 18 b 283 -11 460 17 367 -11 b 35 189 136 -11 35 74 b 361 419 35 321 150 419 b 453 413 386 419 408 417 b 301 551 429 488 396 551 b 142 500 247 551 188 525 b 104 543 115 483 82 504 b 385 681 140 606 249 681 b 657 433 575 681 624 546 l 728 192 b 790 117 742 143 757 115 m 379 99 b 503 199 449 99 514 144 b 474 294 500 218 488 253 b 382 340 463 326 428 340 b 240 226 294 340 240 294 b 379 99 240 153 296 99 "},"ă":{"ha":817,"x_min":0,"x_max":0,"o":"m 406 742 b 197 932 281 742 197 825 b 222 978 197 960 207 978 b 254 957 233 978 242 972 b 407 882 297 903 338 882 b 557 957 474 882 514 903 b 589 978 571 972 578 978 b 614 932 606 978 614 960 b 406 742 614 821 526 742 m 790 117 b 815 90 806 118 815 107 b 660 -11 815 38 728 -11 b 531 89 600 -11 556 18 b 283 -11 460 17 367 -11 b 35 189 136 -11 35 74 b 361 419 35 321 150 419 b 453 413 386 419 408 417 b 301 551 429 488 396 551 b 142 500 247 551 188 525 b 104 543 115 483 82 504 b 385 681 140 606 249 681 b 657 433 575 681 624 546 l 728 192 b 790 117 742 143 757 115 m 379 99 b 503 199 449 99 514 144 b 474 294 500 218 488 253 b 382 340 463 326 428 340 b 240 226 294 340 240 294 b 379 99 240 153 296 99 "},"â":{"ha":817,"x_min":0,"x_max":0,"o":"m 257 744 b 232 767 240 744 232 753 b 300 883 232 789 267 840 b 422 974 347 947 367 974 b 546 889 492 974 494 957 b 617 767 579 844 617 789 b 592 744 617 753 610 744 b 425 851 547 743 478 800 b 257 744 371 800 301 743 m 790 117 b 815 90 806 118 815 107 b 660 -11 815 38 728 -11 b 531 89 600 -11 556 18 b 283 -11 460 17 367 -11 b 35 189 136 -11 35 74 b 361 419 35 321 150 419 b 453 413 386 419 408 417 b 301 551 429 488 396 551 b 142 500 247 551 188 525 b 104 543 115 483 82 504 b 385 681 140 606 249 681 b 657 433 575 681 624 546 l 728 192 b 790 117 742 143 757 115 m 379 99 b 503 199 449 99 514 144 b 474 294 500 218 488 253 b 382 340 463 326 428 340 b 240 226 294 340 240 294 b 379 99 240 153 296 99 "},"ä":{"ha":817,"x_min":0,"x_max":0,"o":"m 288 760 b 210 833 244 760 210 789 b 317 944 210 890 256 944 b 401 863 367 944 401 913 b 288 760 401 803 347 760 m 531 760 b 450 833 485 760 450 789 b 557 944 450 890 497 944 b 642 863 608 944 642 913 b 531 760 642 803 589 760 m 790 117 b 815 90 806 118 815 107 b 660 -11 815 38 728 -11 b 531 89 600 -11 556 18 b 283 -11 460 17 367 -11 b 35 189 136 -11 35 74 b 361 419 35 321 150 419 b 453 413 386 419 408 417 b 301 551 429 488 396 551 b 142 500 247 551 188 525 b 104 543 115 483 82 504 b 385 681 140 606 249 681 b 657 433 575 681 624 546 l 728 192 b 790 117 742 143 757 115 m 379 99 b 503 199 449 99 514 144 b 474 294 500 218 488 253 b 382 340 463 326 428 340 b 240 226 294 340 240 294 b 379 99 240 153 296 99 "},"à":{"ha":817,"x_min":0,"x_max":0,"o":"m 533 775 b 272 874 461 749 300 794 b 321 981 254 925 278 965 b 450 926 358 994 404 964 b 553 808 497 885 544 833 b 533 775 558 793 553 782 m 790 117 b 815 90 806 118 815 107 b 660 -11 815 38 728 -11 b 531 89 600 -11 556 18 b 283 -11 460 17 367 -11 b 35 189 136 -11 35 74 b 361 419 35 321 150 419 b 453 413 386 419 408 417 b 301 551 429 488 396 551 b 142 500 247 551 188 525 b 104 543 115 483 82 504 b 385 681 140 606 249 681 b 657 433 575 681 624 546 l 728 192 b 790 117 742 143 757 115 m 379 99 b 503 199 449 99 514 144 b 474 294 500 218 488 253 b 382 340 463 326 428 340 b 240 226 294 340 240 294 b 379 99 240 153 296 99 "},"ā":{"ha":817,"x_min":0,"x_max":0,"o":"m 236 764 b 176 810 179 764 171 771 b 251 865 185 858 190 865 l 564 865 b 631 819 628 865 638 857 b 549 764 625 769 618 764 m 790 117 b 815 90 806 118 815 107 b 660 -11 815 38 728 -11 b 531 89 600 -11 556 18 b 283 -11 460 17 367 -11 b 35 189 136 -11 35 74 b 361 419 35 321 150 419 b 453 413 386 419 408 417 b 301 551 429 488 396 551 b 142 500 247 551 188 525 b 104 543 115 483 82 504 b 385 681 140 606 249 681 b 657 433 575 681 624 546 l 728 192 b 790 117 742 143 757 115 m 379 99 b 503 199 449 99 514 144 b 474 294 500 218 488 253 b 382 340 463 326 428 340 b 240 226 294 340 240 294 b 379 99 240 153 296 99 "},"ą":{"ha":817,"x_min":0,"x_max":0,"o":"m 781 -169 b 807 -211 818 -151 829 -186 b 679 -264 779 -242 732 -264 b 539 -143 594 -264 539 -214 b 624 -7 539 -94 567 -46 b 531 89 582 3 550 33 b 283 -11 460 17 367 -11 b 35 189 136 -11 35 74 b 361 419 35 321 150 419 b 453 413 386 419 408 417 b 301 551 429 488 396 551 b 142 500 247 551 188 525 b 104 543 115 483 82 504 b 385 681 140 606 249 681 b 657 433 575 681 624 546 l 728 192 b 790 117 742 143 757 115 b 815 90 806 118 815 107 b 717 -1 815 51 768 15 b 667 -115 679 -49 667 -85 b 732 -182 667 -151 688 -182 b 781 -169 746 -182 763 -178 m 379 99 b 503 199 449 99 514 144 b 474 294 500 218 488 253 b 382 340 463 326 428 340 b 240 226 294 340 240 294 b 379 99 240 153 296 99 "},"å":{"ha":817,"x_min":0,"x_max":0,"o":"m 406 718 b 253 864 318 718 253 776 b 411 1014 253 954 322 1014 b 564 868 497 1014 564 957 b 406 718 564 776 493 718 m 406 932 b 347 867 367 932 344 906 b 411 804 351 829 376 804 b 468 871 450 804 471 833 b 406 932 464 907 440 932 m 790 117 b 815 90 806 118 815 107 b 660 -11 815 38 728 -11 b 531 89 600 -11 556 18 b 283 -11 460 17 367 -11 b 35 189 136 -11 35 74 b 361 419 35 321 150 419 b 453 413 386 419 408 417 b 301 551 429 488 396 551 b 142 500 247 551 188 525 b 104 543 115 483 82 504 b 385 681 140 606 249 681 b 657 433 575 681 624 546 l 728 192 b 790 117 742 143 757 115 m 379 99 b 503 199 449 99 514 144 b 474 294 500 218 488 253 b 382 340 463 326 428 340 b 240 226 294 340 240 294 b 379 99 240 153 296 99 "},"ã":{"ha":817,"x_min":0,"x_max":0,"o":"m 231 754 b 175 806 231 718 175 739 b 289 910 175 853 207 910 b 528 851 365 910 483 851 b 576 893 554 851 576 858 b 633 840 576 928 633 908 b 519 738 633 793 601 738 b 281 796 446 738 364 796 b 231 754 254 796 231 788 m 790 117 b 815 90 806 118 815 107 b 660 -11 815 38 728 -11 b 531 89 600 -11 556 18 b 283 -11 460 17 367 -11 b 35 189 136 -11 35 74 b 361 419 35 321 150 419 b 453 413 386 419 408 417 b 301 551 429 488 396 551 b 142 500 247 551 188 525 b 104 543 115 483 82 504 b 385 681 140 606 249 681 b 657 433 575 681 624 546 l 728 192 b 790 117 742 143 757 115 m 379 99 b 503 199 449 99 514 144 b 474 294 500 218 488 253 b 382 340 463 326 428 340 b 240 226 294 340 240 294 b 379 99 240 153 296 99 "},"æ":{"ha":1186,"x_min":0,"x_max":0,"o":"m 1106 229 b 1151 189 1136 258 1165 232 b 815 -14 1125 107 1004 -14 b 526 140 685 -14 581 44 b 265 -11 467 31 365 -11 b 35 194 154 -11 35 57 b 351 419 35 326 160 419 b 468 406 396 419 422 417 b 303 543 451 507 394 543 b 157 500 250 543 203 525 b 119 543 131 483 96 504 b 396 681 156 606 272 681 b 615 599 496 681 568 650 b 844 681 679 650 761 681 b 1128 456 1018 681 1111 574 b 1097 403 1132 435 1119 414 b 728 243 960 336 864 297 b 911 140 757 189 814 140 b 1106 229 990 140 1056 182 m 775 576 b 683 422 715 563 683 504 b 696 333 683 393 688 356 b 886 408 760 356 824 379 b 921 469 910 419 933 428 b 775 576 897 547 838 593 m 346 100 b 472 197 401 100 472 143 b 471 288 472 224 472 246 b 360 342 468 324 429 342 b 218 217 282 342 218 294 b 346 100 218 143 271 100 "},"b":{"ha":829,"x_min":0,"x_max":0,"o":"m 501 681 b 783 371 653 683 783 564 b 461 -14 783 96 590 -14 b 249 44 329 -14 301 46 b 115 -4 203 43 157 -4 b 75 44 82 -4 71 14 b 88 196 82 85 88 135 l 86 749 b 22 871 86 832 22 829 b 67 918 22 892 33 903 b 272 986 124 944 249 986 b 307 939 297 986 307 969 l 306 749 l 306 590 b 501 681 349 643 413 679 m 457 85 b 576 272 543 85 576 186 b 424 557 576 432 517 557 b 301 392 350 557 300 486 l 303 296 b 457 85 303 168 374 85 "},"":{"ha":829,"x_min":0,"x_max":0,"o":"m 501 681 b 306 590 413 679 349 643 l 306 749 l 307 939 b 272 986 307 969 297 986 b 67 918 249 986 124 944 b 22 871 33 903 22 892 b 86 749 22 829 86 832 l 88 196 b 75 44 88 135 82 85 b 115 -4 71 14 82 -4 b 249 44 157 -4 203 43 b 461 -14 301 46 329 -14 b 783 371 590 -14 783 96 b 501 681 783 564 653 683 m 457 85 b 303 296 374 85 303 168 l 301 392 b 424 557 300 486 350 557 b 576 272 517 557 576 432 b 457 85 576 186 543 85 "},"c":{"ha":747,"x_min":0,"x_max":0,"o":"m 385 -14 b 44 313 164 -14 44 143 b 413 681 44 526 213 681 b 699 449 585 681 699 572 b 597 342 699 375 649 342 b 493 438 532 342 507 383 b 367 579 469 522 428 579 b 254 419 296 579 254 517 b 482 142 254 256 343 142 b 657 217 564 142 610 178 b 703 176 689 244 717 221 b 385 -14 676 96 574 -14 "},"ć":{"ha":747,"x_min":0,"x_max":0,"o":"m 278 776 b 258 810 258 783 253 794 b 363 928 267 835 314 886 b 492 982 407 965 453 996 b 539 875 533 967 557 926 b 278 776 511 796 350 750 m 385 -14 b 44 313 164 -14 44 143 b 413 681 44 526 213 681 b 699 449 585 681 699 572 b 597 342 699 375 649 342 b 493 438 532 342 507 383 b 367 579 469 522 428 579 b 254 419 296 579 254 517 b 482 142 254 256 343 142 b 657 217 564 142 610 178 b 703 176 689 244 717 221 b 385 -14 676 96 574 -14 "},"č":{"ha":747,"x_min":0,"x_max":0,"o":"m 222 1031 b 390 924 267 1031 336 975 b 557 1031 443 975 513 1031 b 582 1008 575 1031 582 1022 b 511 886 582 986 544 931 b 388 801 460 818 457 801 b 265 892 332 801 313 828 b 197 1008 232 935 197 986 b 222 1031 197 1022 206 1031 m 385 -14 b 44 313 164 -14 44 143 b 413 681 44 526 213 681 b 699 449 585 681 699 572 b 597 342 699 375 649 342 b 493 438 532 342 507 383 b 367 579 469 522 428 579 b 254 419 296 579 254 517 b 482 142 254 256 343 142 b 657 217 564 142 610 178 b 703 176 689 244 717 221 b 385 -14 676 96 574 -14 "},"ç":{"ha":747,"x_min":0,"x_max":0,"o":"m 657 217 b 703 176 689 244 717 221 b 408 -14 678 99 582 -4 l 378 -69 b 508 -181 449 -81 508 -111 b 368 -300 508 -251 447 -300 b 247 -251 308 -300 267 -276 b 282 -221 229 -229 250 -201 b 336 -237 297 -231 315 -237 b 393 -187 374 -237 393 -214 b 304 -121 393 -142 342 -129 b 288 -93 290 -118 279 -108 l 332 -11 b 44 313 144 13 44 157 b 413 681 44 526 213 681 b 699 449 585 681 699 572 b 597 342 699 375 649 342 b 493 438 532 342 507 383 b 367 579 469 522 428 579 b 254 419 296 579 254 517 b 482 142 254 256 343 142 b 657 217 564 142 610 178 "},"ċ":{"ha":747,"x_min":0,"x_max":0,"o":"m 350 744 b 256 836 289 744 254 788 b 414 983 256 908 335 985 b 514 889 469 983 514 943 b 350 744 513 811 431 744 m 385 -14 b 44 313 164 -14 44 143 b 413 681 44 526 213 681 b 699 449 585 681 699 572 b 597 342 699 375 649 342 b 493 438 532 342 507 383 b 367 579 469 522 428 579 b 254 419 296 579 254 517 b 482 142 254 256 343 142 b 657 217 564 142 610 178 b 703 176 689 244 717 221 b 385 -14 676 96 574 -14 "},"d":{"ha":844,"x_min":0,"x_max":0,"o":"m 743 749 l 740 222 b 821 99 740 122 821 140 b 771 43 821 76 806 63 b 594 -10 726 21 636 -10 b 531 76 553 -10 535 13 l 531 89 b 313 -12 486 29 418 -17 b 44 290 160 -8 44 110 b 399 681 44 543 244 681 b 524 656 449 681 490 671 l 524 749 b 458 871 524 831 458 829 b 504 918 458 892 471 903 b 710 986 560 944 686 986 b 744 939 735 986 744 969 m 411 124 b 524 265 481 124 517 182 l 524 356 b 500 494 521 414 513 464 b 381 583 475 554 432 583 b 251 385 299 583 251 508 b 411 124 251 229 319 124 "},"ď":{"ha":844,"x_min":0,"x_max":0,"o":"m 313 -12 b 44 290 160 -8 44 110 b 399 681 44 543 244 681 b 524 656 449 681 490 671 l 524 749 b 458 871 524 831 458 829 b 504 918 458 892 471 903 b 710 986 560 944 686 986 b 744 939 735 986 744 969 l 743 749 l 740 222 b 821 99 740 122 821 140 b 771 43 821 76 806 63 b 594 -10 726 21 636 -10 b 531 76 553 -10 535 13 l 531 89 b 313 -12 486 29 418 -17 m 860 644 b 833 678 842 644 831 656 b 854 903 839 743 850 882 b 929 985 863 960 890 985 b 1004 903 976 985 1004 950 b 860 644 1004 824 911 644 m 411 124 b 524 265 481 124 517 182 l 524 356 b 500 494 521 414 513 464 b 381 583 475 554 432 583 b 251 385 299 583 251 508 b 411 124 251 229 319 124 "},"đ":{"ha":844,"x_min":0,"x_max":0,"o":"m 743 700 l 740 222 b 821 99 740 122 821 140 b 771 43 821 76 806 63 b 594 -10 726 21 636 -10 b 531 76 553 -10 535 13 l 531 89 b 313 -12 486 29 418 -17 b 44 290 160 -8 44 110 b 399 681 44 543 244 681 b 524 656 449 681 490 671 l 524 700 l 456 700 b 417 744 431 700 417 714 b 456 788 417 774 431 788 l 517 788 b 458 871 501 832 458 838 b 504 918 458 892 471 903 b 710 986 560 944 686 986 b 744 939 735 986 744 969 l 743 788 l 792 788 b 831 744 817 788 831 774 b 792 700 831 714 817 700 m 411 124 b 524 265 481 124 517 182 l 524 356 b 500 494 521 414 513 464 b 381 583 475 554 432 583 b 251 385 299 583 251 508 b 411 124 251 229 319 124 "},"ð":{"ha":799,"x_min":0,"x_max":0,"o":"m 754 403 b 382 -15 764 144 596 -15 b 44 333 188 -15 44 113 b 339 660 44 507 154 654 b 449 640 376 661 417 656 b 328 793 414 703 374 751 l 224 733 b 178 757 201 719 186 728 b 201 821 169 786 179 807 l 254 851 b 154 907 224 872 190 890 b 121 938 133 918 121 926 b 176 976 121 958 142 975 b 385 926 240 979 313 961 l 492 988 b 536 965 514 1001 529 993 b 514 900 544 935 536 914 l 471 875 b 754 403 619 772 747 600 m 439 90 b 547 247 518 90 547 171 b 371 579 547 400 482 579 b 257 407 282 579 257 489 b 439 90 257 257 331 90 "},"e":{"ha":750,"x_min":0,"x_max":0,"o":"m 668 229 b 714 189 699 258 728 232 b 378 -14 688 107 568 -14 b 44 314 179 -14 44 121 b 407 681 44 529 219 681 b 692 456 582 681 675 574 b 660 403 694 435 683 414 b 290 243 522 336 426 296 b 474 140 319 189 376 140 b 668 229 554 140 618 182 m 338 576 b 246 422 279 563 246 504 b 258 333 246 393 251 356 b 449 408 322 356 388 379 b 483 469 472 419 496 428 b 338 576 461 547 400 593 "},"é":{"ha":750,"x_min":0,"x_max":0,"o":"m 282 775 b 263 808 263 782 257 793 b 367 926 271 833 318 885 b 496 981 411 964 457 994 b 543 874 538 965 561 925 b 282 775 515 794 354 749 m 668 229 b 714 189 699 258 728 232 b 378 -14 688 107 568 -14 b 44 314 179 -14 44 121 b 407 681 44 529 219 681 b 692 456 582 681 675 574 b 660 403 694 435 683 414 b 290 243 522 336 426 296 b 474 140 319 189 376 140 b 668 229 554 140 618 182 m 338 576 b 246 422 279 563 246 504 b 258 333 246 393 251 356 b 449 408 322 356 388 379 b 483 469 472 419 496 428 b 338 576 461 547 400 593 "},"ě":{"ha":750,"x_min":0,"x_max":0,"o":"m 392 800 b 269 890 336 800 317 826 b 201 1007 236 933 201 985 b 226 1029 201 1021 210 1029 b 394 922 271 1029 340 974 b 561 1029 447 974 517 1029 b 586 1007 579 1029 586 1021 b 515 885 586 985 549 929 b 392 800 464 817 461 800 m 668 229 b 714 189 699 258 728 232 b 378 -14 688 107 568 -14 b 44 314 179 -14 44 121 b 407 681 44 529 219 681 b 692 456 582 681 675 574 b 660 403 694 435 683 414 b 290 243 522 336 426 296 b 474 140 319 189 376 140 b 668 229 554 140 618 182 m 338 576 b 246 422 279 563 246 504 b 258 333 246 393 251 356 b 449 408 322 356 388 379 b 483 469 472 419 496 428 b 338 576 461 547 400 593 "},"ê":{"ha":750,"x_min":0,"x_max":0,"o":"m 226 744 b 201 767 210 744 201 753 b 269 883 201 789 236 840 b 392 974 317 947 336 974 b 515 889 461 974 464 957 b 586 767 549 844 586 789 b 561 744 586 753 579 744 b 394 851 517 743 447 800 b 226 744 340 800 271 743 m 668 229 b 714 189 699 258 728 232 b 378 -14 688 107 568 -14 b 44 314 179 -14 44 121 b 407 681 44 529 219 681 b 692 456 582 681 675 574 b 660 403 694 435 683 414 b 290 243 522 336 426 296 b 474 140 319 189 376 140 b 668 229 554 140 618 182 m 338 576 b 246 422 279 563 246 504 b 258 333 246 393 251 356 b 449 408 322 356 388 379 b 483 469 472 419 496 428 b 338 576 461 547 400 593 "},"ë":{"ha":750,"x_min":0,"x_max":0,"o":"m 257 760 b 179 833 214 760 179 789 b 286 944 179 890 225 944 b 371 863 336 944 371 913 b 257 760 371 803 317 760 m 500 760 b 419 833 454 760 419 789 b 526 944 419 890 467 944 b 611 863 578 944 611 913 b 500 760 611 803 558 760 m 668 229 b 714 189 699 258 728 232 b 378 -14 688 107 568 -14 b 44 314 179 -14 44 121 b 407 681 44 529 219 681 b 692 456 582 681 675 574 b 660 403 694 435 683 414 b 290 243 522 336 426 296 b 474 140 319 189 376 140 b 668 229 554 140 618 182 m 338 576 b 246 422 279 563 246 504 b 258 333 246 393 251 356 b 449 408 322 356 388 379 b 483 469 472 419 496 428 b 338 576 461 547 400 593 "},"ė":{"ha":750,"x_min":0,"x_max":0,"o":"m 354 743 b 260 835 293 743 258 786 b 418 982 260 907 339 983 b 518 888 474 982 518 942 b 354 743 517 810 435 743 m 668 229 b 714 189 699 258 728 232 b 378 -14 688 107 568 -14 b 44 314 179 -14 44 121 b 407 681 44 529 219 681 b 692 456 582 681 675 574 b 660 403 694 435 683 414 b 290 243 522 336 426 296 b 474 140 319 189 376 140 b 668 229 554 140 618 182 m 338 576 b 246 422 279 563 246 504 b 258 333 246 393 251 356 b 449 408 322 356 388 379 b 483 469 472 419 496 428 b 338 576 461 547 400 593 "},"è":{"ha":750,"x_min":0,"x_max":0,"o":"m 503 775 b 242 874 431 749 269 794 b 290 981 224 925 247 965 b 419 926 328 994 374 964 b 522 808 467 885 514 833 b 503 775 528 793 522 782 m 668 229 b 714 189 699 258 728 232 b 378 -14 688 107 568 -14 b 44 314 179 -14 44 121 b 407 681 44 529 219 681 b 692 456 582 681 675 574 b 660 403 694 435 683 414 b 290 243 522 336 426 296 b 474 140 319 189 376 140 b 668 229 554 140 618 182 m 338 576 b 246 422 279 563 246 504 b 258 333 246 393 251 356 b 449 408 322 356 388 379 b 483 469 472 419 496 428 b 338 576 461 547 400 593 "},"ē":{"ha":750,"x_min":0,"x_max":0,"o":"m 206 764 b 146 810 149 764 140 771 b 221 865 154 858 160 865 l 533 865 b 600 819 597 865 607 857 b 518 764 594 769 588 764 m 668 229 b 714 189 699 258 728 232 b 378 -14 688 107 568 -14 b 44 314 179 -14 44 121 b 407 681 44 529 219 681 b 692 456 582 681 675 574 b 660 403 694 435 683 414 b 290 243 522 336 426 296 b 474 140 319 189 376 140 b 668 229 554 140 618 182 m 338 576 b 246 422 279 563 246 504 b 258 333 246 393 251 356 b 449 408 322 356 388 379 b 483 469 472 419 496 428 b 338 576 461 547 400 593 "},"ę":{"ha":750,"x_min":0,"x_max":0,"o":"m 714 189 b 615 63 701 150 668 103 b 561 -57 575 14 561 -25 b 626 -124 561 -93 582 -124 b 675 -111 640 -124 657 -119 b 701 -153 713 -93 724 -128 b 574 -206 674 -183 626 -206 b 433 -85 489 -206 433 -156 b 458 -7 433 -58 442 -32 b 378 -14 433 -11 407 -14 b 44 314 179 -14 44 121 b 407 681 44 529 219 681 b 692 456 582 681 675 574 b 660 403 694 435 683 414 b 290 243 522 336 426 296 b 474 140 319 189 376 140 b 668 229 554 140 618 182 b 714 189 699 258 728 232 m 338 576 b 246 422 279 563 246 504 b 258 333 246 393 251 356 b 449 408 322 356 388 379 b 483 469 472 419 496 428 b 338 576 461 547 400 593 "},"f":{"ha":546,"x_min":0,"x_max":0,"o":"m 346 885 b 285 790 313 885 285 856 b 350 667 285 735 306 667 l 468 667 b 511 611 494 667 519 657 b 447 558 503 565 476 557 l 350 563 l 350 197 b 446 39 350 54 446 106 b 382 0 446 7 422 0 l 131 0 b 63 40 88 0 63 10 b 132 197 63 99 132 72 l 132 572 l 94 574 b 44 619 64 575 38 582 b 111 667 50 660 78 667 l 132 667 b 392 986 132 874 249 986 b 565 829 493 986 565 921 b 488 744 565 767 519 744 b 414 807 443 744 425 775 b 346 885 401 846 382 885 "},"g":{"ha":806,"x_min":0,"x_max":0,"o":"m 592 128 b 788 -40 718 128 788 58 b 378 -292 788 -194 615 -292 b 60 -128 232 -292 60 -246 b 144 -21 60 -85 92 -42 b 58 101 92 4 58 46 b 165 238 58 158 92 201 b 69 407 106 274 69 332 b 399 681 69 550 210 675 l 443 681 b 508 676 469 679 485 676 b 643 749 539 676 586 686 b 707 783 660 769 679 783 b 768 721 740 783 768 757 b 626 614 768 653 693 622 b 701 447 674 574 701 517 b 383 188 701 300 571 193 b 242 204 332 186 285 192 b 219 163 228 193 219 178 b 322 113 219 124 261 113 b 592 128 401 113 526 128 m 368 596 b 278 472 314 596 278 543 b 406 269 278 369 317 269 b 493 396 457 269 493 315 b 368 596 493 483 454 596 m 417 -199 b 597 -110 549 -199 597 -161 b 528 -60 597 -81 578 -58 b 300 -67 443 -60 383 -69 b 231 -118 265 -65 231 -78 b 417 -199 231 -172 303 -199 "},"ğ":{"ha":806,"x_min":0,"x_max":0,"o":"m 411 742 b 203 932 286 742 203 825 b 228 978 203 960 213 978 b 260 957 239 978 247 972 b 413 882 303 903 343 882 b 563 957 479 882 519 903 b 594 978 576 972 583 978 b 619 932 611 978 619 960 b 411 742 619 821 532 742 m 592 128 b 788 -40 718 128 788 58 b 378 -292 788 -194 615 -292 b 60 -128 232 -292 60 -246 b 144 -21 60 -85 92 -42 b 58 101 92 4 58 46 b 165 238 58 158 92 201 b 69 407 106 274 69 332 b 399 681 69 550 210 675 l 443 681 b 508 676 469 679 485 676 b 643 749 539 676 586 686 b 707 783 660 769 679 783 b 768 721 740 783 768 757 b 626 614 768 653 693 622 b 701 447 674 574 701 517 b 383 188 701 300 571 193 b 242 204 332 186 285 192 b 219 163 228 193 219 178 b 322 113 219 124 261 113 b 592 128 401 113 526 128 m 368 596 b 278 472 314 596 278 543 b 406 269 278 369 317 269 b 493 396 457 269 493 315 b 368 596 493 483 454 596 m 417 -199 b 597 -110 549 -199 597 -161 b 528 -60 597 -81 578 -58 b 300 -67 443 -60 383 -69 b 231 -118 265 -65 231 -78 b 417 -199 231 -172 303 -199 "},"ġ":{"ha":806,"x_min":0,"x_max":0,"o":"m 390 743 b 296 835 329 743 294 786 b 454 982 296 907 375 983 b 554 888 510 982 554 942 b 390 743 553 810 471 743 m 592 128 b 788 -40 718 128 788 58 b 378 -292 788 -194 615 -292 b 60 -128 232 -292 60 -246 b 144 -21 60 -85 92 -42 b 58 101 92 4 58 46 b 165 238 58 158 92 201 b 69 407 106 274 69 332 b 399 681 69 550 210 675 l 443 681 b 508 676 469 679 485 676 b 643 749 539 676 586 686 b 707 783 660 769 679 783 b 768 721 740 783 768 757 b 626 614 768 653 693 622 b 701 447 674 574 701 517 b 383 188 701 300 571 193 b 242 204 332 186 285 192 b 219 163 228 193 219 178 b 322 113 219 124 261 113 b 592 128 401 113 526 128 m 368 596 b 278 472 314 596 278 543 b 406 269 278 369 317 269 b 493 396 457 269 493 315 b 368 596 493 483 454 596 m 417 -199 b 597 -110 549 -199 597 -161 b 528 -60 597 -81 578 -58 b 300 -67 443 -60 383 -69 b 231 -118 265 -65 231 -78 b 417 -199 231 -172 303 -199 "},"h":{"ha":907,"x_min":0,"x_max":0,"o":"m 833 164 b 906 39 851 79 906 92 b 842 0 906 7 881 0 l 624 0 b 557 40 582 0 557 10 b 611 178 557 89 631 88 l 567 392 b 447 542 550 468 522 543 b 331 385 382 542 331 482 l 331 197 b 399 39 331 71 399 106 b 335 0 399 7 375 0 l 110 0 b 43 40 68 0 43 10 b 113 197 43 106 113 71 l 111 749 b 46 871 111 832 46 829 b 92 918 46 892 58 903 b 296 986 147 944 274 986 b 332 939 322 986 332 969 l 331 749 l 331 596 b 526 681 381 651 450 681 b 783 397 694 681 747 565 "},"ħ":{"ha":907,"x_min":0,"x_max":0,"o":"m 833 164 b 906 39 851 79 906 92 b 842 0 906 7 881 0 l 624 0 b 557 40 582 0 557 10 b 611 178 557 89 631 88 l 567 392 b 447 542 550 468 522 543 b 331 385 382 542 331 482 l 331 197 b 399 39 331 71 399 106 b 335 0 399 7 375 0 l 110 0 b 43 40 68 0 43 10 b 113 197 43 106 113 71 l 111 697 l 71 697 b 32 742 46 697 32 711 b 71 785 32 771 46 785 l 106 785 b 46 871 90 832 46 836 b 92 918 46 892 58 903 b 296 986 147 944 274 986 b 332 939 322 986 332 969 l 331 785 l 407 785 b 446 742 432 785 446 771 b 407 697 446 711 432 697 l 331 697 l 331 596 b 526 681 381 651 450 681 b 783 397 694 681 747 565 "},"i":{"ha":428,"x_min":0,"x_max":0,"o":"m 172 743 b 78 835 111 743 76 786 b 236 982 78 907 157 983 b 336 888 292 982 336 942 b 172 743 335 810 253 743 m 107 442 b 42 564 107 525 42 522 b 88 611 42 585 54 596 b 293 679 143 638 269 679 b 328 632 318 679 328 663 l 326 442 l 326 197 b 394 39 326 71 394 106 b 331 0 394 7 371 0 l 107 0 b 39 40 64 0 39 10 b 108 197 39 106 108 71 "},"ı":{"ha":428,"x_min":0,"x_max":0,"o":"m 107 442 b 42 564 107 525 42 522 b 88 611 42 585 54 596 b 293 679 143 638 269 679 b 328 632 318 679 328 663 l 326 442 l 326 197 b 394 39 326 71 394 106 b 331 0 394 7 371 0 l 107 0 b 39 40 64 0 39 10 b 108 197 39 106 108 71 "},"í":{"ha":428,"x_min":0,"x_max":0,"o":"m 100 775 b 81 808 81 782 75 793 b 185 926 89 833 136 885 b 314 981 229 964 275 994 b 361 874 356 965 379 925 b 100 775 333 794 172 749 m 107 442 b 42 564 107 525 42 522 b 88 611 42 585 54 596 b 293 679 143 638 269 679 b 328 632 318 679 328 663 l 326 442 l 326 197 b 394 39 326 71 394 106 b 331 0 394 7 371 0 l 107 0 b 39 40 64 0 39 10 b 108 197 39 106 108 71 "},"î":{"ha":428,"x_min":0,"x_max":0,"o":"m 44 744 b 19 767 28 744 19 753 b 88 883 19 789 54 840 b 210 974 135 947 154 974 b 333 889 279 974 282 957 b 404 767 367 844 404 789 b 379 744 404 753 397 744 b 213 851 335 743 265 800 b 44 744 158 800 89 743 m 107 442 b 42 564 107 525 42 522 b 88 611 42 585 54 596 b 293 679 143 638 269 679 b 328 632 318 679 328 663 l 326 442 l 326 197 b 394 39 326 71 394 106 b 331 0 394 7 371 0 l 107 0 b 39 40 64 0 39 10 b 108 197 39 106 108 71 "},"ï":{"ha":428,"x_min":0,"x_max":0,"o":"m 75 760 b -3 833 32 760 -3 789 b 104 944 -3 890 43 944 b 189 863 154 944 189 913 b 75 760 189 803 135 760 m 318 760 b 238 833 272 760 238 789 b 344 944 238 890 285 944 b 429 863 396 944 429 913 b 318 760 429 803 376 760 m 107 442 b 42 564 107 525 42 522 b 88 611 42 585 54 596 b 293 679 143 638 269 679 b 328 632 318 679 328 663 l 326 442 l 326 197 b 394 39 326 71 394 106 b 331 0 394 7 371 0 l 107 0 b 39 40 64 0 39 10 b 108 197 39 106 108 71 "},"ì":{"ha":428,"x_min":0,"x_max":0,"o":"m 321 775 b 60 874 249 749 88 794 b 108 981 42 925 65 965 b 238 926 146 994 192 964 b 340 808 285 885 332 833 b 321 775 346 793 340 782 m 107 442 b 42 564 107 525 42 522 b 88 611 42 585 54 596 b 293 679 143 638 269 679 b 328 632 318 679 328 663 l 326 442 l 326 197 b 394 39 326 71 394 106 b 331 0 394 7 371 0 l 107 0 b 39 40 64 0 39 10 b 108 197 39 106 108 71 "},"ī":{"ha":428,"x_min":0,"x_max":0,"o":"m 24 764 b -36 810 -33 764 -42 771 b 39 865 -28 858 -22 865 l 351 865 b 418 819 415 865 425 857 b 336 764 413 769 406 764 m 107 442 b 42 564 107 525 42 522 b 88 611 42 585 54 596 b 293 679 143 638 269 679 b 328 632 318 679 328 663 l 326 442 l 326 197 b 394 39 326 71 394 106 b 331 0 394 7 371 0 l 107 0 b 39 40 64 0 39 10 b 108 197 39 106 108 71 "},"į":{"ha":428,"x_min":0,"x_max":0,"o":"m 172 743 b 78 835 111 743 76 786 b 236 982 78 907 157 983 b 336 888 292 982 336 942 b 172 743 335 810 253 743 m 361 -183 b 388 -225 399 -165 410 -200 b 260 -278 360 -256 313 -278 b 119 -157 175 -278 119 -228 b 240 0 119 -100 158 -42 l 107 0 b 39 40 64 0 39 10 b 108 197 39 106 108 71 l 107 442 b 42 564 107 525 42 522 b 88 611 42 585 54 596 b 293 679 143 638 269 679 b 328 632 318 679 328 663 l 326 442 l 326 197 b 394 39 326 71 394 106 b 331 0 394 7 371 0 l 310 0 b 247 -129 263 -54 247 -96 b 313 -196 247 -165 268 -196 b 361 -183 326 -196 343 -192 "},"j":{"ha":408,"x_min":0,"x_max":0,"o":"m 188 743 b 93 835 126 743 92 786 b 251 982 93 907 172 983 b 351 888 307 982 351 942 b 188 743 350 810 268 743 m 110 444 b 44 568 110 528 44 526 b 90 615 44 589 57 600 b 294 683 146 642 272 683 b 331 636 321 683 331 667 l 329 446 l 328 10 l 328 -29 b 72 -289 328 -236 197 -289 b -24 -201 -69 -289 -89 -201 b 110 10 53 -201 108 -142 "},"ȷ":{"ha":408,"x_min":0,"x_max":0,"o":"m 110 444 b 44 568 110 528 44 526 b 90 615 44 589 57 600 b 294 683 146 642 272 683 b 331 636 321 683 331 667 l 329 446 l 328 10 l 328 -29 b 72 -289 328 -236 197 -289 b -24 -201 -69 -289 -89 -201 b 110 10 53 -201 108 -142 "},"k":{"ha":881,"x_min":0,"x_max":0,"o":"m 606 493 l 761 146 b 857 33 788 86 857 83 b 792 0 857 7 833 0 l 574 0 b 507 35 531 0 507 10 b 546 136 507 81 575 72 l 456 332 l 331 197 b 399 39 331 71 399 106 b 335 0 399 7 375 0 l 110 0 b 43 40 68 0 43 10 b 113 197 43 106 113 71 l 111 749 b 46 871 111 832 46 829 b 92 918 46 892 58 903 b 296 986 147 944 274 986 b 332 939 322 986 332 969 l 331 749 l 331 333 l 511 525 b 482 633 572 590 482 585 b 544 667 482 660 504 667 l 728 667 b 783 632 761 667 783 657 b 635 524 783 588 704 599 "},"l":{"ha":440,"x_min":0,"x_max":0,"o":"m 111 749 b 46 871 111 832 46 829 b 92 918 46 892 58 903 b 296 986 147 944 274 986 b 332 939 322 986 332 969 l 331 749 l 331 197 b 399 39 331 71 399 106 b 335 0 399 7 375 0 l 110 0 b 43 40 68 0 43 10 b 113 197 43 106 113 71 "},"ĺ":{"ha":440,"x_min":0,"x_max":0,"o":"m 125 1081 b 106 1114 106 1088 100 1099 b 210 1232 114 1139 161 1190 b 339 1286 254 1269 300 1300 b 386 1179 381 1271 404 1231 b 125 1081 358 1100 197 1054 m 111 749 b 46 871 111 832 46 829 b 92 918 46 892 58 903 b 296 986 147 944 274 986 b 332 939 322 986 332 969 l 331 749 l 331 197 b 399 39 331 71 399 106 b 335 0 399 7 375 0 l 110 0 b 43 40 68 0 43 10 b 113 197 43 106 113 71 "},"ľ":{"ha":440,"x_min":0,"x_max":0,"o":"m 111 749 b 46 871 111 832 46 829 b 92 918 46 892 58 903 b 296 986 147 944 274 986 b 332 939 322 986 332 969 l 331 749 l 331 197 b 399 39 331 71 399 106 b 335 0 399 7 375 0 l 110 0 b 43 40 68 0 43 10 b 113 197 43 106 113 71 m 442 644 b 415 678 424 644 413 656 b 436 903 421 743 432 882 b 511 985 444 960 472 985 b 586 903 558 985 586 950 b 442 644 586 824 493 644 "},"ł":{"ha":440,"x_min":0,"x_max":0,"o":"m 442 599 b 432 538 458 572 460 554 l 331 479 l 331 197 b 399 39 331 71 399 106 b 335 0 399 7 375 0 l 110 0 b 43 40 68 0 43 10 b 113 197 43 106 113 71 l 113 353 l 68 328 b 11 350 47 315 28 319 b 19 413 -8 382 -4 400 l 113 467 l 111 749 b 46 871 111 832 46 829 b 92 918 46 892 58 903 b 296 986 147 944 274 986 b 332 939 322 986 332 969 l 331 749 l 331 593 l 382 624 b 442 599 404 635 424 631 "},"m":{"ha":1340,"x_min":0,"x_max":0,"o":"m 1265 164 b 1338 39 1283 79 1338 92 b 1274 0 1338 7 1314 0 l 1057 0 b 989 40 1014 0 989 10 b 1043 178 989 89 1063 88 l 999 392 b 888 542 983 468 968 543 b 772 385 828 542 772 488 l 772 197 b 840 39 772 71 840 106 b 776 0 840 7 817 0 l 553 0 b 485 40 510 0 485 10 b 554 197 485 106 554 71 l 554 374 b 453 546 554 465 542 547 b 326 385 389 546 326 483 l 326 197 b 394 39 326 71 394 106 b 331 0 394 7 371 0 l 106 0 b 39 40 64 0 39 10 b 108 197 39 106 108 71 l 108 454 b 65 529 108 489 88 510 b 39 572 53 539 39 550 b 85 624 39 597 51 608 b 268 681 139 649 244 679 b 303 633 293 681 303 664 l 303 557 b 528 681 358 639 440 681 b 743 558 639 681 707 635 b 963 681 794 638 874 681 b 1215 397 1136 681 1179 565 "},"n":{"ha":903,"x_min":0,"x_max":0,"o":"m 829 164 b 901 39 847 79 901 92 b 838 0 901 7 876 0 l 619 0 b 553 40 578 0 553 10 b 607 178 553 89 626 88 l 563 392 b 443 542 546 468 518 543 b 326 385 378 542 326 482 l 326 197 b 394 39 326 71 394 106 b 331 0 394 7 371 0 l 106 0 b 39 40 64 0 39 10 b 108 197 39 106 108 71 l 108 454 b 65 529 108 489 88 510 b 39 572 53 539 39 550 b 85 624 39 597 51 608 b 268 681 139 649 244 679 b 303 633 293 681 303 664 l 303 565 b 522 681 354 642 433 681 b 779 397 690 681 743 565 "},"ń":{"ha":903,"x_min":0,"x_max":0,"o":"m 339 775 b 319 808 319 782 314 793 b 424 926 328 833 375 885 b 553 981 468 964 514 994 b 600 874 594 965 618 925 b 339 775 572 794 411 749 m 829 164 b 901 39 847 79 901 92 b 838 0 901 7 876 0 l 619 0 b 553 40 578 0 553 10 b 607 178 553 89 626 88 l 563 392 b 443 542 546 468 518 543 b 326 385 378 542 326 482 l 326 197 b 394 39 326 71 394 106 b 331 0 394 7 371 0 l 106 0 b 39 40 64 0 39 10 b 108 197 39 106 108 71 l 108 454 b 65 529 108 489 88 510 b 39 572 53 539 39 550 b 85 624 39 597 51 608 b 268 681 139 649 244 679 b 303 633 293 681 303 664 l 303 565 b 522 681 354 642 433 681 b 779 397 690 681 743 565 "},"ň":{"ha":903,"x_min":0,"x_max":0,"o":"m 449 800 b 326 890 393 800 374 826 b 258 1007 293 933 258 985 b 283 1029 258 1021 267 1029 b 451 922 328 1029 397 974 b 618 1029 504 974 574 1029 b 643 1007 636 1029 643 1021 b 572 885 643 985 606 929 b 449 800 521 817 518 800 m 829 164 b 901 39 847 79 901 92 b 838 0 901 7 876 0 l 619 0 b 553 40 578 0 553 10 b 607 178 553 89 626 88 l 563 392 b 443 542 546 468 518 543 b 326 385 378 542 326 482 l 326 197 b 394 39 326 71 394 106 b 331 0 394 7 371 0 l 106 0 b 39 40 64 0 39 10 b 108 197 39 106 108 71 l 108 454 b 65 529 108 489 88 510 b 39 572 53 539 39 550 b 85 624 39 597 51 608 b 268 681 139 649 244 679 b 303 633 293 681 303 664 l 303 565 b 522 681 354 642 433 681 b 779 397 690 681 743 565 "},"ñ":{"ha":903,"x_min":0,"x_max":0,"o":"m 257 754 b 201 806 257 718 201 739 b 315 910 201 853 233 910 b 554 851 392 910 510 851 b 603 893 581 851 603 858 b 660 840 603 928 660 908 b 546 738 660 793 628 738 b 307 796 472 738 390 796 b 257 754 281 796 257 788 m 829 164 b 901 39 847 79 901 92 b 838 0 901 7 876 0 l 619 0 b 553 40 578 0 553 10 b 607 178 553 89 626 88 l 563 392 b 443 542 546 468 518 543 b 326 385 378 542 326 482 l 326 197 b 394 39 326 71 394 106 b 331 0 394 7 371 0 l 106 0 b 39 40 64 0 39 10 b 108 197 39 106 108 71 l 108 454 b 65 529 108 489 88 510 b 39 572 53 539 39 550 b 85 624 39 597 51 608 b 268 681 139 649 244 679 b 303 633 293 681 303 664 l 303 565 b 522 681 354 642 433 681 b 779 397 690 681 743 565 "},"o":{"ha":807,"x_min":0,"x_max":0,"o":"m 371 -14 b 44 307 188 -14 44 110 b 436 681 44 514 213 681 b 761 356 631 681 761 539 b 371 -14 761 144 596 -14 m 439 90 b 547 246 522 90 547 168 b 367 579 547 400 476 579 b 257 407 279 579 257 489 b 439 90 257 254 331 90 "},"ó":{"ha":807,"x_min":0,"x_max":0,"o":"m 311 775 b 292 808 292 782 286 793 b 396 926 300 833 347 885 b 525 981 440 964 486 994 b 572 874 567 965 590 925 b 311 775 544 794 383 749 m 371 -14 b 44 307 188 -14 44 110 b 436 681 44 514 213 681 b 761 356 631 681 761 539 b 371 -14 761 144 596 -14 m 439 90 b 547 246 522 90 547 168 b 367 579 547 400 476 579 b 257 407 279 579 257 489 b 439 90 257 254 331 90 "},"ô":{"ha":807,"x_min":0,"x_max":0,"o":"m 256 744 b 231 767 239 744 231 753 b 299 883 231 789 265 840 b 421 974 346 947 365 974 b 544 889 490 974 493 957 b 615 767 578 844 615 789 b 590 744 615 753 608 744 b 424 851 546 743 476 800 b 256 744 369 800 300 743 m 371 -14 b 44 307 188 -14 44 110 b 436 681 44 514 213 681 b 761 356 631 681 761 539 b 371 -14 761 144 596 -14 m 439 90 b 547 246 522 90 547 168 b 367 579 547 400 476 579 b 257 407 279 579 257 489 b 439 90 257 254 331 90 "},"ö":{"ha":807,"x_min":0,"x_max":0,"o":"m 286 760 b 208 833 243 760 208 789 b 315 944 208 890 254 944 b 400 863 365 944 400 913 b 286 760 400 803 346 760 m 529 760 b 449 833 483 760 449 789 b 556 944 449 890 496 944 b 640 863 607 944 640 913 b 529 760 640 803 588 760 m 371 -14 b 44 307 188 -14 44 110 b 436 681 44 514 213 681 b 761 356 631 681 761 539 b 371 -14 761 144 596 -14 m 439 90 b 547 246 522 90 547 168 b 367 579 547 400 476 579 b 257 407 279 579 257 489 b 439 90 257 254 331 90 "},"ò":{"ha":807,"x_min":0,"x_max":0,"o":"m 532 775 b 271 874 460 749 299 794 b 319 981 253 925 276 965 b 449 926 357 994 403 964 b 551 808 496 885 543 833 b 532 775 557 793 551 782 m 371 -14 b 44 307 188 -14 44 110 b 436 681 44 514 213 681 b 761 356 631 681 761 539 b 371 -14 761 144 596 -14 m 439 90 b 547 246 522 90 547 168 b 367 579 547 400 476 579 b 257 407 279 579 257 489 b 439 90 257 254 331 90 "},"ő":{"ha":807,"x_min":0,"x_max":0,"o":"m 269 746 b 244 768 253 746 244 753 b 294 896 244 790 268 846 b 382 978 319 940 347 978 b 454 904 422 978 454 953 b 269 746 454 832 338 746 m 493 744 b 464 765 475 744 464 753 b 522 893 464 786 492 843 b 613 971 550 935 578 971 b 681 899 650 971 681 944 b 493 744 681 826 563 744 m 371 -14 b 44 307 188 -14 44 110 b 436 681 44 514 213 681 b 761 356 631 681 761 539 b 371 -14 761 144 596 -14 m 439 90 b 547 246 522 90 547 168 b 367 579 547 400 476 579 b 257 407 279 579 257 489 b 439 90 257 254 331 90 "},"ō":{"ha":807,"x_min":0,"x_max":0,"o":"m 235 764 b 175 810 178 764 169 771 b 250 865 183 858 189 865 l 563 865 b 629 819 626 865 636 857 b 547 764 624 769 617 764 m 371 -14 b 44 307 188 -14 44 110 b 436 681 44 514 213 681 b 761 356 631 681 761 539 b 371 -14 761 144 596 -14 m 439 90 b 547 246 522 90 547 168 b 367 579 547 400 476 579 b 257 407 279 579 257 489 b 439 90 257 254 331 90 "},"ø":{"ha":807,"x_min":0,"x_max":0,"o":"m 628 624 b 761 356 711 565 761 468 b 371 -14 761 144 596 -14 b 268 0 335 -14 300 -10 l 190 -135 b 139 -165 176 -158 156 -165 b 97 -132 117 -165 97 -153 b 106 -107 97 -125 101 -115 l 188 35 b 44 307 100 89 44 183 b 436 681 44 514 213 681 b 550 663 478 681 515 674 l 628 797 b 678 826 640 821 660 826 b 719 793 699 826 719 814 b 713 769 719 786 717 778 m 257 407 b 294 219 257 342 271 275 l 468 519 b 367 579 440 557 406 579 b 257 407 279 579 257 489 m 439 90 b 547 246 522 90 547 168 b 515 429 547 307 536 372 l 346 136 b 439 90 372 107 404 90 "},"õ":{"ha":807,"x_min":0,"x_max":0,"o":"m 518 738 b 279 796 444 738 363 796 b 229 754 253 796 229 788 b 174 806 229 718 174 739 b 288 910 174 853 206 910 b 526 851 364 910 482 851 b 575 893 553 851 575 858 b 632 840 575 928 632 908 b 518 738 632 793 600 738 m 371 -14 b 44 307 188 -14 44 110 b 436 681 44 514 213 681 b 761 356 631 681 761 539 b 371 -14 761 144 596 -14 m 439 90 b 547 246 522 90 547 168 b 367 579 547 400 476 579 b 257 407 279 579 257 489 b 439 90 257 254 331 90 "},"œ":{"ha":1249,"x_min":0,"x_max":0,"o":"m 1167 229 b 1213 189 1197 258 1226 232 b 878 -14 1186 107 1067 -14 b 624 90 771 -14 682 25 b 385 -15 563 25 478 -15 b 44 324 197 -15 44 114 b 400 683 44 515 197 683 b 646 569 511 683 593 636 b 906 681 714 639 808 681 b 1190 456 1081 681 1174 574 b 1160 403 1193 435 1182 414 b 789 243 1022 336 925 296 b 972 140 818 189 875 140 b 1167 229 1053 140 1117 182 m 436 88 b 546 247 522 88 546 172 b 375 588 546 401 485 581 b 258 421 292 593 258 510 b 436 88 258 256 328 88 m 838 576 b 744 422 778 563 744 504 b 758 333 744 393 750 356 b 949 408 822 356 886 379 b 983 469 971 419 996 428 b 838 576 960 547 899 593 "},"p":{"ha":847,"x_min":0,"x_max":0,"o":"m 521 681 b 803 361 669 681 803 567 b 493 -14 803 97 625 -14 b 319 36 425 -14 365 10 l 319 -81 b 389 -239 319 -207 389 -172 b 325 -278 389 -271 364 -278 l 100 -278 b 32 -239 57 -278 32 -268 b 101 -81 32 -172 101 -207 l 101 456 b 58 529 101 490 82 511 b 32 574 47 540 32 551 b 78 624 32 599 44 608 b 261 681 133 650 239 681 b 296 633 286 681 296 664 l 296 568 b 521 681 340 629 411 681 m 475 85 b 593 271 563 85 593 189 b 439 553 593 419 539 553 b 319 382 371 553 318 482 l 321 294 b 475 85 324 163 396 85 "},"þ":{"ha":849,"x_min":0,"x_max":0,"o":"m 521 681 b 803 361 669 681 803 567 b 493 -14 803 97 625 -14 b 319 36 425 -14 365 10 l 319 -79 b 388 -239 319 -207 388 -171 b 325 -276 388 -269 364 -276 l 100 -276 b 32 -237 57 -276 32 -268 b 101 -79 32 -171 101 -207 l 100 750 b 36 872 100 833 36 831 b 81 919 36 893 47 904 b 286 988 138 946 263 988 b 321 940 311 988 321 971 l 319 750 l 319 597 b 521 681 364 644 429 681 m 475 85 b 593 271 563 85 593 189 b 439 553 593 419 539 553 b 319 389 372 553 321 486 l 319 382 l 321 294 b 475 85 324 163 396 85 "},"q":{"ha":835,"x_min":0,"x_max":0,"o":"m 739 -81 b 808 -239 739 -206 808 -181 b 740 -278 808 -268 783 -278 l 489 -278 b 425 -239 449 -278 425 -271 b 521 -81 425 -172 521 -224 l 521 83 b 331 -14 476 26 414 -12 b 44 285 160 -14 44 104 b 399 681 44 536 233 681 b 593 644 508 681 551 644 b 699 681 639 644 664 681 b 739 633 732 681 739 663 m 417 119 b 522 306 488 119 522 199 b 500 494 522 388 515 457 b 376 583 475 554 428 583 b 250 385 293 583 250 508 b 417 119 250 240 319 119 "},"r":{"ha":660,"x_min":0,"x_max":0,"o":"m 492 681 b 622 549 574 681 622 626 b 549 446 622 485 590 446 b 410 524 475 446 479 524 b 326 389 365 524 326 479 l 326 197 b 394 39 326 71 394 106 b 331 0 394 7 371 0 l 106 0 b 39 40 64 0 39 10 b 108 197 39 106 108 71 l 108 454 b 65 529 108 489 88 510 b 39 572 53 539 39 550 b 85 624 39 597 51 608 b 268 681 139 649 244 679 b 303 633 293 681 303 664 l 303 565 b 492 681 358 649 431 681 "},"ŕ":{"ha":660,"x_min":0,"x_max":0,"o":"m 269 779 b 250 813 250 786 244 797 b 354 931 258 838 306 889 b 483 985 399 968 444 999 b 531 878 525 969 549 929 b 269 779 503 799 342 753 m 492 681 b 622 549 574 681 622 626 b 549 446 622 485 590 446 b 410 524 475 446 479 524 b 326 389 365 524 326 479 l 326 197 b 394 39 326 71 394 106 b 331 0 394 7 371 0 l 106 0 b 39 40 64 0 39 10 b 108 197 39 106 108 71 l 108 454 b 65 529 108 489 88 510 b 39 572 53 539 39 550 b 85 624 39 597 51 608 b 268 681 139 649 244 679 b 303 633 293 681 303 664 l 303 565 b 492 681 358 649 431 681 "},"ř":{"ha":660,"x_min":0,"x_max":0,"o":"m 379 804 b 257 894 324 804 304 831 b 189 1011 224 938 189 989 b 214 1033 189 1025 197 1033 b 382 926 258 1033 328 978 b 549 1033 435 978 504 1033 b 574 1011 567 1033 574 1025 b 503 889 574 989 536 933 b 379 804 451 821 449 804 m 492 681 b 622 549 574 681 622 626 b 549 446 622 485 590 446 b 410 524 475 446 479 524 b 326 389 365 524 326 479 l 326 197 b 394 39 326 71 394 106 b 331 0 394 7 371 0 l 106 0 b 39 40 64 0 39 10 b 108 197 39 106 108 71 l 108 454 b 65 529 108 489 88 510 b 39 572 53 539 39 550 b 85 624 39 597 51 608 b 268 681 139 649 244 679 b 303 633 293 681 303 664 l 303 565 b 492 681 358 649 431 681 "},"s":{"ha":731,"x_min":0,"x_max":0,"o":"m 161 -14 b 101 46 135 -14 121 -1 b 51 188 78 103 61 144 b 69 249 43 224 53 240 b 156 211 93 261 118 243 b 400 74 236 136 315 74 b 463 128 440 74 463 97 b 269 264 463 172 394 210 b 74 482 169 310 74 365 b 310 681 74 619 201 681 b 482 660 390 681 439 661 b 546 681 514 660 518 681 b 606 622 569 681 581 667 b 642 542 622 590 629 574 b 631 468 658 497 650 476 b 533 508 603 454 576 478 b 349 590 479 546 407 590 b 279 538 300 590 279 563 b 440 419 279 496 333 467 b 682 193 596 349 682 292 b 417 -14 682 64 560 -14 b 217 15 299 -14 247 15 b 161 -14 197 15 189 -14 "},"":{"ha":731,"x_min":0,"x_max":0,"o":"m 161 -14 b 217 15 189 -14 197 15 b 417 -14 247 15 299 -14 b 682 193 560 -14 682 64 b 440 419 682 292 596 349 b 279 538 333 467 279 496 b 349 590 279 563 300 590 b 533 508 407 590 479 546 b 631 468 576 478 603 454 b 642 542 650 476 658 497 b 606 622 629 574 622 590 b 546 681 581 667 569 681 b 482 660 518 681 514 660 b 310 681 439 661 390 681 b 74 482 201 681 74 619 b 269 264 74 365 169 310 b 463 128 394 210 463 172 b 400 74 463 97 440 74 b 156 211 315 74 236 136 b 69 249 118 243 93 261 b 51 188 53 240 43 224 b 101 46 61 144 78 103 b 161 -14 121 -1 135 -14 "},"ś":{"ha":731,"x_min":0,"x_max":0,"o":"m 250 775 b 231 808 231 782 225 793 b 335 926 239 833 286 885 b 464 981 379 964 425 994 b 511 874 506 965 529 925 b 250 775 483 794 322 749 m 161 -14 b 101 46 135 -14 121 -1 b 51 188 78 103 61 144 b 69 249 43 224 53 240 b 156 211 93 261 118 243 b 400 74 236 136 315 74 b 463 128 440 74 463 97 b 269 264 463 172 394 210 b 74 482 169 310 74 365 b 310 681 74 619 201 681 b 482 660 390 681 439 661 b 546 681 514 660 518 681 b 606 622 569 681 581 667 b 642 542 622 590 629 574 b 631 468 658 497 650 476 b 533 508 603 454 576 478 b 349 590 479 546 407 590 b 279 538 300 590 279 563 b 440 419 279 496 333 467 b 682 193 596 349 682 292 b 417 -14 682 64 560 -14 b 217 15 299 -14 247 15 b 161 -14 197 15 189 -14 "},"š":{"ha":731,"x_min":0,"x_max":0,"o":"m 194 1029 b 363 922 239 1029 308 974 b 529 1029 415 974 485 1029 b 554 1007 547 1029 554 1021 b 483 885 554 985 517 929 b 360 800 432 817 429 800 b 238 890 304 800 285 826 b 169 1007 204 933 169 985 b 194 1029 169 1021 178 1029 m 161 -14 b 101 46 135 -14 121 -1 b 51 188 78 103 61 144 b 69 249 43 224 53 240 b 156 211 93 261 118 243 b 400 74 236 136 315 74 b 463 128 440 74 463 97 b 269 264 463 172 394 210 b 74 482 169 310 74 365 b 310 681 74 619 201 681 b 482 660 390 681 439 661 b 546 681 514 660 518 681 b 606 622 569 681 581 667 b 642 542 622 590 629 574 b 631 468 658 497 650 476 b 533 508 603 454 576 478 b 349 590 479 546 407 590 b 279 538 300 590 279 563 b 440 419 279 496 333 467 b 682 193 596 349 682 292 b 417 -14 682 64 560 -14 b 217 15 299 -14 247 15 b 161 -14 197 15 189 -14 "},"ş":{"ha":731,"x_min":0,"x_max":0,"o":"m 417 -14 b 385 -12 406 -14 394 -14 l 354 -69 b 485 -181 425 -81 485 -111 b 344 -300 485 -251 424 -300 b 224 -251 285 -300 243 -276 b 258 -221 206 -229 226 -201 b 313 -237 274 -231 292 -237 b 369 -187 350 -237 369 -214 b 281 -121 369 -142 318 -129 b 264 -93 267 -118 256 -108 l 311 -6 b 217 15 264 4 236 15 b 161 -14 197 15 189 -14 b 101 46 135 -14 121 -1 b 51 188 78 103 61 144 b 69 249 43 224 53 240 b 156 211 93 261 118 243 b 400 74 236 136 315 74 b 463 128 440 74 463 97 b 269 264 463 172 394 210 b 74 482 169 310 74 365 b 310 681 74 619 201 681 b 482 660 390 681 439 661 b 546 681 514 660 518 681 b 606 622 569 681 581 667 b 642 542 622 590 629 574 b 631 468 658 497 650 476 b 533 508 603 454 576 478 b 349 590 479 546 407 590 b 279 538 300 590 279 563 b 440 419 279 496 333 467 b 682 193 596 349 682 292 b 417 -14 682 64 560 -14 "},"ß":{"ha":925,"x_min":0,"x_max":0,"o":"m 628 -15 b 429 50 565 -15 475 6 b 392 169 404 76 392 122 b 424 233 392 203 401 233 b 469 196 442 233 454 215 b 661 79 504 154 574 79 b 721 139 699 79 721 104 b 579 283 721 185 674 225 b 414 483 486 340 414 378 b 476 800 414 567 476 714 b 408 892 476 844 461 892 b 331 667 326 892 331 785 l 329 165 b 368 35 329 85 368 81 b 317 0 368 10 346 0 l 107 0 b 43 33 67 0 43 7 b 111 167 43 83 111 86 l 113 663 b 435 988 113 847 235 988 b 647 824 561 988 647 925 b 528 599 647 710 528 650 b 708 461 528 563 567 542 b 900 217 799 408 900 336 b 628 -15 900 85 794 -15 "},"t":{"ha":561,"x_min":0,"x_max":0,"o":"m 490 172 b 533 140 519 192 543 171 b 311 -14 511 71 435 -14 b 99 217 181 -14 99 67 l 99 304 b 103 568 99 408 100 503 l 72 568 b 19 607 31 568 19 582 b 44 664 19 628 28 649 b 233 808 96 714 171 774 b 292 831 269 829 283 831 b 325 789 311 831 326 810 b 318 667 321 749 319 708 l 456 667 b 497 611 482 667 506 657 b 433 558 489 565 464 557 l 317 563 l 317 304 b 393 135 315 165 338 135 b 490 172 428 135 460 150 "},"ŧ":{"ha":561,"x_min":0,"x_max":0,"o":"m 490 172 b 533 140 519 192 543 171 b 311 -14 511 71 435 -14 b 99 217 181 -14 99 67 l 99 372 l 61 372 b 22 417 36 372 22 386 b 61 460 22 446 36 460 l 100 460 b 103 568 100 501 101 538 l 72 568 b 19 607 31 568 19 582 b 44 664 19 628 28 649 b 233 808 96 714 171 774 b 292 831 269 829 283 831 b 325 789 311 831 326 810 b 318 667 321 749 319 708 l 456 667 b 497 611 482 667 506 657 b 433 558 489 565 464 557 l 317 563 l 317 460 l 397 460 b 436 417 422 460 436 446 b 397 372 436 386 422 372 l 317 372 l 317 304 b 393 135 315 165 338 135 b 490 172 428 135 460 150 "},"ť":{"ha":561,"x_min":0,"x_max":0,"o":"m 429 754 b 403 788 411 754 400 765 b 424 1013 408 853 419 992 b 499 1094 432 1069 460 1094 b 574 1013 546 1094 574 1060 b 429 754 574 933 481 754 m 490 172 b 533 140 519 192 543 171 b 311 -14 511 71 435 -14 b 99 217 181 -14 99 67 l 99 304 b 103 568 99 408 100 503 l 72 568 b 19 607 31 568 19 582 b 44 664 19 628 28 649 b 233 808 96 714 171 774 b 292 831 269 829 283 831 b 325 789 311 831 326 810 b 318 667 321 749 319 708 l 456 667 b 497 611 482 667 506 657 b 433 558 489 565 464 557 l 317 563 l 317 304 b 393 135 315 165 338 135 b 490 172 428 135 460 150 "},"u":{"ha":843,"x_min":0,"x_max":0,"o":"m 763 443 l 763 219 b 843 97 763 119 843 138 b 793 40 843 75 826 60 b 617 -12 749 18 658 -12 b 553 74 575 -12 557 10 l 551 100 b 338 -12 497 28 413 -12 b 104 268 182 -12 104 99 l 103 443 b 39 565 103 526 39 524 b 83 613 39 586 50 597 b 289 681 140 639 265 681 b 324 633 314 681 324 664 l 322 443 l 322 276 b 417 124 322 181 344 124 b 544 308 483 125 544 200 l 544 443 b 479 565 544 526 479 524 b 524 613 479 586 490 597 b 729 681 581 639 707 681 b 764 633 754 681 764 664 "},"ú":{"ha":843,"x_min":0,"x_max":0,"o":"m 396 775 b 376 808 376 782 371 793 b 481 926 385 833 432 885 b 610 981 525 964 571 994 b 657 874 651 965 675 925 b 396 775 629 794 468 749 m 763 443 l 763 219 b 843 97 763 119 843 138 b 793 40 843 75 826 60 b 617 -12 749 18 658 -12 b 553 74 575 -12 557 10 l 551 100 b 338 -12 497 28 413 -12 b 104 268 182 -12 104 99 l 103 443 b 39 565 103 526 39 524 b 83 613 39 586 50 597 b 289 681 140 639 265 681 b 324 633 314 681 324 664 l 322 443 l 322 276 b 417 124 322 181 344 124 b 544 308 483 125 544 200 l 544 443 b 479 565 544 526 479 524 b 524 613 479 586 490 597 b 729 681 581 639 707 681 b 764 633 754 681 764 664 "},"û":{"ha":843,"x_min":0,"x_max":0,"o":"m 340 744 b 315 767 324 744 315 753 b 383 883 315 789 350 840 b 506 974 431 947 450 974 b 629 889 575 974 578 957 b 700 767 663 844 700 789 b 675 744 700 753 693 744 b 508 851 631 743 561 800 b 340 744 454 800 385 743 m 763 443 l 763 219 b 843 97 763 119 843 138 b 793 40 843 75 826 60 b 617 -12 749 18 658 -12 b 553 74 575 -12 557 10 l 551 100 b 338 -12 497 28 413 -12 b 104 268 182 -12 104 99 l 103 443 b 39 565 103 526 39 524 b 83 613 39 586 50 597 b 289 681 140 639 265 681 b 324 633 314 681 324 664 l 322 443 l 322 276 b 417 124 322 181 344 124 b 544 308 483 125 544 200 l 544 443 b 479 565 544 526 479 524 b 524 613 479 586 490 597 b 729 681 581 639 707 681 b 764 633 754 681 764 664 "},"ü":{"ha":843,"x_min":0,"x_max":0,"o":"m 371 760 b 293 833 328 760 293 789 b 400 944 293 890 339 944 b 485 863 450 944 485 913 b 371 760 485 803 431 760 m 614 760 b 533 833 568 760 533 789 b 640 944 533 890 581 944 b 725 863 692 944 725 913 b 614 760 725 803 672 760 m 763 443 l 763 219 b 843 97 763 119 843 138 b 793 40 843 75 826 60 b 617 -12 749 18 658 -12 b 553 74 575 -12 557 10 l 551 100 b 338 -12 497 28 413 -12 b 104 268 182 -12 104 99 l 103 443 b 39 565 103 526 39 524 b 83 613 39 586 50 597 b 289 681 140 639 265 681 b 324 633 314 681 324 664 l 322 443 l 322 276 b 417 124 322 181 344 124 b 544 308 483 125 544 200 l 544 443 b 479 565 544 526 479 524 b 524 613 479 586 490 597 b 729 681 581 639 707 681 b 764 633 754 681 764 664 "},"ù":{"ha":843,"x_min":0,"x_max":0,"o":"m 617 775 b 356 874 544 749 383 794 b 404 981 338 925 361 965 b 533 926 442 994 488 964 b 636 808 581 885 628 833 b 617 775 642 793 636 782 m 763 443 l 763 219 b 843 97 763 119 843 138 b 793 40 843 75 826 60 b 617 -12 749 18 658 -12 b 553 74 575 -12 557 10 l 551 100 b 338 -12 497 28 413 -12 b 104 268 182 -12 104 99 l 103 443 b 39 565 103 526 39 524 b 83 613 39 586 50 597 b 289 681 140 639 265 681 b 324 633 314 681 324 664 l 322 443 l 322 276 b 417 124 322 181 344 124 b 544 308 483 125 544 200 l 544 443 b 479 565 544 526 479 524 b 524 613 479 586 490 597 b 729 681 581 639 707 681 b 764 633 754 681 764 664 "},"ű":{"ha":843,"x_min":0,"x_max":0,"o":"m 354 746 b 329 768 338 746 329 753 b 379 896 329 790 353 846 b 467 978 404 940 432 978 b 539 904 507 978 539 953 b 354 746 539 832 422 746 m 578 744 b 549 765 560 744 549 753 b 607 893 549 786 576 843 b 697 971 635 935 663 971 b 765 899 735 971 765 944 b 578 744 765 826 647 744 m 763 443 l 763 219 b 843 97 763 119 843 138 b 793 40 843 75 826 60 b 617 -12 749 18 658 -12 b 553 74 575 -12 557 10 l 551 100 b 338 -12 497 28 413 -12 b 104 268 182 -12 104 99 l 103 443 b 39 565 103 526 39 524 b 83 613 39 586 50 597 b 289 681 140 639 265 681 b 324 633 314 681 324 664 l 322 443 l 322 276 b 417 124 322 181 344 124 b 544 308 483 125 544 200 l 544 443 b 479 565 544 526 479 524 b 524 613 479 586 490 597 b 729 681 581 639 707 681 b 764 633 754 681 764 664 "},"ū":{"ha":843,"x_min":0,"x_max":0,"o":"m 319 764 b 260 810 263 764 254 771 b 335 865 268 858 274 865 l 647 865 b 714 819 711 865 721 857 b 632 764 708 769 701 764 m 763 443 l 763 219 b 843 97 763 119 843 138 b 793 40 843 75 826 60 b 617 -12 749 18 658 -12 b 553 74 575 -12 557 10 l 551 100 b 338 -12 497 28 413 -12 b 104 268 182 -12 104 99 l 103 443 b 39 565 103 526 39 524 b 83 613 39 586 50 597 b 289 681 140 639 265 681 b 324 633 314 681 324 664 l 322 443 l 322 276 b 417 124 322 181 344 124 b 544 308 483 125 544 200 l 544 443 b 479 565 544 526 479 524 b 524 613 479 586 490 597 b 729 681 581 639 707 681 b 764 633 754 681 764 664 "},"ģ":{"ha":806,"x_min":0,"x_max":0,"o":"m 418 744 b 321 858 364 744 321 776 b 464 1067 321 978 408 1067 b 488 1047 478 1067 488 1058 b 439 963 488 1028 439 1006 b 506 832 439 918 506 910 b 418 744 506 782 465 744 m 592 128 b 788 -40 718 128 788 58 b 378 -292 788 -194 615 -292 b 60 -128 232 -292 60 -246 b 144 -21 60 -85 92 -42 b 58 101 92 4 58 46 b 165 238 58 158 92 201 b 69 407 106 274 69 332 b 399 681 69 550 210 675 l 443 681 b 508 676 469 679 485 676 b 643 749 539 676 586 686 b 707 783 660 769 679 783 b 768 721 740 783 768 757 b 626 614 768 653 693 622 b 701 447 674 574 701 517 b 383 188 701 300 571 193 b 242 204 332 186 285 192 b 219 163 228 193 219 178 b 322 113 219 124 261 113 b 592 128 401 113 526 128 m 368 596 b 278 472 314 596 278 543 b 406 269 278 369 317 269 b 493 396 457 269 493 315 b 368 596 493 483 454 596 m 417 -199 b 597 -110 549 -199 597 -161 b 528 -60 597 -81 578 -58 b 300 -67 443 -60 383 -69 b 231 -118 265 -65 231 -78 b 417 -199 231 -172 303 -199 "},"ķ":{"ha":881,"x_min":0,"x_max":0,"o":"m 606 493 l 761 146 b 857 33 788 86 857 83 b 792 0 857 7 833 0 l 574 0 b 507 35 531 0 507 10 b 546 136 507 81 575 72 l 456 332 l 331 197 b 399 39 331 71 399 106 b 335 0 399 7 375 0 l 110 0 b 43 40 68 0 43 10 b 113 197 43 106 113 71 l 111 749 b 46 871 111 832 46 829 b 92 918 46 892 58 903 b 296 986 147 944 274 986 b 332 939 322 986 332 969 l 331 749 l 331 333 l 511 525 b 482 633 572 590 482 585 b 544 667 482 660 504 667 l 728 667 b 783 632 761 667 783 657 b 635 524 783 588 704 599 m 467 -65 b 564 -179 521 -65 564 -97 b 421 -387 564 -299 476 -387 b 397 -368 407 -387 397 -379 b 446 -283 397 -349 446 -326 b 379 -153 446 -239 379 -231 b 467 -65 379 -103 419 -65 "},"ļ":{"ha":440,"x_min":0,"x_max":0,"o":"m 111 749 b 46 871 111 832 46 829 b 92 918 46 892 58 903 b 296 986 147 944 274 986 b 332 939 322 986 332 969 l 331 749 l 331 197 b 399 39 331 71 399 106 b 335 0 399 7 375 0 l 110 0 b 43 40 68 0 43 10 b 113 197 43 106 113 71 m 167 -387 b 143 -368 153 -387 143 -379 b 192 -283 143 -349 192 -326 b 125 -153 192 -239 125 -231 b 213 -65 125 -103 165 -65 b 310 -179 267 -65 310 -97 b 167 -387 310 -299 222 -387 "},"ņ":{"ha":903,"x_min":0,"x_max":0,"o":"m 829 164 b 901 39 847 79 901 92 b 838 0 901 7 876 0 l 619 0 b 553 40 578 0 553 10 b 607 178 553 89 626 88 l 563 392 b 443 542 546 468 518 543 b 326 385 378 542 326 482 l 326 197 b 394 39 326 71 394 106 b 331 0 394 7 371 0 l 106 0 b 39 40 64 0 39 10 b 108 197 39 106 108 71 l 108 454 b 65 529 108 489 88 510 b 39 572 53 539 39 550 b 85 624 39 597 51 608 b 268 681 139 649 244 679 b 303 633 293 681 303 664 l 303 565 b 522 681 354 642 433 681 b 779 397 690 681 743 565 m 426 -65 b 524 -179 481 -65 524 -97 b 381 -387 524 -299 436 -387 b 357 -368 367 -387 357 -379 b 406 -283 357 -349 406 -326 b 339 -153 406 -239 339 -231 b 426 -65 339 -103 379 -65 "},"ŗ":{"ha":660,"x_min":0,"x_max":0,"o":"m 492 681 b 622 549 574 681 622 626 b 549 446 622 485 590 446 b 410 524 475 446 479 524 b 326 389 365 524 326 479 l 326 197 b 394 39 326 71 394 106 b 331 0 394 7 371 0 l 106 0 b 39 40 64 0 39 10 b 108 197 39 106 108 71 l 108 454 b 65 529 108 489 88 510 b 39 572 53 539 39 550 b 85 624 39 597 51 608 b 268 681 139 649 244 679 b 303 633 293 681 303 664 l 303 565 b 492 681 358 649 431 681 m 214 -65 b 311 -179 268 -65 311 -97 b 168 -387 311 -299 224 -387 b 144 -368 154 -387 144 -379 b 193 -283 144 -349 193 -326 b 126 -153 193 -239 126 -231 b 214 -65 126 -103 167 -65 "},"ţ":{"ha":561,"x_min":0,"x_max":0,"o":"m 490 172 b 533 140 519 192 543 171 b 311 -14 511 71 435 -14 l 308 -14 l 278 -69 b 408 -181 349 -81 408 -111 b 268 -300 408 -251 347 -300 b 147 -251 208 -300 167 -276 b 182 -221 129 -229 150 -201 b 236 -237 197 -231 215 -237 b 293 -187 274 -237 293 -214 b 204 -121 293 -142 242 -129 b 188 -93 190 -118 179 -108 l 236 -3 b 99 217 150 24 99 99 l 99 304 b 103 568 99 408 100 503 l 72 568 b 19 607 31 568 19 582 b 44 664 19 628 28 649 b 233 808 96 714 171 774 b 292 831 269 829 283 831 b 325 789 311 831 326 810 b 318 667 321 749 319 708 l 456 667 b 497 611 482 667 506 657 b 433 558 489 565 464 557 l 317 563 l 317 304 b 393 135 315 165 338 135 b 490 172 428 135 460 150 "},"ș":{"ha":731,"x_min":0,"x_max":0,"o":"m 161 -14 b 101 46 135 -14 121 -1 b 51 188 78 103 61 144 b 69 249 43 224 53 240 b 156 211 93 261 118 243 b 400 74 236 136 315 74 b 463 128 440 74 463 97 b 269 264 463 172 394 210 b 74 482 169 310 74 365 b 310 681 74 619 201 681 b 482 660 390 681 439 661 b 546 681 514 660 518 681 b 606 622 569 681 581 667 b 642 542 622 590 629 574 b 631 468 658 497 650 476 b 533 508 603 454 576 478 b 349 590 479 546 407 590 b 279 538 300 590 279 563 b 440 419 279 496 333 467 b 682 193 596 349 682 292 b 417 -14 682 64 560 -14 b 217 15 299 -14 247 15 b 161 -14 197 15 189 -14 m 290 -387 b 267 -368 276 -387 267 -379 b 315 -283 267 -349 315 -326 b 249 -153 315 -239 249 -231 b 336 -65 249 -103 289 -65 b 433 -179 390 -65 433 -97 b 290 -387 433 -299 346 -387 "},"ț":{"ha":561,"x_min":0,"x_max":0,"o":"m 490 172 b 533 140 519 192 543 171 b 311 -14 511 71 435 -14 b 99 217 181 -14 99 67 l 99 304 b 103 568 99 408 100 503 l 72 568 b 19 607 31 568 19 582 b 44 664 19 628 28 649 b 233 808 96 714 171 774 b 292 831 269 829 283 831 b 325 789 311 831 326 810 b 318 667 321 749 319 708 l 456 667 b 497 611 482 667 506 657 b 433 558 489 565 464 557 l 317 563 l 317 304 b 393 135 315 165 338 135 b 490 172 428 135 460 150 m 260 -65 b 357 -179 314 -65 357 -97 b 214 -387 357 -299 269 -387 b 190 -368 200 -387 190 -379 b 239 -283 190 -349 239 -326 b 172 -153 239 -239 172 -231 b 260 -65 172 -103 213 -65 "},"ų":{"ha":843,"x_min":0,"x_max":0,"o":"m 849 -135 b 875 -176 886 -117 897 -151 b 747 -229 847 -207 800 -229 b 607 -108 663 -229 607 -179 b 649 -8 607 -75 621 -40 b 617 -12 636 -11 625 -12 b 553 74 575 -12 557 10 l 551 100 b 338 -12 497 28 413 -12 b 104 268 182 -12 104 99 l 103 443 b 39 565 103 526 39 524 b 83 613 39 586 50 597 b 289 681 140 639 265 681 b 324 633 314 681 324 664 l 322 443 l 322 276 b 417 124 322 181 344 124 b 544 308 483 125 544 200 l 544 443 b 479 565 544 526 479 524 b 524 613 479 586 490 597 b 729 681 581 639 707 681 b 764 633 754 681 764 664 l 763 443 l 763 219 b 843 97 763 119 843 138 b 793 40 843 75 826 60 b 788 38 792 39 790 39 b 735 -81 749 -11 735 -50 b 800 -147 735 -117 756 -147 b 849 -135 814 -147 831 -143 "},"ů":{"ha":843,"x_min":0,"x_max":0,"o":"m 489 718 b 336 864 401 718 336 776 b 494 1014 336 954 406 1014 b 647 868 581 1014 647 957 b 489 718 647 776 576 718 m 489 932 b 431 867 450 932 428 906 b 494 804 435 829 460 804 b 551 871 533 804 554 833 b 489 932 547 907 524 932 m 763 443 l 763 219 b 843 97 763 119 843 138 b 793 40 843 75 826 60 b 617 -12 749 18 658 -12 b 553 74 575 -12 557 10 l 551 100 b 338 -12 497 28 413 -12 b 104 268 182 -12 104 99 l 103 443 b 39 565 103 526 39 524 b 83 613 39 586 50 597 b 289 681 140 639 265 681 b 324 633 314 681 324 664 l 322 443 l 322 276 b 417 124 322 181 344 124 b 544 308 483 125 544 200 l 544 443 b 479 565 544 526 479 524 b 524 613 479 586 490 597 b 729 681 581 639 707 681 b 764 633 754 681 764 664 "},"v":{"ha":790,"x_min":0,"x_max":0,"o":"m 710 667 b 776 628 753 667 776 657 b 672 478 776 567 717 593 l 521 72 b 418 0 507 35 497 18 b 294 35 332 -21 310 -6 l 119 478 b 14 628 75 593 14 567 b 78 667 14 660 39 667 l 317 667 b 385 628 360 667 385 657 b 351 478 385 567 307 593 l 465 186 l 572 476 b 539 628 614 593 539 567 b 603 667 539 660 563 667 "},"w":{"ha":1221,"x_min":0,"x_max":0,"o":"m 1139 669 b 1207 629 1182 669 1207 660 b 1097 482 1207 569 1147 594 l 910 49 b 826 0 900 29 890 11 b 740 25 769 -10 751 -3 l 604 385 l 476 49 b 400 0 468 29 443 11 b 306 25 336 -15 317 -3 l 121 481 b 14 631 74 594 14 569 b 78 669 14 663 39 669 l 319 669 b 388 629 363 669 388 660 b 356 481 388 569 308 594 l 451 246 l 592 618 b 651 665 600 638 608 656 b 739 639 710 679 729 667 l 894 244 l 996 482 b 968 631 1044 594 968 569 b 1032 669 968 663 992 669 "},"":{"ha":1221,"x_min":0,"x_max":0,"o":"m 1032 669 b 968 631 992 669 968 663 b 996 482 968 569 1044 594 l 894 244 l 739 639 b 651 665 729 667 710 679 b 592 618 608 656 600 638 l 451 246 l 356 481 b 388 629 308 594 388 569 b 319 669 388 660 363 669 l 78 669 b 14 631 39 669 14 663 b 121 481 14 569 74 594 l 306 25 b 400 0 317 -3 336 -15 b 476 49 443 11 468 29 l 604 385 l 740 25 b 826 0 751 -3 769 -10 b 910 49 890 11 900 29 l 1097 482 b 1207 629 1147 594 1207 569 b 1139 669 1207 660 1182 669 "},"ẃ":{"ha":1221,"x_min":0,"x_max":0,"o":"m 615 775 b 596 808 596 782 590 793 b 700 926 604 833 651 885 b 829 981 744 964 790 994 b 876 874 871 965 894 925 b 615 775 849 794 688 749 m 1139 669 b 1207 629 1182 669 1207 660 b 1097 482 1207 569 1147 594 l 910 49 b 826 0 900 29 890 11 b 740 25 769 -10 751 -3 l 604 385 l 476 49 b 400 0 468 29 443 11 b 306 25 336 -15 317 -3 l 121 481 b 14 631 74 594 14 569 b 78 669 14 663 39 669 l 319 669 b 388 629 363 669 388 660 b 356 481 388 569 308 594 l 451 246 l 592 618 b 651 665 600 638 608 656 b 739 639 710 679 729 667 l 894 244 l 996 482 b 968 631 1044 594 968 569 b 1032 669 968 663 992 669 "},"ŵ":{"ha":1221,"x_min":0,"x_max":0,"o":"m 560 744 b 535 767 543 744 535 753 b 603 883 535 789 569 840 b 725 974 650 947 669 974 b 849 889 794 974 797 957 b 919 767 882 844 919 789 b 894 744 919 753 913 744 b 728 851 850 743 781 800 b 560 744 674 800 604 743 m 1139 669 b 1207 629 1182 669 1207 660 b 1097 482 1207 569 1147 594 l 910 49 b 826 0 900 29 890 11 b 740 25 769 -10 751 -3 l 604 385 l 476 49 b 400 0 468 29 443 11 b 306 25 336 -15 317 -3 l 121 481 b 14 631 74 594 14 569 b 78 669 14 663 39 669 l 319 669 b 388 629 363 669 388 660 b 356 481 388 569 308 594 l 451 246 l 592 618 b 651 665 600 638 608 656 b 739 639 710 679 729 667 l 894 244 l 996 482 b 968 631 1044 594 968 569 b 1032 669 968 663 992 669 "},"ẅ":{"ha":1221,"x_min":0,"x_max":0,"o":"m 590 760 b 513 833 547 760 513 789 b 619 944 513 890 558 944 b 704 863 669 944 704 913 b 590 760 704 803 650 760 m 833 760 b 753 833 788 760 753 789 b 860 944 753 890 800 944 b 944 863 911 944 944 913 b 833 760 944 803 892 760 m 1139 669 b 1207 629 1182 669 1207 660 b 1097 482 1207 569 1147 594 l 910 49 b 826 0 900 29 890 11 b 740 25 769 -10 751 -3 l 604 385 l 476 49 b 400 0 468 29 443 11 b 306 25 336 -15 317 -3 l 121 481 b 14 631 74 594 14 569 b 78 669 14 663 39 669 l 319 669 b 388 629 363 669 388 660 b 356 481 388 569 308 594 l 451 246 l 592 618 b 651 665 600 638 608 656 b 739 639 710 679 729 667 l 894 244 l 996 482 b 968 631 1044 594 968 569 b 1032 669 968 663 992 669 "},"ẁ":{"ha":1221,"x_min":0,"x_max":0,"o":"m 836 775 b 575 874 764 749 603 794 b 624 981 557 925 581 965 b 753 926 661 994 707 964 b 856 808 800 885 847 833 b 836 775 861 793 856 782 m 1139 669 b 1207 629 1182 669 1207 660 b 1097 482 1207 569 1147 594 l 910 49 b 826 0 900 29 890 11 b 740 25 769 -10 751 -3 l 604 385 l 476 49 b 400 0 468 29 443 11 b 306 25 336 -15 317 -3 l 121 481 b 14 631 74 594 14 569 b 78 669 14 663 39 669 l 319 669 b 388 629 363 669 388 660 b 356 481 388 569 308 594 l 451 246 l 592 618 b 651 665 600 638 608 656 b 739 639 710 679 729 667 l 894 244 l 996 482 b 968 631 1044 594 968 569 b 1032 669 968 663 992 669 "},"x":{"ha":844,"x_min":0,"x_max":0,"o":"m 546 360 l 686 175 b 818 39 761 76 818 100 b 754 0 818 7 793 0 l 474 0 b 406 40 431 0 406 10 b 413 175 406 100 488 76 l 356 250 l 299 175 b 304 39 222 76 304 100 b 240 0 304 7 279 0 l 113 0 b 44 40 69 0 44 10 b 179 174 44 100 100 78 l 300 324 l 172 492 b 40 628 97 590 40 567 b 104 667 40 660 65 667 l 386 667 b 453 628 428 667 453 657 b 446 492 453 567 371 590 l 488 438 l 535 494 b 532 628 615 589 532 567 b 596 667 532 660 557 667 l 724 667 b 792 628 767 667 792 657 b 657 494 792 567 736 589 "},"y":{"ha":825,"x_min":0,"x_max":0,"o":"m 744 667 b 813 628 788 667 813 657 b 707 478 813 567 751 593 l 535 33 b 206 -292 456 -169 388 -292 b 22 -149 119 -292 22 -246 b 121 -40 22 -94 57 -40 b 279 -186 214 -40 199 -186 b 354 -76 321 -186 354 -139 b 336 8 354 -50 347 -22 l 149 478 b 43 628 104 593 43 567 b 107 667 43 660 68 667 l 346 667 b 414 628 389 667 414 657 b 381 478 414 567 336 593 l 496 182 l 606 478 b 574 628 650 593 574 567 b 638 667 574 660 599 667 "},"":{"ha":825,"x_min":0,"x_max":0,"o":"m 638 667 b 574 628 599 667 574 660 b 606 478 574 567 650 593 l 496 182 l 381 478 b 414 628 336 593 414 567 b 346 667 414 657 389 667 l 107 667 b 43 628 68 667 43 660 b 149 478 43 567 104 593 l 336 8 b 354 -76 347 -22 354 -50 b 279 -186 354 -139 321 -186 b 121 -40 199 -186 214 -40 b 22 -149 57 -40 22 -94 b 206 -292 22 -246 119 -292 b 535 33 388 -292 456 -169 l 707 478 b 813 628 751 593 813 567 b 744 667 813 657 788 667 "},"ý":{"ha":825,"x_min":0,"x_max":0,"o":"m 353 775 b 333 808 333 782 328 793 b 438 926 342 833 389 885 b 567 981 482 964 528 994 b 614 874 608 965 632 925 b 353 775 586 794 425 749 m 744 667 b 813 628 788 667 813 657 b 707 478 813 567 751 593 l 535 33 b 206 -292 456 -169 388 -292 b 22 -149 119 -292 22 -246 b 121 -40 22 -94 57 -40 b 279 -186 214 -40 199 -186 b 354 -76 321 -186 354 -139 b 336 8 354 -50 347 -22 l 149 478 b 43 628 104 593 43 567 b 107 667 43 660 68 667 l 346 667 b 414 628 389 667 414 657 b 381 478 414 567 336 593 l 496 182 l 606 478 b 574 628 650 593 574 567 b 638 667 574 660 599 667 "},"ŷ":{"ha":825,"x_min":0,"x_max":0,"o":"m 297 744 b 272 767 281 744 272 753 b 340 883 272 789 307 840 b 463 974 388 947 407 974 b 586 889 532 974 535 957 b 657 767 619 844 657 789 b 632 744 657 753 650 744 b 465 851 588 743 518 800 b 297 744 411 800 342 743 m 744 667 b 813 628 788 667 813 657 b 707 478 813 567 751 593 l 535 33 b 206 -292 456 -169 388 -292 b 22 -149 119 -292 22 -246 b 121 -40 22 -94 57 -40 b 279 -186 214 -40 199 -186 b 354 -76 321 -186 354 -139 b 336 8 354 -50 347 -22 l 149 478 b 43 628 104 593 43 567 b 107 667 43 660 68 667 l 346 667 b 414 628 389 667 414 657 b 381 478 414 567 336 593 l 496 182 l 606 478 b 574 628 650 593 574 567 b 638 667 574 660 599 667 "},"ÿ":{"ha":825,"x_min":0,"x_max":0,"o":"m 328 760 b 250 833 285 760 250 789 b 357 944 250 890 296 944 b 442 863 407 944 442 913 b 328 760 442 803 388 760 m 571 760 b 490 833 525 760 490 789 b 597 944 490 890 538 944 b 682 863 649 944 682 913 b 571 760 682 803 629 760 m 744 667 b 813 628 788 667 813 657 b 707 478 813 567 751 593 l 535 33 b 206 -292 456 -169 388 -292 b 22 -149 119 -292 22 -246 b 121 -40 22 -94 57 -40 b 279 -186 214 -40 199 -186 b 354 -76 321 -186 354 -139 b 336 8 354 -50 347 -22 l 149 478 b 43 628 104 593 43 567 b 107 667 43 660 68 667 l 346 667 b 414 628 389 667 414 657 b 381 478 414 567 336 593 l 496 182 l 606 478 b 574 628 650 593 574 567 b 638 667 574 660 599 667 "},"ỳ":{"ha":825,"x_min":0,"x_max":0,"o":"m 574 775 b 313 874 501 749 340 794 b 361 981 294 925 318 965 b 490 926 399 994 444 964 b 593 808 538 885 585 833 b 574 775 599 793 593 782 m 744 667 b 813 628 788 667 813 657 b 707 478 813 567 751 593 l 535 33 b 206 -292 456 -169 388 -292 b 22 -149 119 -292 22 -246 b 121 -40 22 -94 57 -40 b 279 -186 214 -40 199 -186 b 354 -76 321 -186 354 -139 b 336 8 354 -50 347 -22 l 149 478 b 43 628 104 593 43 567 b 107 667 43 660 68 667 l 346 667 b 414 628 389 667 414 657 b 381 478 414 567 336 593 l 496 182 l 606 478 b 574 628 650 593 574 567 b 638 667 574 660 599 667 "},"z":{"ha":735,"x_min":0,"x_max":0,"o":"m 681 254 b 696 193 704 247 700 222 b 667 65 690 146 679 106 b 593 0 653 24 636 0 l 63 0 b 29 64 21 0 3 28 l 400 567 l 314 567 b 100 456 218 567 149 503 b 39 436 81 438 58 426 b 26 500 17 446 19 472 b 75 615 39 539 56 576 b 150 667 94 654 107 667 l 654 667 b 688 603 697 667 714 639 l 317 100 l 429 100 b 624 222 525 100 581 164 b 681 254 639 244 660 260 "},"ź":{"ha":735,"x_min":0,"x_max":0,"o":"m 313 775 b 293 808 293 782 288 793 b 397 926 301 833 349 885 b 526 981 442 964 488 994 b 574 874 568 965 592 925 b 313 775 546 794 385 749 m 681 254 b 696 193 704 247 700 222 b 667 65 690 146 679 106 b 593 0 653 24 636 0 l 63 0 b 29 64 21 0 3 28 l 400 567 l 314 567 b 100 456 218 567 149 503 b 39 436 81 438 58 426 b 26 500 17 446 19 472 b 75 615 39 539 56 576 b 150 667 94 654 107 667 l 654 667 b 688 603 697 667 714 639 l 317 100 l 429 100 b 624 222 525 100 581 164 b 681 254 639 244 660 260 "},"ž":{"ha":735,"x_min":0,"x_max":0,"o":"m 422 800 b 300 890 367 800 347 826 b 232 1007 267 933 232 985 b 257 1029 232 1021 240 1029 b 425 922 301 1029 371 974 b 592 1029 478 974 547 1029 b 617 1007 610 1029 617 1021 b 546 885 617 985 579 929 b 422 800 494 817 492 800 m 681 254 b 696 193 704 247 700 222 b 667 65 690 146 679 106 b 593 0 653 24 636 0 l 63 0 b 29 64 21 0 3 28 l 400 567 l 314 567 b 100 456 218 567 149 503 b 39 436 81 438 58 426 b 26 500 17 446 19 472 b 75 615 39 539 56 576 b 150 667 94 654 107 667 l 654 667 b 688 603 697 667 714 639 l 317 100 l 429 100 b 624 222 525 100 581 164 b 681 254 639 244 660 260 "},"ż":{"ha":735,"x_min":0,"x_max":0,"o":"m 386 743 b 292 835 325 743 290 786 b 450 982 292 907 371 983 b 550 888 506 982 550 942 b 386 743 549 810 467 743 m 681 254 b 696 193 704 247 700 222 b 667 65 690 146 679 106 b 593 0 653 24 636 0 l 63 0 b 29 64 21 0 3 28 l 400 567 l 314 567 b 100 456 218 567 149 503 b 39 436 81 438 58 426 b 26 500 17 446 19 472 b 75 615 39 539 56 576 b 150 667 94 654 107 667 l 654 667 b 688 603 697 667 714 639 l 317 100 l 429 100 b 624 222 525 100 581 164 b 681 254 639 244 660 260 "},"ª":{"ha":542,"x_min":0,"x_max":0,"o":"m 511 635 b 526 618 521 635 526 628 b 429 554 526 585 472 554 b 349 618 392 554 364 572 b 194 554 304 571 246 554 b 39 679 103 554 39 607 b 243 822 39 763 111 822 b 300 819 258 822 272 822 b 206 906 286 865 265 906 b 106 874 172 906 135 889 b 82 900 89 863 68 876 b 258 986 104 939 172 986 b 428 832 376 986 407 901 l 472 681 b 511 635 481 650 490 633 m 254 622 b 332 685 297 622 339 651 b 314 746 329 697 322 719 b 256 774 307 765 285 774 b 167 703 201 774 167 746 b 254 622 168 657 203 622 "},"º":{"ha":538,"x_min":0,"x_max":0,"o":"m 249 553 b 44 753 135 553 44 629 b 289 986 44 882 150 986 b 493 783 411 986 493 897 b 249 553 493 651 389 553 m 290 617 b 358 715 343 617 358 667 b 246 922 358 811 314 922 b 178 815 192 922 178 867 b 290 617 178 719 224 617 "},"А":{"ha":1015,"x_min":0,"x_max":0,"o":"m 247 183 b 283 42 204 79 283 96 b 214 1 283 8 253 1 l 83 1 b 4 42 35 1 4 10 b 122 183 4 96 83 86 l 365 783 b 319 931 403 878 319 874 b 367 972 319 960 339 972 l 539 972 b 599 932 568 972 586 960 l 892 192 b 994 44 939 78 994 101 b 918 0 994 11 975 0 l 664 0 b 592 44 614 0 592 11 b 644 192 592 103 688 82 l 632 224 b 447 268 614 268 614 268 b 267 231 282 268 282 268 m 449 369 b 560 407 574 369 574 369 l 450 690 l 340 415 b 449 369 322 369 322 369 "},"Б":{"ha":922,"x_min":0,"x_max":0,"o":"m 442 656 b 885 310 710 656 885 511 b 454 0 885 99 733 0 l 115 0 b 33 44 56 0 33 11 b 129 258 33 128 129 67 l 129 714 b 33 928 129 906 33 844 b 115 972 33 961 56 972 l 675 972 b 797 921 756 972 781 964 b 835 779 811 883 824 836 b 811 703 842 738 839 711 b 740 740 785 693 765 704 b 536 872 683 828 625 872 l 465 872 b 358 815 378 872 358 853 l 358 682 b 386 654 358 664 368 653 b 442 656 404 656 421 656 m 443 96 b 653 290 576 96 653 171 b 396 563 653 460 529 563 b 358 525 368 564 358 554 l 358 143 b 443 96 358 107 389 96 "},"В":{"ha":929,"x_min":0,"x_max":0,"o":"m 674 585 b 899 322 824 549 899 449 b 476 0 899 142 750 0 l 115 0 b 33 44 56 0 33 11 b 129 258 33 128 129 67 l 129 714 b 33 928 129 906 33 844 b 115 972 33 961 56 972 l 428 972 b 794 763 632 972 792 924 b 674 585 796 681 753 618 m 358 653 b 426 621 358 618 401 621 b 571 731 519 621 571 657 b 406 872 571 806 508 872 b 358 833 381 872 358 863 m 474 100 b 650 278 593 100 650 157 b 407 515 650 404 564 515 b 358 475 369 515 358 506 l 358 197 b 474 100 358 129 375 100 "},"Г":{"ha":817,"x_min":0,"x_max":0,"o":"m 833 779 b 811 703 842 738 838 711 b 739 740 783 693 764 704 b 536 872 682 828 624 872 l 465 872 b 358 815 378 872 358 853 l 358 247 b 451 44 358 78 451 119 b 369 0 451 11 432 0 l 115 0 b 33 44 56 0 33 11 b 129 247 33 119 129 78 l 129 714 b 33 928 129 906 33 844 b 115 972 33 961 56 972 l 674 972 b 796 921 754 972 781 964 b 833 779 810 883 822 836 "},"Ґ":{"ha":819,"x_min":0,"x_max":0,"o":"m 811 1142 b 833 1064 838 1133 842 1107 b 796 924 822 1008 810 961 b 674 872 781 881 754 872 l 465 872 b 358 815 378 872 358 853 l 358 247 b 451 44 358 78 451 119 b 369 0 451 11 432 0 l 115 0 b 33 44 56 0 33 11 b 129 247 33 119 129 78 l 129 714 b 33 928 129 906 33 844 b 115 972 33 961 56 972 l 536 972 b 739 1103 624 972 682 1017 b 811 1142 764 1139 783 1151 "},"Д":{"ha":1101,"x_min":0,"x_max":0,"o":"m 1082 -139 b 1044 -207 1083 -182 1075 -207 b 979 -158 1010 -207 996 -190 b 815 0 929 -60 894 0 l 279 0 b 115 -158 199 0 165 -60 b 50 -208 99 -190 83 -208 b 13 -139 19 -208 11 -182 b 35 38 15 -60 24 -3 b 139 100 46 83 69 100 b 210 147 185 100 192 104 b 331 790 301 365 331 625 b 233 926 331 878 233 861 b 313 972 233 960 251 972 l 925 972 b 1006 928 983 972 1006 961 b 911 714 1006 844 911 906 l 911 163 b 958 101 911 107 917 101 b 1060 38 1025 101 1047 83 b 1082 -139 1071 -3 1079 -60 m 681 101 l 681 815 b 571 872 681 853 660 872 b 444 814 504 872 447 865 b 321 100 424 511 406 354 "},"Е":{"ha":876,"x_min":0,"x_max":0,"o":"m 794 314 b 829 242 828 306 831 285 b 807 63 826 160 818 103 b 689 0 794 18 771 0 l 115 0 b 33 44 56 0 33 11 b 129 258 33 128 129 67 l 129 714 b 33 928 129 906 33 844 b 115 972 33 961 56 972 l 663 972 b 785 921 744 972 769 964 b 822 779 799 883 811 836 b 800 703 831 738 826 711 b 729 740 772 693 753 704 b 525 872 671 828 613 872 l 465 872 b 358 808 378 872 358 853 l 358 678 b 446 610 358 622 389 610 l 449 610 b 600 658 550 610 549 658 b 644 618 631 658 639 640 l 681 440 b 653 372 692 392 682 379 b 449 511 579 357 569 511 l 446 511 b 358 443 389 511 358 500 l 358 164 b 476 100 358 119 378 100 l 563 101 b 728 261 647 101 678 160 b 794 314 751 308 771 319 "},"Ё":{"ha":876,"x_min":0,"x_max":0,"o":"m 343 1057 b 267 1131 301 1057 267 1086 b 374 1242 267 1188 311 1242 b 457 1160 424 1242 457 1210 b 343 1057 457 1099 404 1057 m 586 1057 b 507 1131 542 1057 507 1086 b 614 1242 507 1188 554 1242 b 699 1160 664 1242 699 1210 b 586 1057 699 1099 646 1057 m 794 314 b 829 242 828 306 831 285 b 807 63 826 160 818 103 b 689 0 794 18 771 0 l 115 0 b 33 44 56 0 33 11 b 129 258 33 128 129 67 l 129 714 b 33 928 129 906 33 844 b 115 972 33 961 56 972 l 663 972 b 785 921 744 972 769 964 b 822 779 799 883 811 836 b 800 703 831 738 826 711 b 729 740 772 693 753 704 b 525 872 671 828 613 872 l 465 872 b 358 808 378 872 358 853 l 358 678 b 446 610 358 622 389 610 l 449 610 b 600 658 550 610 549 658 b 644 618 631 658 639 640 l 681 440 b 653 372 692 392 682 379 b 449 511 579 357 569 511 l 446 511 b 358 443 389 511 358 500 l 358 164 b 476 100 358 119 378 100 l 563 101 b 728 261 647 101 678 160 b 794 314 751 308 771 319 "},"Ж":{"ha":1522,"x_min":0,"x_max":0,"o":"m 1174 713 l 1403 215 b 1528 47 1463 90 1528 117 b 1449 3 1528 14 1508 3 l 1206 3 b 1125 47 1147 3 1125 14 b 1165 199 1125 101 1206 111 l 1004 556 l 881 442 l 881 247 b 961 44 881 78 961 119 b 881 0 961 11 942 0 l 649 0 b 568 44 590 0 568 11 b 651 247 568 119 651 78 l 651 447 l 535 556 l 372 199 b 414 47 333 111 414 101 b 332 3 414 14 392 3 l 89 3 b 10 47 29 3 10 14 b 135 215 10 117 76 90 l 365 713 l 276 794 b 113 928 169 892 113 863 b 196 972 113 961 140 972 l 406 972 b 468 928 449 972 468 961 b 443 796 468 875 361 871 l 651 604 l 651 725 b 571 928 651 894 571 853 b 651 972 571 961 590 972 l 883 972 b 964 928 942 972 964 961 b 881 725 964 853 881 894 l 881 599 l 1096 796 b 1069 928 1178 871 1069 875 b 1133 972 1069 961 1089 972 l 1343 972 b 1425 928 1399 972 1425 961 b 1263 794 1425 863 1368 892 "},"З":{"ha":881,"x_min":0,"x_max":0,"o":"m 550 536 b 801 275 696 503 801 404 b 372 -14 801 82 625 -14 b 238 3 317 -14 286 -8 b 113 118 171 21 133 44 b 90 261 104 147 94 176 b 125 310 89 290 99 313 b 183 250 146 307 164 290 b 413 86 238 143 324 86 b 564 258 508 86 564 158 b 318 483 564 389 492 479 b 318 582 258 485 251 576 b 511 781 458 596 511 688 b 411 886 511 839 472 886 b 222 738 321 886 265 806 b 153 674 193 692 181 674 b 121 742 124 674 119 699 b 143 914 124 799 133 860 b 201 986 157 974 176 986 b 275 964 232 986 239 964 b 446 986 306 964 364 986 b 750 765 635 986 747 900 b 550 536 751 664 667 574 "},"И":{"ha":1132,"x_min":0,"x_max":0,"o":"m 115 0 b 33 44 56 0 33 11 b 125 189 33 110 111 94 b 129 244 128 208 129 225 l 129 728 b 125 783 129 747 128 764 b 36 928 111 888 36 856 b 118 972 36 961 56 972 l 372 972 b 454 928 432 972 454 961 b 363 783 454 863 376 879 b 358 728 360 764 358 747 l 358 363 l 750 747 b 767 799 764 761 772 778 b 681 928 751 881 681 868 b 763 972 681 961 700 972 l 1017 972 b 1099 928 1076 972 1099 961 b 1007 783 1099 863 1021 879 b 1003 728 1004 764 1003 747 l 1003 244 b 1007 189 1003 225 1004 208 b 1096 44 1021 85 1096 117 b 1014 0 1096 11 1076 0 l 760 0 b 678 44 700 0 678 11 b 769 189 678 110 756 94 b 774 244 772 208 774 225 l 774 639 l 381 253 b 363 200 365 239 358 222 b 451 44 383 94 451 106 b 369 0 451 11 432 0 "},"Й":{"ha":1132,"x_min":0,"x_max":0,"o":"m 554 1042 b 303 1197 413 1042 303 1097 b 368 1260 303 1236 335 1260 b 553 1117 451 1260 463 1117 b 738 1260 642 1117 653 1260 b 803 1197 772 1260 803 1233 b 554 1042 803 1094 675 1042 m 115 0 b 33 44 56 0 33 11 b 125 189 33 110 111 94 b 129 244 128 208 129 225 l 129 728 b 125 783 129 747 128 764 b 36 928 111 888 36 856 b 118 972 36 961 56 972 l 372 972 b 454 928 432 972 454 961 b 363 783 454 863 376 879 b 358 728 360 764 358 747 l 358 363 l 750 747 b 767 799 764 761 772 778 b 681 928 751 881 681 868 b 763 972 681 961 700 972 l 1017 972 b 1099 928 1076 972 1099 961 b 1007 783 1099 863 1021 879 b 1003 728 1004 764 1003 747 l 1003 244 b 1007 189 1003 225 1004 208 b 1096 44 1021 85 1096 117 b 1014 0 1096 11 1076 0 l 760 0 b 678 44 700 0 678 11 b 769 189 678 110 756 94 b 774 244 772 208 774 225 l 774 639 l 381 253 b 363 200 365 239 358 222 b 451 44 383 94 451 106 b 369 0 451 11 432 0 "},"К":{"ha":1061,"x_min":0,"x_max":0,"o":"m 711 713 l 942 213 b 1067 44 1000 88 1067 114 b 988 0 1067 11 1047 0 l 744 0 b 663 44 685 0 663 11 b 704 197 663 99 743 108 l 542 556 l 358 385 l 358 247 b 451 44 358 78 451 119 b 369 0 451 11 432 0 l 115 0 b 33 44 56 0 33 11 b 129 247 33 119 129 78 l 129 725 b 36 928 129 894 36 853 b 118 972 36 961 56 972 l 372 972 b 454 928 432 972 454 961 b 358 725 454 853 358 894 l 358 526 l 649 794 b 624 928 731 871 624 875 b 686 972 624 961 643 972 l 881 972 b 964 928 936 972 964 961 b 800 794 964 863 906 893 "},"Л":{"ha":1068,"x_min":0,"x_max":0,"o":"m 163 -14 b 15 114 107 -14 15 15 b 99 214 15 174 56 214 b 219 131 176 214 168 131 b 358 790 304 131 358 575 b 271 938 358 886 271 889 b 340 972 271 963 293 972 l 943 972 b 1014 938 990 972 1014 963 b 943 807 1014 892 943 888 l 943 249 b 1035 44 943 78 1035 119 b 954 0 1035 13 1015 0 l 699 0 b 618 44 640 0 618 13 b 713 249 618 119 713 78 l 713 815 b 597 872 713 853 690 872 b 471 814 529 872 474 865 b 336 67 456 569 439 210 b 163 -14 296 11 242 -14 "},"М":{"ha":1267,"x_min":0,"x_max":0,"o":"m 1135 219 b 1235 44 1140 88 1235 129 b 1154 0 1235 11 1215 0 l 910 0 b 829 44 851 0 829 11 b 910 219 829 122 911 94 l 901 694 l 625 100 b 568 56 613 74 600 63 b 510 82 536 49 518 61 l 254 686 l 239 178 b 308 40 236 90 308 90 b 244 1 308 8 288 1 l 107 1 b 39 42 56 1 39 11 b 122 178 39 88 118 90 l 151 779 b 68 928 156 879 68 863 b 140 972 68 961 89 972 l 326 972 b 388 933 356 972 375 960 l 628 378 l 888 932 b 949 972 901 960 919 972 l 1125 972 b 1199 928 1176 972 1199 961 b 1115 779 1199 863 1111 881 "},"Н":{"ha":1129,"x_min":0,"x_max":0,"o":"m 1001 247 b 1093 44 1001 78 1093 119 b 1013 0 1093 11 1074 0 l 757 0 b 676 44 699 0 676 11 b 771 247 676 119 771 78 l 771 408 b 565 464 771 464 771 464 b 358 408 358 464 358 464 l 358 247 b 451 44 358 78 451 119 b 369 0 451 11 432 0 l 115 0 b 33 44 56 0 33 11 b 129 247 33 119 129 78 l 129 725 b 36 928 129 894 36 853 b 118 972 36 961 56 972 l 372 972 b 454 928 432 972 454 961 b 358 725 454 853 358 894 l 358 622 b 567 567 358 567 358 567 b 771 622 771 567 771 567 l 771 725 b 679 928 771 894 679 853 b 760 972 679 961 699 972 l 1015 972 b 1096 928 1074 972 1096 961 b 1001 725 1096 853 1001 894 "},"О":{"ha":1097,"x_min":0,"x_max":0,"o":"m 518 -14 b 56 450 258 -14 56 176 b 576 986 56 746 279 986 b 1038 510 856 986 1038 779 b 518 -14 1038 213 818 -14 m 596 110 b 815 392 754 110 815 233 b 504 875 815 618 696 875 b 281 588 351 875 281 744 b 596 110 281 364 399 110 "},"П":{"ha":1076,"x_min":0,"x_max":0,"o":"m 947 249 b 1040 44 947 78 1040 119 b 958 0 1040 13 1021 0 l 703 0 b 622 44 644 0 622 13 b 717 249 622 119 717 78 l 717 808 b 542 871 717 853 689 871 b 358 808 379 871 358 853 l 358 249 b 451 44 358 78 451 119 b 369 0 451 13 432 0 l 115 0 b 33 44 56 0 33 13 b 129 249 33 119 129 78 l 129 714 b 33 928 129 906 33 844 b 115 972 33 961 56 972 l 961 972 b 1043 928 1021 972 1043 961 b 947 714 1043 844 947 906 "},"Р":{"ha":926,"x_min":0,"x_max":0,"o":"m 438 972 b 906 600 731 972 906 826 b 478 289 906 389 756 289 l 386 289 b 358 261 367 289 358 286 l 358 247 b 451 44 358 78 451 119 b 369 0 451 11 432 0 l 115 0 b 33 44 56 0 33 11 b 129 247 33 119 129 78 l 129 714 b 33 928 129 906 33 844 b 115 972 33 961 56 972 m 465 385 b 675 581 599 385 675 460 b 435 879 675 776 554 879 b 358 842 364 879 358 871 l 358 432 b 465 385 358 397 386 385 "},"С":{"ha":982,"x_min":0,"x_max":0,"o":"m 543 -14 b 56 468 263 -14 56 168 b 569 986 56 753 279 986 b 739 961 658 986 708 961 b 819 985 775 961 783 985 b 879 913 844 985 861 972 b 924 714 896 858 911 797 b 886 643 929 671 922 646 b 810 710 854 640 842 664 b 553 885 744 804 663 885 b 290 569 389 885 290 753 b 621 129 290 338 407 129 b 883 256 724 129 806 174 b 939 207 919 294 961 253 b 543 -14 882 79 725 -14 "},"Т":{"ha":908,"x_min":0,"x_max":0,"o":"m 569 247 b 663 44 569 78 663 119 b 581 0 663 11 643 0 l 326 0 b 244 44 267 0 244 11 b 340 247 244 119 340 78 l 340 807 b 283 864 340 844 322 864 b 119 713 200 864 171 813 b 67 663 104 681 89 663 b 29 731 36 663 28 688 b 51 910 32 813 40 869 b 169 972 64 954 88 972 l 739 972 b 857 910 822 972 846 954 b 879 731 868 869 876 813 b 842 663 881 689 872 663 b 789 713 819 663 806 681 b 625 865 739 813 708 865 b 569 807 589 865 569 844 "},"У":{"ha":958,"x_min":0,"x_max":0,"o":"m 858 972 b 938 932 907 972 938 964 b 815 790 938 878 858 886 l 592 294 b 296 -14 486 63 411 -14 b 138 118 229 -14 138 22 b 221 210 138 168 178 210 b 339 135 299 210 288 135 b 432 240 368 135 399 169 b 431 260 435 247 433 254 l 119 815 b 17 939 81 886 17 890 b 81 972 17 965 40 972 l 349 972 b 417 938 393 972 417 963 b 382 815 417 892 343 886 l 561 489 l 692 790 b 658 932 738 894 658 878 b 728 972 658 965 689 972 "},"Ф":{"ha":1203,"x_min":0,"x_max":0,"o":"m 472 0 b 390 44 413 0 390 11 b 485 163 390 103 485 89 b 472 179 485 175 483 181 b 399 176 436 176 413 176 b 43 490 196 176 43 307 b 379 789 43 671 190 789 b 475 782 404 789 433 788 b 489 797 486 781 490 786 b 393 928 476 885 393 865 b 475 972 393 961 413 972 l 731 972 b 811 928 789 972 811 961 b 714 800 811 865 725 885 b 726 785 713 789 715 783 b 822 789 771 788 797 789 b 1158 490 1018 789 1158 668 b 804 176 1158 304 1003 176 b 729 178 788 176 767 175 b 717 163 718 179 717 174 b 808 44 717 88 808 101 b 728 0 808 11 789 0 m 440 264 b 486 269 451 264 474 265 l 486 697 b 440 703 472 701 456 703 b 261 478 321 703 261 604 b 440 264 261 349 335 264 m 763 264 b 940 478 867 264 940 351 b 763 703 940 603 882 703 b 717 699 747 703 729 701 l 717 267 b 763 264 735 264 750 264 "},"Х":{"ha":1064,"x_min":0,"x_max":0,"o":"m 644 525 l 904 174 b 1038 40 976 76 1038 96 b 968 0 1038 7 1010 0 l 678 0 b 610 42 635 0 610 10 b 621 174 610 96 692 79 l 464 386 l 314 175 b 322 40 242 75 322 94 b 253 0 322 7 292 0 l 106 0 b 25 40 57 0 25 8 b 179 175 25 94 113 82 l 397 478 l 161 799 b 28 932 89 896 28 876 b 96 972 28 965 56 972 l 388 972 b 454 931 431 972 454 963 b 443 799 454 876 374 893 l 578 617 l 707 797 b 699 932 779 897 699 878 b 768 972 699 965 729 972 l 917 972 b 996 932 965 972 996 964 b 840 797 996 878 908 890 "},"Ч":{"ha":1063,"x_min":0,"x_max":0,"o":"m 935 247 b 1026 44 935 78 1026 119 b 946 0 1026 11 1007 0 l 690 0 b 610 44 632 0 610 11 b 704 247 610 119 704 78 l 704 367 b 443 339 596 349 493 339 b 106 672 156 339 106 508 l 107 722 b 14 925 107 892 14 850 b 96 969 14 958 33 969 l 351 969 b 432 925 410 969 432 958 b 336 722 432 850 338 892 l 336 701 b 499 442 335 556 351 442 b 704 465 551 442 636 454 l 704 725 b 613 928 704 894 613 853 b 693 972 613 961 632 972 l 949 972 b 1029 928 1007 972 1029 961 b 935 725 1029 853 935 894 "},"Ц":{"ha":1149,"x_min":0,"x_max":0,"o":"m 1128 -139 b 1090 -207 1129 -182 1122 -207 b 1026 -158 1057 -207 1042 -190 b 861 0 976 -60 942 0 l 115 0 b 33 44 56 0 33 11 b 129 258 33 128 129 67 l 129 725 b 36 928 129 894 36 853 b 118 972 36 961 56 972 l 372 972 b 454 928 432 972 454 961 b 358 725 454 853 358 894 l 358 164 b 536 101 358 119 386 101 b 717 164 697 101 717 119 l 717 725 b 625 928 717 894 625 853 b 706 972 625 961 644 972 l 961 972 b 1043 928 1021 972 1043 961 b 947 725 1043 853 947 894 l 947 163 b 1004 101 947 122 967 101 b 1107 38 1071 101 1094 83 b 1128 -139 1118 -3 1125 -60 "},"Ш":{"ha":1497,"x_min":0,"x_max":0,"o":"m 1369 258 b 1464 44 1369 67 1464 128 b 1383 0 1464 11 1442 0 l 115 0 b 33 44 56 0 33 11 b 129 258 33 128 129 67 l 129 725 b 36 928 129 894 36 853 b 118 972 36 961 56 972 l 372 972 b 454 928 432 972 454 961 b 358 725 454 853 358 894 l 358 164 b 494 101 358 119 386 101 b 633 164 614 101 633 119 l 633 725 b 554 928 633 894 554 853 b 635 972 554 961 574 972 l 865 972 b 947 928 925 972 947 961 b 864 725 947 853 864 894 l 864 164 b 1000 101 864 119 892 101 b 1139 164 1118 101 1139 119 l 1139 725 b 1047 928 1139 894 1047 853 b 1128 972 1047 961 1067 972 l 1383 972 b 1464 928 1442 972 1464 961 b 1369 725 1464 853 1369 894 "},"Щ":{"ha":1569,"x_min":0,"x_max":0,"o":"m 1550 -139 b 1513 -207 1551 -182 1543 -207 b 1446 -158 1478 -207 1463 -190 b 1282 0 1397 -60 1363 0 l 115 0 b 33 44 56 0 33 11 b 129 258 33 128 129 67 l 129 725 b 36 928 129 894 36 853 b 118 972 36 961 56 972 l 372 972 b 454 928 432 972 454 961 b 358 725 454 853 358 894 l 358 164 b 494 101 358 119 386 101 b 633 164 614 101 633 119 l 633 725 b 554 928 633 894 554 853 b 635 972 554 961 574 972 l 865 972 b 947 928 925 972 947 961 b 864 725 947 853 864 894 l 864 164 b 1000 101 864 119 892 101 b 1139 164 1118 101 1139 119 l 1139 725 b 1047 928 1139 894 1047 853 b 1128 972 1047 961 1067 972 l 1383 972 b 1464 928 1442 972 1464 961 b 1369 725 1464 853 1369 894 l 1369 163 b 1425 101 1369 122 1389 101 b 1528 38 1493 101 1517 83 b 1550 -139 1539 -3 1547 -60 "},"Ь":{"ha":953,"x_min":0,"x_max":0,"o":"m 442 656 b 885 310 710 656 885 511 b 454 0 885 99 733 0 l 115 0 b 33 44 56 0 33 11 b 129 258 33 128 129 67 l 129 725 b 36 928 129 894 36 853 b 118 972 36 961 56 972 l 372 972 b 454 928 432 972 454 961 b 358 725 454 853 358 894 l 358 682 b 386 654 358 664 368 653 b 442 656 404 656 421 656 m 443 96 b 653 290 576 96 653 171 b 396 563 653 460 529 563 b 358 525 368 564 358 554 l 358 143 b 443 96 358 107 389 96 "},"Ы":{"ha":1342,"x_min":0,"x_max":0,"o":"m 442 656 b 885 310 710 656 885 511 b 454 0 885 99 733 0 l 115 0 b 33 44 56 0 33 11 b 129 258 33 128 129 67 l 129 725 b 36 928 129 894 36 853 b 118 972 36 961 56 972 l 372 972 b 454 928 432 972 454 961 b 358 725 454 853 358 894 l 358 682 b 386 654 358 664 368 653 b 442 656 404 656 421 656 m 1214 247 b 1306 44 1214 78 1306 119 b 1225 0 1306 11 1286 0 l 969 0 b 889 44 911 0 889 11 b 983 247 889 119 983 78 l 983 725 b 892 928 983 894 892 853 b 972 972 892 961 911 972 l 1228 972 b 1308 928 1286 972 1308 961 b 1214 725 1308 853 1214 894 m 443 96 b 653 290 576 96 653 171 b 396 563 653 460 529 563 b 358 525 368 564 358 554 l 358 143 b 443 96 358 107 389 96 "},"Ъ":{"ha":1318,"x_min":0,"x_max":0,"o":"m 599 656 b 1042 310 867 656 1042 511 b 613 0 1042 99 890 0 l 272 0 b 190 44 213 0 190 11 b 286 258 190 128 286 67 l 286 801 b 229 872 286 856 263 872 b 89 707 171 872 139 808 b 38 658 74 675 60 658 b 1 726 7 658 -1 683 b 24 910 4 808 13 869 b 153 972 33 949 56 972 l 531 972 b 611 928 589 972 611 961 b 517 714 611 844 517 906 l 517 682 b 544 654 517 664 526 653 b 599 656 561 656 579 656 m 600 96 b 810 290 735 96 810 171 b 554 563 810 460 686 563 b 517 525 525 564 517 554 l 517 143 b 600 96 517 107 547 96 "},"Є":{"ha":967,"x_min":0,"x_max":0,"o":"m 874 254 b 921 194 917 286 944 247 b 529 -14 865 72 729 -14 b 56 468 263 -14 56 168 b 569 986 56 753 289 986 b 749 961 658 986 718 961 b 822 985 785 961 792 985 b 882 913 847 985 869 972 b 908 713 893 858 906 797 b 876 644 911 669 907 644 b 804 711 849 644 833 663 b 551 885 749 801 675 885 b 290 569 388 885 290 753 l 290 568 b 399 535 343 540 372 535 b 604 618 483 535 522 618 b 822 469 689 618 822 529 b 781 432 822 454 813 432 b 639 483 743 432 700 483 b 460 406 571 483 540 406 b 300 458 408 406 354 426 b 617 157 335 282 450 157 b 874 254 724 157 796 194 "},"Э":{"ha":979,"x_min":0,"x_max":0,"o":"m 401 986 b 919 531 735 986 919 794 b 389 -12 919 213 701 -14 b 199 13 318 -12 246 1 b 74 128 132 31 94 54 b 50 271 65 157 56 186 b 88 319 49 300 63 322 b 161 247 110 317 128 297 b 424 88 218 163 300 88 b 674 463 625 88 674 324 l 674 464 b 504 406 617 429 558 406 b 325 483 424 406 393 483 b 183 432 264 483 221 432 b 142 469 151 432 142 454 b 360 618 142 529 275 618 b 565 535 442 618 481 535 b 668 565 590 535 619 540 b 410 888 643 785 535 888 b 158 711 289 888 214 801 b 90 644 129 663 118 644 b 57 713 60 644 56 669 b 82 913 58 797 71 858 b 142 985 94 972 117 985 b 215 961 172 985 179 961 b 401 986 246 961 307 986 "},"І":{"ha":488,"x_min":0,"x_max":0,"o":"m 129 725 b 36 928 129 894 36 853 b 118 972 36 961 56 972 l 372 972 b 454 928 432 972 454 961 b 358 725 454 853 358 894 l 358 247 b 451 44 358 78 451 119 b 369 0 451 11 432 0 l 115 0 b 33 44 56 0 33 11 b 129 247 33 119 129 78 "},"Ї":{"ha":488,"x_min":0,"x_max":0,"o":"m 154 1057 b 78 1131 113 1057 78 1086 b 185 1242 78 1188 122 1242 b 268 1160 235 1242 268 1210 b 154 1057 268 1099 215 1057 m 397 1057 b 318 1131 353 1057 318 1086 b 425 1242 318 1188 365 1242 b 510 1160 475 1242 510 1210 b 397 1057 510 1099 457 1057 m 129 725 b 36 928 129 894 36 853 b 118 972 36 961 56 972 l 372 972 b 454 928 432 972 454 961 b 358 725 454 853 358 894 l 358 247 b 451 44 358 78 451 119 b 369 0 451 11 432 0 l 115 0 b 33 44 56 0 33 11 b 129 247 33 119 129 78 "},"Ю":{"ha":1549,"x_min":0,"x_max":0,"o":"m 1026 986 b 1488 510 1307 986 1488 779 b 968 -14 1488 213 1269 -14 b 506 440 713 -14 511 172 l 358 440 l 358 247 b 451 44 358 78 451 119 b 369 0 451 11 432 0 l 115 0 b 33 44 56 0 33 11 b 129 247 33 119 129 78 l 129 725 b 36 928 129 894 36 853 b 118 972 36 961 56 972 l 372 972 b 454 928 432 972 454 961 b 358 725 454 853 358 894 l 358 542 l 513 542 b 1026 986 554 794 761 986 m 1046 110 b 1265 392 1206 110 1265 233 b 956 875 1265 618 1146 875 b 732 588 801 875 732 744 b 1046 110 732 364 849 110 "},"Я":{"ha":982,"x_min":0,"x_max":0,"o":"m 853 249 b 949 44 853 78 949 119 b 867 0 949 13 926 0 l 611 0 b 531 44 550 0 531 13 b 622 249 531 119 622 78 l 622 281 b 594 308 622 304 614 308 l 526 308 b 458 311 503 308 479 310 l 397 197 b 424 44 354 113 424 99 b 357 0 424 11 401 0 l 125 0 b 46 44 65 0 46 11 b 165 190 46 113 110 90 l 261 367 b 113 621 163 421 113 511 b 568 972 113 828 275 972 l 867 972 b 949 928 926 972 949 961 b 853 714 949 844 853 906 m 622 832 b 593 869 622 861 614 867 b 540 875 575 874 557 875 b 343 657 415 875 343 799 b 539 404 343 519 419 404 b 622 451 592 404 622 415 "},"а":{"ha":817,"x_min":0,"x_max":0,"o":"m 790 117 b 815 90 806 118 815 107 b 660 -11 815 38 728 -11 b 531 89 600 -11 556 18 b 283 -11 460 17 367 -11 b 35 189 136 -11 35 74 b 361 419 35 321 150 419 b 453 413 386 419 408 417 b 301 551 429 488 396 551 b 142 500 247 551 188 525 b 104 543 115 483 82 504 b 385 681 140 606 249 681 b 657 433 575 681 624 546 l 728 192 b 790 117 742 143 757 115 m 379 99 b 503 199 449 99 514 144 b 474 294 500 218 488 253 b 382 340 463 326 428 340 b 240 226 294 340 240 294 b 379 99 240 153 296 99 "},"б":{"ha":806,"x_min":0,"x_max":0,"o":"m 474 682 b 761 357 658 682 761 539 b 421 -14 761 144 599 -14 b 36 433 213 -14 36 111 b 260 919 36 663 110 840 b 486 972 333 961 413 967 b 647 1008 563 978 608 982 b 708 1040 682 1029 686 1039 b 751 993 726 1043 751 1032 b 622 814 751 919 699 853 b 360 771 538 772 444 793 b 207 503 243 744 208 636 b 474 682 251 624 356 682 m 431 86 b 544 289 518 86 546 188 b 397 560 544 419 499 560 b 274 356 314 560 274 467 b 431 86 274 222 326 86 "},"в":{"ha":776,"x_min":0,"x_max":0,"o":"m 576 372 b 738 193 692 342 738 268 b 415 0 738 58 614 0 l 107 0 b 38 40 63 0 38 10 b 103 149 38 89 90 79 b 107 196 106 164 107 179 l 107 471 b 103 519 107 488 106 503 b 38 626 90 588 38 578 b 107 667 38 657 63 667 l 394 667 b 689 514 569 667 688 624 b 576 372 690 449 642 397 m 331 432 b 375 400 331 400 351 400 b 486 478 447 400 486 421 b 383 576 486 542 435 576 b 331 535 336 576 331 572 m 396 89 b 517 188 478 89 517 114 b 374 319 517 265 461 319 l 353 319 b 331 294 338 319 331 313 l 331 156 b 396 89 331 96 338 89 "},"г":{"ha":671,"x_min":0,"x_max":0,"o":"m 643 493 b 617 421 649 450 644 426 b 558 465 592 417 578 436 b 386 571 500 550 469 571 l 382 571 b 325 518 342 571 325 564 l 325 197 b 393 39 325 71 393 106 b 329 0 393 7 369 0 l 106 0 b 38 40 63 0 38 10 b 107 197 38 106 107 71 l 107 471 b 103 519 107 488 106 503 b 38 626 90 588 38 578 b 107 667 38 657 63 667 l 490 667 b 615 615 585 667 601 653 b 643 493 631 574 639 528 "},"ґ":{"ha":671,"x_min":0,"x_max":0,"o":"m 617 817 b 643 744 644 811 649 789 b 615 622 639 710 631 664 b 490 571 601 586 585 571 l 382 571 b 325 506 331 571 325 550 l 325 197 b 393 39 325 71 393 106 b 329 0 393 7 369 0 l 106 0 b 38 40 63 0 38 10 b 107 197 38 106 107 71 l 107 471 b 103 519 107 488 106 503 b 38 626 90 588 38 578 b 107 667 38 657 63 667 l 386 667 b 558 772 469 667 500 688 b 617 817 578 801 592 822 "},"д":{"ha":819,"x_min":0,"x_max":0,"o":"m 39 -176 b 1 -107 11 -176 0 -150 b 18 29 3 -51 7 -12 b 108 90 26 67 46 86 b 140 113 125 92 135 99 b 210 485 193 239 210 390 b 124 632 210 581 124 583 b 194 667 124 657 147 667 l 694 667 b 764 632 742 667 764 657 b 694 501 764 586 694 582 l 694 118 b 721 90 694 101 703 92 b 803 29 778 85 794 65 b 819 -107 814 -12 817 -51 b 782 -176 821 -150 810 -176 b 728 -126 763 -176 743 -158 b 571 0 685 -43 679 0 l 250 0 b 93 -126 142 0 135 -43 b 39 -176 76 -158 58 -176 m 476 92 l 476 532 b 397 575 476 571 468 575 b 308 532 319 575 311 571 b 249 92 294 333 278 208 "},"е":{"ha":750,"x_min":0,"x_max":0,"o":"m 668 229 b 714 189 699 258 728 232 b 378 -14 688 107 568 -14 b 44 314 179 -14 44 121 b 407 681 44 529 219 681 b 692 456 582 681 675 574 b 660 403 694 435 683 414 b 290 243 522 336 426 296 b 474 140 319 189 376 140 b 668 229 554 140 618 182 m 338 576 b 246 422 279 563 246 504 b 258 333 246 393 251 356 b 449 408 322 356 388 379 b 483 469 472 419 496 428 b 338 576 461 547 400 593 "},"ё":{"ha":750,"x_min":0,"x_max":0,"o":"m 249 760 b 171 833 206 760 171 789 b 278 944 171 890 217 944 b 363 863 328 944 363 913 b 249 760 363 803 308 760 m 492 760 b 411 833 446 760 411 789 b 518 944 411 890 458 944 b 603 863 569 944 603 913 b 492 760 603 803 550 760 m 668 229 b 714 189 699 258 728 232 b 378 -14 688 107 568 -14 b 44 314 179 -14 44 121 b 407 681 44 529 219 681 b 692 456 582 681 675 574 b 660 403 694 435 683 414 b 290 243 522 336 426 296 b 474 140 319 189 376 140 b 668 229 554 140 618 182 m 338 576 b 246 422 279 563 246 504 b 258 333 246 393 251 356 b 449 408 322 356 388 379 b 483 469 472 419 496 428 b 338 576 461 547 400 593 "},"ж":{"ha":1299,"x_min":0,"x_max":0,"o":"m 1025 493 l 1179 146 b 1275 33 1206 86 1275 83 b 1211 0 1275 7 1251 0 l 993 0 b 925 35 949 0 925 10 b 964 136 925 81 994 72 l 875 332 l 760 208 l 760 197 b 828 39 760 71 828 106 b 764 0 828 7 804 0 l 539 0 b 472 40 497 0 472 10 b 542 197 472 106 542 71 l 542 214 l 431 332 l 342 136 b 381 35 311 72 381 81 b 313 0 381 10 357 0 l 94 0 b 31 33 54 0 31 7 b 126 146 31 83 100 86 l 281 493 l 251 524 b 103 632 183 599 103 588 b 160 667 103 657 126 667 l 343 667 b 404 633 382 667 404 660 b 375 525 404 585 315 590 l 542 349 l 542 469 b 472 628 542 596 472 561 b 536 667 472 660 497 667 l 761 667 b 828 628 804 667 828 657 b 760 469 828 561 760 596 l 760 344 l 931 525 b 901 633 990 590 901 585 b 963 667 901 660 924 667 l 1146 667 b 1203 632 1179 667 1203 657 b 1054 524 1203 588 1122 599 "},"з":{"ha":636,"x_min":0,"x_max":0,"o":"m 428 368 b 585 197 546 346 585 269 b 313 -11 585 68 474 -11 b 36 122 193 -11 78 42 b 82 163 15 165 50 190 b 253 99 129 125 190 99 b 371 199 318 99 371 125 b 211 315 371 271 311 307 b 213 392 157 322 158 383 b 357 511 314 406 357 451 b 272 585 357 551 326 585 b 138 507 214 585 171 553 b 74 453 110 469 97 453 b 46 511 50 453 44 474 b 65 619 47 546 53 574 b 114 681 79 669 94 681 b 181 663 140 681 147 663 b 340 681 221 663 253 681 b 557 529 450 681 556 636 b 428 368 558 453 503 389 "},"и":{"ha":899,"x_min":0,"x_max":0,"o":"m 106 0 b 38 40 63 0 38 10 b 103 149 38 89 90 79 b 107 196 106 164 107 179 l 107 471 b 103 519 107 488 106 503 b 38 628 89 588 38 575 b 101 667 38 660 63 667 l 326 667 b 393 628 369 667 393 657 b 329 519 393 578 340 588 b 325 471 326 503 325 488 l 325 296 l 557 472 b 571 508 572 485 574 488 b 506 628 554 599 506 571 b 569 667 506 660 531 667 l 794 667 b 861 628 838 667 861 657 b 797 519 861 578 808 588 b 793 471 794 503 793 488 l 793 196 b 797 149 793 179 794 164 b 861 39 811 79 861 92 b 797 0 861 7 838 0 l 574 0 b 506 40 531 0 506 10 b 571 149 506 89 558 79 b 575 196 574 164 575 179 l 575 369 l 343 193 b 328 158 328 182 326 179 b 393 39 346 68 393 96 b 329 0 393 7 369 0 "},"й":{"ha":899,"x_min":0,"x_max":0,"o":"m 453 736 b 201 892 311 736 201 792 b 267 954 201 931 233 954 b 451 811 350 954 361 811 b 636 954 540 811 551 954 b 701 892 671 954 701 928 b 453 736 701 789 574 736 m 106 0 b 38 40 63 0 38 10 b 103 149 38 89 90 79 b 107 196 106 164 107 179 l 107 471 b 103 519 107 488 106 503 b 38 628 89 588 38 575 b 101 667 38 660 63 667 l 326 667 b 393 628 369 667 393 657 b 329 519 393 578 340 588 b 325 471 326 503 325 488 l 325 296 l 557 472 b 571 508 572 485 574 488 b 506 628 554 599 506 571 b 569 667 506 660 531 667 l 794 667 b 861 628 838 667 861 657 b 797 519 861 578 808 588 b 793 471 794 503 793 488 l 793 196 b 797 149 793 179 794 164 b 861 39 811 79 861 92 b 797 0 861 7 838 0 l 574 0 b 506 40 531 0 506 10 b 571 149 506 89 558 79 b 575 196 574 164 575 179 l 575 369 l 343 193 b 328 158 328 182 326 179 b 393 39 346 68 393 96 b 329 0 393 7 369 0 "},"к":{"ha":879,"x_min":0,"x_max":0,"o":"m 607 490 l 760 146 b 856 33 786 86 856 83 b 792 0 856 7 832 0 l 574 0 b 506 35 529 0 506 10 b 544 136 506 81 575 72 l 456 329 l 325 188 b 393 39 328 72 393 104 b 329 0 393 7 369 0 l 106 0 b 38 40 63 0 38 10 b 107 197 38 106 107 71 l 107 469 b 38 628 107 596 38 561 b 101 667 38 660 63 667 l 326 667 b 394 628 369 667 394 657 b 325 469 394 561 325 596 l 325 324 l 514 525 b 485 633 575 590 485 585 b 546 667 485 660 507 667 l 731 667 b 786 632 763 667 786 657 b 638 524 786 588 707 599 "},"л":{"ha":842,"x_min":0,"x_max":0,"o":"m 128 -14 b -3 97 81 -14 -3 10 b 72 186 -3 150 33 186 b 176 115 142 186 133 115 b 251 489 232 115 251 372 b 167 632 251 581 167 583 b 235 667 167 657 189 667 l 733 667 b 804 632 781 667 804 657 b 733 506 804 586 733 582 l 733 197 b 803 39 733 71 803 106 b 739 0 803 7 778 0 l 514 0 b 446 40 471 0 446 10 b 515 197 446 106 515 71 l 515 524 b 438 567 515 563 508 567 b 349 524 361 567 351 563 b 294 118 336 332 322 196 b 128 -14 265 17 200 -14 "},"м":{"ha":1000,"x_min":0,"x_max":0,"o":"m 901 197 b 971 39 903 71 971 106 b 907 0 971 7 947 0 l 682 0 b 615 40 640 0 615 10 b 683 197 615 106 685 71 l 682 436 l 524 99 b 463 51 513 75 489 58 b 378 68 428 40 390 44 l 210 431 l 200 165 b 263 35 196 72 263 83 b 200 1 263 8 239 1 l 99 1 b 32 36 56 1 32 11 b 107 165 32 82 103 72 l 121 492 b 46 633 124 583 46 586 b 111 667 46 658 69 667 l 301 667 b 347 638 324 667 338 658 l 508 289 l 675 638 b 721 667 685 660 699 667 l 903 667 b 968 633 944 667 968 658 b 897 492 968 586 896 583 "},"н":{"ha":889,"x_min":0,"x_max":0,"o":"m 783 197 b 851 39 783 71 851 106 b 788 0 851 7 828 0 l 564 0 b 496 40 521 0 496 10 b 565 197 496 106 565 71 l 565 242 b 444 285 565 285 565 285 b 325 242 325 285 325 285 l 325 197 b 393 39 325 71 393 106 b 329 0 393 7 369 0 l 106 0 b 38 40 63 0 38 10 b 107 197 38 106 107 71 l 107 469 b 38 628 107 596 38 561 b 101 667 38 660 63 667 l 326 667 b 394 628 369 667 394 657 b 325 469 394 561 325 596 l 325 418 b 446 376 325 376 325 376 b 565 418 565 376 565 376 l 565 469 b 496 628 565 596 496 561 b 560 667 496 660 521 667 l 785 667 b 853 628 828 667 853 657 b 783 469 853 561 783 596 "},"о":{"ha":807,"x_min":0,"x_max":0,"o":"m 371 -14 b 44 307 188 -14 44 110 b 436 681 44 514 213 681 b 761 356 631 681 761 539 b 371 -14 761 144 596 -14 m 439 90 b 547 246 522 90 547 168 b 367 579 547 400 476 579 b 257 407 279 579 257 489 b 439 90 257 254 331 90 "},"п":{"ha":886,"x_min":0,"x_max":0,"o":"m 781 197 b 849 39 781 71 849 106 b 785 0 849 7 825 0 l 561 0 b 493 40 518 0 493 10 b 563 197 493 106 563 71 l 563 524 b 453 575 563 569 551 575 b 325 524 338 575 325 569 l 325 197 b 393 39 325 71 393 106 b 329 0 393 7 369 0 l 106 0 b 38 40 63 0 38 10 b 107 197 38 106 107 71 l 107 471 b 103 519 107 488 106 503 b 38 626 90 588 38 578 b 107 667 38 657 63 667 l 781 667 b 850 626 825 667 850 657 b 785 519 850 578 797 588 b 781 471 782 503 781 488 "},"р":{"ha":847,"x_min":0,"x_max":0,"o":"m 521 681 b 803 361 669 681 803 567 b 493 -14 803 97 625 -14 b 319 36 425 -14 365 10 l 319 -81 b 389 -239 319 -207 389 -172 b 325 -278 389 -271 364 -278 l 100 -278 b 32 -239 57 -278 32 -268 b 101 -81 32 -172 101 -207 l 101 456 b 58 529 101 490 82 511 b 32 574 47 540 32 551 b 78 624 32 599 44 608 b 261 681 133 650 239 681 b 296 633 286 681 296 664 l 296 568 b 521 681 340 629 411 681 m 475 85 b 593 271 563 85 593 189 b 439 553 593 419 539 553 b 319 382 371 553 318 482 l 321 294 b 475 85 324 163 396 85 "},"с":{"ha":747,"x_min":0,"x_max":0,"o":"m 385 -14 b 44 313 164 -14 44 143 b 413 681 44 526 213 681 b 699 449 585 681 699 572 b 597 342 699 375 649 342 b 493 438 532 342 507 383 b 367 579 469 522 428 579 b 254 419 296 579 254 517 b 482 142 254 256 343 142 b 657 217 564 142 610 178 b 703 176 689 244 717 221 b 385 -14 676 96 574 -14 "},"т":{"ha":742,"x_min":0,"x_max":0,"o":"m 260 0 b 192 40 217 0 192 10 b 257 149 192 89 244 79 b 261 196 260 164 261 179 l 261 547 b 217 574 261 565 251 574 b 107 460 165 574 146 544 b 53 415 92 428 72 415 b 22 472 25 415 21 440 b 40 604 24 524 29 563 b 167 667 50 647 72 667 l 575 667 b 703 604 669 667 692 647 b 719 472 714 563 718 524 b 689 415 721 440 717 415 b 635 460 669 415 650 428 b 524 574 594 546 575 574 b 479 547 489 574 479 565 l 479 196 b 483 149 479 179 481 164 b 549 39 497 79 549 92 b 485 0 549 7 524 0 "},"у":{"ha":825,"x_min":0,"x_max":0,"o":"m 744 667 b 813 628 788 667 813 657 b 707 478 813 567 751 593 l 535 33 b 206 -292 456 -169 388 -292 b 22 -149 119 -292 22 -246 b 121 -40 22 -94 57 -40 b 279 -186 214 -40 199 -186 b 354 -76 321 -186 354 -139 b 336 8 354 -50 347 -22 l 149 478 b 43 628 104 593 43 567 b 107 667 43 660 68 667 l 346 667 b 414 628 389 667 414 657 b 381 478 414 567 336 593 l 496 182 l 606 478 b 574 628 650 593 574 567 b 638 667 574 660 599 667 "},"ф":{"ha":1188,"x_min":0,"x_max":0,"o":"m 885 681 b 1143 361 1028 681 1143 571 b 865 -14 1142 99 1004 -14 b 704 56 790 -14 740 15 l 704 -79 b 772 -239 704 -207 772 -171 b 708 -276 772 -269 749 -276 l 483 -276 b 417 -237 442 -276 417 -268 b 486 -79 417 -171 486 -207 l 486 58 b 321 -14 449 17 397 -14 b 44 310 206 -14 44 58 b 326 681 44 528 158 681 b 485 613 382 681 443 656 l 485 767 b 419 889 485 850 419 847 b 465 936 419 910 432 921 b 671 1004 521 963 647 1004 b 706 957 696 1004 706 988 l 704 767 l 704 607 b 885 681 753 653 822 681 m 485 421 b 378 561 485 517 425 561 b 272 338 294 561 272 456 b 396 113 272 200 313 113 b 485 232 453 113 485 163 m 921 322 b 801 557 922 457 885 557 b 704 419 753 557 704 515 l 704 231 b 811 111 704 161 751 111 b 921 322 894 111 919 200 "},"х":{"ha":844,"x_min":0,"x_max":0,"o":"m 546 360 l 686 175 b 818 39 761 76 818 100 b 754 0 818 7 793 0 l 474 0 b 406 40 431 0 406 10 b 413 175 406 100 488 76 l 356 250 l 299 175 b 304 39 222 76 304 100 b 240 0 304 7 279 0 l 113 0 b 44 40 69 0 44 10 b 179 174 44 100 100 78 l 300 324 l 172 492 b 40 628 97 590 40 567 b 104 667 40 660 65 667 l 386 667 b 453 628 428 667 453 657 b 446 492 453 567 371 590 l 488 438 l 535 494 b 532 628 615 589 532 567 b 596 667 532 660 557 667 l 724 667 b 792 628 767 667 792 657 b 657 494 792 567 736 589 "},"ч":{"ha":842,"x_min":0,"x_max":0,"o":"m 736 197 b 804 39 736 71 804 106 b 740 0 804 7 781 0 l 517 0 b 449 40 474 0 449 10 b 518 197 449 106 518 71 l 518 246 b 331 222 467 232 403 222 b 97 421 211 222 97 265 l 97 467 b 28 626 97 594 28 558 b 92 664 28 657 53 664 l 317 664 b 383 625 360 664 383 656 b 314 467 383 558 318 593 l 314 463 b 415 315 311 399 314 315 b 518 331 458 315 486 319 l 518 469 b 449 628 518 596 449 561 b 513 667 449 660 474 667 l 738 667 b 806 628 781 667 806 657 b 736 469 806 561 736 596 "},"ц":{"ha":918,"x_min":0,"x_max":0,"o":"m 868 -176 b 815 -126 849 -176 831 -158 b 657 0 772 -43 765 0 l 107 0 b 38 40 63 0 38 10 b 107 196 38 99 107 82 l 107 469 b 38 628 107 596 38 561 b 101 667 38 660 63 667 l 326 667 b 394 628 369 667 394 657 b 325 469 394 561 325 596 l 325 135 b 433 93 325 106 338 93 b 563 135 550 93 563 104 l 563 469 b 493 628 563 596 493 561 b 557 667 493 660 518 667 l 782 667 b 850 628 825 667 850 657 b 781 469 850 561 781 596 l 781 128 b 818 89 781 99 785 94 b 889 29 867 82 882 63 b 906 -107 900 -12 904 -51 b 868 -176 907 -150 897 -176 "},"ш":{"ha":1254,"x_min":0,"x_max":0,"o":"m 1151 149 b 1217 40 1164 79 1217 89 b 1147 0 1217 10 1192 0 l 107 0 b 38 40 63 0 38 10 b 103 149 38 89 90 79 b 107 196 106 164 107 179 l 107 469 b 38 628 107 596 38 561 b 101 667 38 660 63 667 l 326 667 b 394 628 369 667 394 657 b 325 469 394 561 325 596 l 325 146 b 417 93 325 103 338 93 b 518 146 506 93 518 106 l 518 469 b 461 628 518 596 461 561 b 525 667 461 660 486 667 l 726 667 b 793 628 768 667 793 657 b 736 469 793 561 736 596 l 736 146 b 829 93 736 103 750 93 b 929 146 918 93 929 106 l 929 469 b 861 628 929 596 861 561 b 925 667 861 660 885 667 l 1150 667 b 1217 628 1192 667 1217 657 b 1147 469 1217 561 1147 596 l 1147 196 b 1151 149 1147 179 1149 164 "},"щ":{"ha":1333,"x_min":0,"x_max":0,"o":"m 1283 -176 b 1229 -126 1264 -176 1246 -158 b 1072 0 1188 -43 1181 0 l 107 0 b 38 40 63 0 38 10 b 107 196 38 99 107 79 l 107 469 b 38 628 107 596 38 561 b 101 667 38 660 63 667 l 326 667 b 394 628 369 667 394 657 b 325 469 394 561 325 596 l 325 129 b 417 93 325 101 338 93 b 518 129 506 93 518 104 l 518 469 b 461 628 518 596 461 561 b 525 667 461 660 486 667 l 726 667 b 793 628 768 667 793 657 b 736 469 793 561 736 596 l 736 129 b 829 93 736 101 750 93 b 929 129 918 93 929 104 l 929 469 b 861 628 929 596 861 561 b 925 667 861 660 885 667 l 1150 667 b 1217 628 1192 667 1217 657 b 1147 469 1217 561 1147 596 l 1147 132 b 1190 92 1147 96 1151 92 b 1304 29 1269 89 1293 75 b 1321 -107 1315 -12 1319 -51 b 1283 -176 1322 -150 1311 -176 "},"ь":{"ha":760,"x_min":0,"x_max":0,"o":"m 465 421 b 738 219 661 421 738 324 b 415 0 738 58 614 0 l 107 0 b 38 40 63 0 38 10 b 103 149 38 89 90 79 b 107 196 106 164 107 179 l 107 469 b 38 628 107 596 38 561 b 101 667 38 660 63 667 l 326 667 b 394 628 369 667 394 657 b 325 469 394 561 325 596 l 325 438 b 354 411 325 418 335 410 b 465 421 386 418 421 421 m 396 89 b 518 189 478 89 518 114 b 382 325 518 271 467 325 l 357 325 b 331 299 339 325 331 318 l 331 156 b 396 89 331 110 343 89 "},"ы":{"ha":1125,"x_min":0,"x_max":0,"o":"m 465 421 b 738 219 661 421 738 324 b 415 0 738 58 614 0 l 107 0 b 38 40 63 0 38 10 b 103 149 38 89 90 79 b 107 196 106 164 107 179 l 107 469 b 38 628 107 596 38 561 b 101 667 38 660 63 667 l 326 667 b 394 628 369 667 394 657 b 325 469 394 561 325 596 l 325 438 b 354 411 325 418 335 410 b 465 421 386 418 421 421 m 1019 197 b 1088 39 1019 71 1088 106 b 1024 0 1088 7 1064 0 l 799 0 b 732 40 757 0 732 10 b 801 197 732 106 801 71 l 801 469 b 732 628 801 596 732 561 b 796 667 732 660 757 667 l 1021 667 b 1088 628 1064 667 1088 657 b 1019 469 1088 561 1019 596 m 396 89 b 518 189 478 89 518 114 b 382 325 518 271 467 325 l 357 325 b 331 299 339 325 331 318 l 331 156 b 396 89 331 110 343 89 "},"ъ":{"ha":785,"x_min":0,"x_max":0,"o":"m 472 421 b 746 221 668 421 746 322 b 424 0 746 57 622 0 l 115 0 b 46 40 71 0 46 10 b 111 149 46 89 99 79 b 115 196 114 164 115 179 l 115 515 b 68 569 115 553 101 569 b -40 461 14 569 1 549 b -94 417 -56 429 -69 417 b -125 475 -122 417 -126 442 b -107 604 -124 524 -118 563 b 21 667 -96 647 -75 667 l 332 667 b 401 626 376 667 401 657 b 336 519 401 578 349 588 b 332 471 333 503 332 488 l 332 438 b 363 411 332 418 343 410 b 472 421 393 418 429 421 m 403 89 b 526 189 486 89 526 114 b 389 325 526 271 475 325 l 364 325 b 339 299 347 325 339 318 l 339 156 b 403 89 339 110 351 89 "},"є":{"ha":735,"x_min":0,"x_max":0,"o":"m 644 206 b 690 164 676 232 704 207 b 386 -14 664 83 560 -14 b 44 307 161 -14 44 139 b 424 681 44 519 204 681 b 672 554 538 681 672 639 b 610 492 672 519 646 492 b 396 593 529 492 492 593 b 257 408 310 593 257 522 l 257 393 b 367 433 308 421 339 433 b 496 383 429 433 451 383 b 574 406 531 383 553 406 b 603 376 592 406 603 392 b 463 276 603 321 513 276 b 317 332 403 276 379 332 b 267 321 304 332 282 326 b 482 142 293 211 371 142 b 644 206 550 142 596 165 "},"э":{"ha":747,"x_min":0,"x_max":0,"o":"m 363 681 b 701 358 585 681 701 528 b 325 -14 701 147 546 -14 b 64 121 201 -14 100 40 b 110 163 46 164 78 189 b 310 83 179 104 251 83 b 489 297 408 83 486 142 b 389 263 444 274 415 263 b 260 313 326 263 304 313 b 182 290 225 313 203 290 b 153 319 164 290 153 304 b 294 419 153 375 243 419 b 439 364 353 419 376 364 b 483 374 450 364 469 368 b 306 582 469 472 418 582 b 165 506 244 582 197 551 b 103 451 138 468 125 451 b 76 511 78 451 75 474 b 90 619 78 546 81 574 b 138 681 101 669 118 681 b 203 661 164 681 171 661 b 363 681 228 661 268 681 "},"і":{"ha":428,"x_min":0,"x_max":0,"o":"m 172 743 b 78 835 111 743 76 786 b 236 982 78 907 157 983 b 336 888 292 982 336 942 b 172 743 335 810 253 743 m 107 442 b 42 564 107 525 42 522 b 88 611 42 585 54 596 b 293 679 143 638 269 679 b 328 632 318 679 328 663 l 326 442 l 326 197 b 394 39 326 71 394 106 b 331 0 394 7 371 0 l 107 0 b 39 40 64 0 39 10 b 108 197 39 106 108 71 "},"ї":{"ha":428,"x_min":0,"x_max":0,"o":"m 75 760 b -3 833 32 760 -3 789 b 104 944 -3 890 43 944 b 189 863 154 944 189 913 b 75 760 189 803 135 760 m 318 760 b 238 833 272 760 238 789 b 344 944 238 890 285 944 b 429 863 396 944 429 913 b 318 760 429 803 376 760 m 107 442 b 42 564 107 525 42 522 b 88 611 42 585 54 596 b 293 679 143 638 269 679 b 328 632 318 679 328 663 l 326 442 l 326 197 b 394 39 326 71 394 106 b 331 0 394 7 371 0 l 107 0 b 39 40 64 0 39 10 b 108 197 39 106 108 71 "},"ю":{"ha":1182,"x_min":0,"x_max":0,"o":"m 813 681 b 1138 356 1007 681 1138 539 b 747 -14 1138 144 972 -14 b 421 304 565 -14 422 108 l 325 304 l 325 197 b 393 39 325 71 393 106 b 329 0 393 7 369 0 l 106 0 b 38 40 63 0 38 10 b 107 197 38 106 107 71 l 107 469 b 38 628 107 596 38 561 b 101 667 38 660 63 667 l 326 667 b 394 628 369 667 394 657 b 325 469 394 561 325 596 l 325 396 l 432 396 b 813 681 472 560 622 681 m 814 90 b 922 246 899 90 922 168 b 743 579 922 400 851 579 b 633 407 656 579 633 489 b 814 90 633 254 707 90 "},"я":{"ha":804,"x_min":0,"x_max":0,"o":"m 699 165 b 767 33 699 85 767 83 b 703 0 767 7 743 0 l 481 0 b 411 35 435 0 411 10 b 481 165 411 81 481 85 l 481 235 b 451 257 481 254 471 261 b 401 250 431 253 418 251 b 332 111 372 235 360 186 b 150 -11 311 53 275 -11 b 18 51 67 -11 17 18 b 49 82 18 69 29 82 b 136 158 83 83 104 89 b 226 271 160 208 185 246 b 92 444 138 303 92 367 b 419 667 92 579 214 667 l 699 667 b 767 626 743 667 767 657 b 703 519 767 578 715 588 b 699 471 700 503 699 488 m 475 529 b 424 578 475 560 474 578 b 310 458 354 578 310 539 b 419 344 310 390 357 344 b 475 381 465 344 475 354 "},"⁄":{"ha":513,"x_min":0,"x_max":0,"o":"m 79 -139 b 36 -81 31 -139 21 -126 l 368 985 b 426 1028 379 1018 392 1028 l 438 1028 b 474 969 482 1028 489 1015 l 140 -96 b 82 -139 131 -129 118 -139 "},"¹":{"ha":385,"x_min":0,"x_max":0,"o":"m 267 471 b 310 389 267 421 310 419 b 269 368 310 372 294 368 l 106 368 b 63 389 78 368 63 374 b 122 471 63 425 122 421 l 122 803 b 78 871 122 844 118 856 b 53 897 60 878 53 886 b 85 926 53 911 61 915 b 244 983 140 951 231 983 b 267 954 261 983 267 972 "},"²":{"ha":561,"x_min":0,"x_max":0,"o":"m 92 369 b 64 425 44 369 31 392 b 324 806 253 617 324 714 b 238 886 324 854 289 886 b 111 824 190 886 149 865 b 82 849 93 804 74 821 b 290 986 100 901 174 986 b 474 831 389 986 474 928 b 201 483 474 739 379 619 b 336 482 242 478 283 478 b 494 543 432 489 467 543 b 513 510 508 543 514 528 b 494 417 513 478 504 444 b 419 369 482 385 472 369 "},"³":{"ha":511,"x_min":0,"x_max":0,"o":"m 321 725 b 492 563 411 715 492 667 b 258 361 492 454 404 361 b 56 443 172 361 92 396 b 79 478 36 465 53 489 b 228 447 119 461 168 446 b 342 551 296 449 342 488 b 165 656 342 625 286 671 b 149 713 133 651 124 704 b 289 843 251 746 290 783 b 210 907 289 881 260 907 b 103 872 164 907 131 889 b 79 900 85 861 63 875 b 264 986 101 939 176 986 b 431 864 378 986 431 925 b 321 725 431 826 407 765 "}," ":{"ha":278,"x_min":0,"x_max":0,"o":""}," ":{"ha":278,"x_min":0,"x_max":0,"o":""},".":{"ha":340,"x_min":0,"x_max":0,"o":"m 164 -14 b 51 96 104 -14 51 24 b 178 222 51 175 114 222 b 292 108 236 222 292 183 b 164 -14 292 32 231 -14 "},",":{"ha":354,"x_min":0,"x_max":0,"o":"m 115 -192 b 86 -168 99 -192 86 -182 b 149 -57 86 -142 149 -111 b 63 100 149 0 63 8 b 175 221 63 174 118 221 b 300 76 244 221 300 179 b 115 -192 300 -76 186 -192 "},":":{"ha":340,"x_min":0,"x_max":0,"o":"m 164 419 b 51 529 104 419 51 457 b 178 656 51 608 114 656 b 292 542 236 656 292 617 b 164 419 292 465 231 419 m 164 -14 b 51 96 104 -14 51 24 b 178 222 51 175 114 222 b 292 108 236 222 292 183 b 164 -14 292 32 231 -14 "},";":{"ha":354,"x_min":0,"x_max":0,"o":"m 164 419 b 51 529 104 419 51 457 b 178 656 51 608 114 656 b 292 542 236 656 292 617 b 164 419 292 465 231 419 m 115 -192 b 86 -168 99 -192 86 -182 b 149 -57 86 -142 149 -111 b 63 100 149 0 63 8 b 175 221 63 174 118 221 b 300 76 244 221 300 179 b 115 -192 300 -76 186 -192 "},"…":{"ha":951,"x_min":0,"x_max":0,"o":"m 164 -14 b 51 96 104 -14 51 24 b 178 222 51 175 114 222 b 292 108 236 222 292 183 b 164 -14 292 32 231 -14 m 469 -14 b 357 96 410 -14 357 24 b 483 222 357 175 419 222 b 597 108 542 222 597 183 b 469 -14 597 32 536 -14 m 775 -14 b 663 96 715 -14 663 24 b 789 222 663 175 725 222 b 903 108 847 222 903 183 b 775 -14 903 32 842 -14 "},"!":{"ha":340,"x_min":0,"x_max":0,"o":"m 169 333 b 138 378 146 333 139 343 b 49 851 124 569 49 753 b 169 986 49 935 101 986 b 293 851 239 986 293 935 b 201 378 293 753 215 569 b 169 333 200 343 194 333 m 164 -14 b 51 96 104 -14 51 24 b 178 222 51 175 114 222 b 292 108 236 222 292 183 b 164 -14 292 32 231 -14 "},"¡":{"ha":340,"x_min":0,"x_max":0,"o":"m 176 681 b 289 571 236 681 289 644 b 163 444 289 492 226 444 b 49 558 104 444 49 483 b 176 681 49 635 110 681 m 171 333 b 203 289 196 333 201 325 b 293 -185 217 97 293 -86 b 171 -319 293 -268 240 -319 b 49 -185 103 -319 49 -268 b 139 289 49 -86 125 97 b 171 333 140 325 146 333 "},"?":{"ha":679,"x_min":0,"x_max":0,"o":"m 364 374 b 267 394 360 301 267 311 b 407 804 267 581 407 661 b 339 886 407 840 390 886 b 236 760 279 886 265 821 b 139 682 218 725 200 682 b 40 781 63 682 40 738 b 340 986 40 886 136 986 b 638 788 531 986 638 901 b 408 482 638 646 471 565 b 364 374 397 467 365 401 m 326 -14 b 214 96 267 -14 214 24 b 340 222 214 175 276 222 b 454 108 399 222 454 183 b 326 -14 454 32 393 -14 "},"¿":{"ha":833,"x_min":0,"x_max":0,"o":"m 469 681 b 582 571 529 681 582 644 b 456 444 582 492 519 444 b 342 558 397 444 342 483 b 469 681 342 635 403 681 m 433 293 b 529 272 436 365 529 356 b 389 -137 529 86 389 7 b 457 -219 389 -174 407 -219 b 560 -93 517 -219 531 -154 b 657 -15 578 -58 596 -15 b 757 -114 733 -15 757 -71 b 456 -319 757 -219 660 -319 b 158 -121 265 -319 158 -235 b 388 185 158 21 325 103 b 433 293 399 200 432 265 "},"·":{"ha":340,"x_min":0,"x_max":0,"o":"m 164 250 b 51 360 104 250 51 288 b 178 486 51 439 114 486 b 292 372 236 486 292 447 b 164 250 292 296 231 250 "},"•":{"ha":446,"x_min":0,"x_max":0,"o":"m 214 197 b 56 351 129 197 56 249 b 233 531 56 464 144 531 b 394 371 315 531 394 475 b 214 197 394 263 308 197 "},"*":{"ha":692,"x_min":0,"x_max":0,"o":"m 144 425 b 138 543 108 457 108 507 b 268 624 169 583 218 590 b 256 668 292 640 285 667 b 101 671 194 672 149 653 b 49 775 57 688 32 732 b 156 822 64 819 113 838 b 276 728 203 807 228 764 b 314 754 299 710 321 726 b 265 899 297 813 265 847 b 346 983 265 944 299 983 b 426 899 393 983 426 944 b 376 754 426 847 394 811 b 414 728 369 726 392 710 b 535 822 463 764 488 807 b 642 775 578 838 626 819 b 589 671 658 732 633 688 b 435 668 542 653 496 672 b 422 624 406 667 400 640 b 554 543 474 590 521 583 b 546 425 582 507 582 457 b 429 439 510 394 460 404 b 368 593 394 481 396 532 b 321 592 356 615 333 615 b 261 439 293 532 296 481 b 144 425 231 404 181 394 "},"#":{"ha":990,"x_min":0,"x_max":0,"o":"m 718 675 l 917 675 b 944 647 935 675 944 665 l 944 601 b 917 574 944 583 935 574 l 693 574 l 649 397 l 889 397 b 917 369 907 397 917 388 l 917 324 b 889 296 917 306 907 296 l 624 296 l 557 24 b 526 0 553 8 543 0 l 482 0 b 457 31 463 0 453 13 l 522 296 l 332 296 l 265 24 b 235 0 261 8 251 0 l 190 0 b 165 31 171 0 161 13 l 231 296 l 68 296 b 40 324 50 296 40 306 l 40 369 b 68 397 40 388 50 397 l 256 397 l 299 574 l 96 574 b 68 601 78 574 68 583 l 68 647 b 96 675 68 665 78 675 l 324 675 l 392 949 b 422 972 396 964 406 972 l 467 972 b 492 942 486 972 496 960 l 426 675 l 615 675 l 683 949 b 714 972 688 964 697 972 l 758 972 b 783 942 778 972 788 960 m 357 397 l 547 397 l 590 574 l 401 574 "},"/":{"ha":513,"x_min":0,"x_max":0,"o":"m 79 -139 b 36 -81 31 -139 21 -126 l 368 985 b 426 1028 379 1018 392 1028 l 438 1028 b 474 969 482 1028 489 1015 l 140 -96 b 82 -139 131 -129 118 -139 "},"\\":{"ha":514,"x_min":0,"x_max":0,"o":"m 429 -139 b 371 -96 393 -139 381 -129 l 39 969 b 75 1028 24 1015 32 1028 l 85 1028 b 143 985 121 1028 133 1018 l 476 -81 b 440 -139 492 -126 483 -139 "},"-":{"ha":472,"x_min":0,"x_max":0,"o":"m 100 351 b 61 390 69 351 53 360 l 69 418 b 121 457 78 449 90 457 l 374 457 b 411 417 404 457 421 449 l 404 390 b 353 351 396 360 383 351 "},"­":{"ha":472,"x_min":0,"x_max":0,"o":"m 353 351 b 404 390 383 351 396 360 l 411 417 b 374 457 421 449 404 457 l 121 457 b 69 418 90 457 78 449 l 61 390 b 100 351 53 360 69 351 "},"–":{"ha":682,"x_min":0,"x_max":0,"o":"m 100 351 b 61 390 69 351 53 360 l 69 418 b 121 457 78 449 90 457 l 582 457 b 619 417 613 457 629 449 l 613 390 b 561 351 604 360 592 351 "},"—":{"ha":958,"x_min":0,"x_max":0,"o":"m 100 351 b 61 390 69 351 53 360 l 69 418 b 121 457 78 449 90 457 l 858 457 b 897 417 889 457 906 449 l 889 390 b 838 351 881 360 868 351 "},"_":{"ha":551,"x_min":0,"x_max":0,"o":"m 40 -122 b 0 -82 8 -122 0 -112 b 40 -40 0 -49 8 -40 l 511 -40 b 551 -81 543 -40 551 -49 b 511 -122 551 -112 543 -122 "},"(":{"ha":519,"x_min":0,"x_max":0,"o":"m 429 -167 b 46 464 244 -81 46 132 b 413 1065 46 765 233 972 b 496 1061 447 1082 478 1089 b 460 989 510 1038 489 1015 b 269 460 331 878 269 700 b 460 -83 269 207 332 29 b 494 -156 490 -108 508 -132 b 429 -167 476 -181 451 -176 "},")":{"ha":519,"x_min":0,"x_max":0,"o":"m 96 -167 b 29 -156 72 -176 47 -181 b 64 -83 15 -132 33 -108 b 254 460 192 29 254 207 b 64 989 254 700 193 878 b 28 1061 35 1015 14 1038 b 111 1065 46 1089 76 1082 b 478 464 290 972 478 765 b 96 -167 478 132 279 -81 "},"{":{"ha":453,"x_min":0,"x_max":0,"o":"m 388 -93 b 431 -140 421 -106 431 -115 b 381 -178 431 -172 421 -179 b 113 67 181 -167 113 -79 l 113 340 b 58 417 113 381 96 407 b 14 464 22 425 14 435 b 58 515 14 499 22 508 b 113 592 97 525 113 551 l 113 838 b 381 1082 113 983 181 1068 b 431 1044 421 1085 431 1076 b 388 999 431 1021 422 1011 b 332 863 342 981 332 933 l 332 647 b 200 465 332 550 279 494 b 332 285 279 436 332 382 l 332 42 b 388 -93 332 -29 339 -78 "},"}":{"ha":453,"x_min":0,"x_max":0,"o":"m 394 515 b 440 464 431 508 440 499 b 396 417 440 435 431 425 b 342 340 357 407 342 381 l 342 67 b 72 -178 342 -79 272 -167 b 22 -140 32 -179 22 -172 b 65 -93 22 -115 32 -106 b 122 42 114 -78 122 -29 l 122 285 b 254 467 122 382 174 438 b 122 647 174 494 122 550 l 122 863 b 65 999 122 933 111 981 b 22 1044 32 1011 22 1021 b 72 1082 22 1076 33 1085 b 342 838 272 1068 342 983 l 342 592 b 394 515 342 551 356 525 "},"[":{"ha":482,"x_min":0,"x_max":0,"o":"m 149 -178 b 97 -126 115 -178 97 -160 l 97 1031 b 149 1082 97 1064 115 1082 l 393 1082 b 444 1042 433 1082 444 1074 b 393 1003 444 1011 433 1003 l 347 1003 b 308 963 322 1003 308 988 l 308 -58 b 347 -99 308 -83 322 -99 l 393 -99 b 444 -137 433 -99 444 -107 b 393 -178 444 -169 433 -178 "},"]":{"ha":482,"x_min":0,"x_max":0,"o":"m 90 -178 b 38 -137 49 -178 38 -169 b 90 -99 38 -107 49 -99 l 135 -99 b 174 -58 160 -99 174 -83 l 174 963 b 135 1003 174 988 160 1003 l 90 1003 b 38 1042 49 1003 38 1011 b 90 1082 38 1074 49 1082 l 333 1082 b 385 1031 367 1082 385 1064 l 385 -126 b 333 -178 385 -160 367 -178 "},"‚":{"ha":354,"x_min":0,"x_max":0,"o":"m 115 -192 b 86 -168 99 -192 86 -182 b 149 -57 86 -142 149 -111 b 63 100 149 0 63 8 b 175 221 63 174 118 221 b 300 76 244 221 300 179 b 115 -192 300 -76 186 -192 "},"„":{"ha":651,"x_min":0,"x_max":0,"o":"m 115 -192 b 86 -168 99 -192 86 -182 b 149 -57 86 -142 149 -111 b 63 100 149 0 63 8 b 175 221 63 174 118 221 b 300 76 244 221 300 179 b 115 -192 300 -76 186 -192 m 419 -192 b 389 -168 403 -192 389 -182 b 453 -57 389 -142 453 -111 b 367 100 453 0 367 8 b 479 221 367 174 422 221 b 603 76 549 221 603 179 b 419 -192 603 -76 490 -192 "},"“":{"ha":643,"x_min":0,"x_max":0,"o":"m 231 1022 b 261 997 249 1022 261 1011 b 199 888 261 971 199 942 b 285 731 199 829 285 821 b 172 608 285 656 229 608 b 47 753 103 608 47 650 b 231 1022 47 907 161 1022 m 535 1022 b 565 997 553 1022 565 1011 b 503 888 565 971 503 942 b 589 731 503 829 589 821 b 475 608 589 656 532 608 b 351 753 407 608 351 650 b 535 1022 351 907 464 1022 "},"”":{"ha":643,"x_min":0,"x_max":0,"o":"m 108 561 b 78 585 92 561 78 571 b 142 696 78 611 142 642 b 56 853 142 753 56 761 b 168 974 56 926 111 974 b 292 829 238 974 292 932 b 108 561 292 676 179 561 m 413 561 b 382 585 394 561 382 571 b 444 696 382 611 444 642 b 360 853 444 753 360 761 b 472 974 360 926 415 974 b 596 829 540 974 596 932 b 413 561 596 676 483 561 "},"‘":{"ha":354,"x_min":0,"x_max":0,"o":"m 239 1022 b 269 997 256 1022 269 1011 b 206 888 269 971 206 942 b 292 731 206 829 292 821 b 179 608 292 656 236 608 b 54 754 110 608 54 650 b 239 1022 54 907 168 1022 "},"’":{"ha":354,"x_min":0,"x_max":0,"o":"m 115 561 b 86 585 99 561 86 571 b 149 696 86 611 149 640 b 63 853 149 753 63 761 b 175 974 63 926 118 974 b 300 829 244 974 300 932 b 115 561 300 676 186 561 "},"«":{"ha":686,"x_min":0,"x_max":0,"o":"m 322 78 b 147 217 292 78 192 172 b 61 343 86 275 61 299 b 147 469 61 388 86 410 b 322 608 192 514 292 608 b 346 583 338 608 346 600 b 210 343 346 539 267 428 b 346 103 267 258 346 147 b 322 78 346 85 338 78 m 589 78 b 414 217 560 78 460 172 b 328 343 354 275 328 299 b 414 469 328 388 354 410 b 589 608 460 514 560 608 b 613 583 604 608 613 600 b 476 343 613 539 535 428 b 613 103 535 258 613 147 b 589 78 613 85 604 78 "},"»":{"ha":674,"x_min":0,"x_max":0,"o":"m 88 78 b 65 103 74 78 65 85 b 201 343 65 147 143 258 b 65 583 143 428 65 539 b 88 608 65 600 74 608 b 264 469 118 608 218 514 b 349 343 324 410 349 388 b 264 217 349 299 324 275 b 88 78 218 172 118 78 m 356 78 b 332 103 340 78 332 85 b 468 343 332 147 411 258 b 332 583 411 428 332 539 b 356 608 332 600 340 608 b 531 469 385 608 486 514 b 617 343 590 410 617 388 b 531 217 617 299 590 275 b 356 78 486 172 385 78 "},"‹":{"ha":404,"x_min":0,"x_max":0,"o":"m 307 78 b 132 217 278 78 178 172 b 46 343 72 275 46 299 b 132 469 46 388 72 410 b 307 608 178 514 278 608 b 331 583 322 608 331 600 b 194 343 331 539 253 428 b 331 103 253 258 331 147 b 307 78 331 85 322 78 "},"›":{"ha":404,"x_min":0,"x_max":0,"o":"m 97 78 b 74 103 82 78 74 85 b 210 343 74 147 153 258 b 74 583 153 428 74 539 b 97 608 74 600 82 608 b 272 469 126 608 228 514 b 358 343 332 410 358 388 b 272 217 358 299 332 275 b 97 78 228 172 126 78 "},"\"":{"ha":606,"x_min":0,"x_max":0,"o":"m 165 557 b 118 614 136 557 124 588 b 74 883 99 683 74 838 b 165 988 74 932 92 988 b 257 885 239 988 257 932 b 211 618 257 842 229 689 b 165 557 203 583 193 557 m 442 557 b 394 614 411 557 399 588 b 349 883 375 683 349 838 b 442 988 349 932 367 988 b 532 885 515 988 532 932 b 488 618 532 842 506 689 b 442 557 478 583 468 557 "},"'":{"ha":331,"x_min":0,"x_max":0,"o":"m 165 557 b 118 614 136 557 124 588 b 74 883 99 683 74 838 b 165 988 74 932 92 988 b 257 885 239 988 257 932 b 211 618 257 842 229 689 b 165 557 203 583 193 557 "}}}
